<svg width="180" height="29" viewBox="0 0 180 29" fill="none" xmlns="http://www.w3.org/2000/svg">
<path d="M160.53 15.9749V7.37256H162.25V14.6354H166.011V15.9749H160.53Z" fill="#71706C"/>
<path d="M151.573 15.9749L154.707 7.37256H156.661L159.794 15.9749H157.976L155.678 9.32651L153.367 15.9749H151.573ZM152.949 14.0455L153.404 12.706H157.828L158.271 14.0455H152.949Z" fill="#71706C"/>
<path d="M147.797 16.1224C147.158 16.1224 146.58 15.9954 146.064 15.7414C145.548 15.4874 145.134 15.1065 144.823 14.5985C144.519 14.0824 144.368 13.4311 144.368 12.6446V7.37256H146.088V12.6568C146.088 13.0747 146.158 13.4229 146.297 13.7014C146.437 13.98 146.633 14.193 146.887 14.3404C147.149 14.4797 147.465 14.5494 147.833 14.5494C148.202 14.5494 148.513 14.4797 148.767 14.3404C149.03 14.193 149.23 13.98 149.37 13.7014C149.509 13.4229 149.578 13.0747 149.578 12.6568V7.37256H151.299V12.6446C151.299 13.4311 151.139 14.0824 150.82 14.5985C150.508 15.1065 150.086 15.4874 149.554 15.7414C149.021 15.9954 148.436 16.1224 147.797 16.1224Z" fill="#71706C"/>
<path d="M139.433 15.9749V8.76122H136.926V7.37256H143.648V8.76122H141.141V15.9749H139.433Z" fill="#71706C"/>
<path d="M130.01 15.9749V7.37256H133.267C133.963 7.37256 134.536 7.49135 134.987 7.72894C135.446 7.96653 135.786 8.28604 136.007 8.68748C136.236 9.08073 136.351 9.52314 136.351 10.0147C136.351 10.4735 136.241 10.9036 136.019 11.305C135.806 11.7065 135.47 12.0301 135.012 12.2759C134.553 12.5135 133.967 12.6323 133.254 12.6323H131.73V15.9749H130.01ZM134.459 15.9749L132.701 12.2021H134.569L136.425 15.9749H134.459ZM131.73 11.3788H133.168C133.652 11.3788 134.008 11.26 134.237 11.0224C134.475 10.7848 134.594 10.4694 134.594 10.0761C134.594 9.69109 134.479 9.38386 134.25 9.15447C134.02 8.92507 133.656 8.81038 133.156 8.81038H131.73V11.3788Z" fill="#71706C"/>
<path d="M126.982 15.9749V7.37256H128.703V15.9749H126.982Z" fill="#71706C"/>
<path d="M121.096 15.9749L117.975 7.37256H119.818L122.165 14.2298L124.525 7.37256H126.344L123.222 15.9749H121.096Z" fill="#71706C"/>
<path d="M14.3399 28.2573C12.0784 28.2573 10.0689 27.8797 8.29712 27.1174C6.52534 26.3623 5.02724 25.3241 3.81004 24.0172C2.59284 22.7103 1.64213 21.2002 0.986719 19.494C0.324102 17.7878 0 15.9437 0 13.9761C0 11.3551 0.604994 9.02453 1.80779 6.9771C3.01058 4.92968 4.68873 3.30335 6.83503 2.11265C8.98133 0.914687 11.4301 0.319336 14.1742 0.319336C16.054 0.319336 17.7394 0.617016 19.2303 1.19785C20.714 1.78594 21.9888 2.57731 23.0403 3.55746C24.0919 4.54487 24.9057 5.64845 25.4675 6.86093C26.0293 8.07342 26.3174 9.29316 26.3174 10.5056C26.3174 12.4442 25.8636 13.8091 24.9634 14.6005C24.0631 15.3991 22.9467 15.7985 21.6287 15.7985H5.30813C5.27212 17.432 5.71146 18.8405 6.63336 20.0385C7.55526 21.2365 8.72204 22.1513 10.1337 22.7975C11.5454 23.4436 12.9642 23.7631 14.3975 23.7631C15.413 23.7631 16.3061 23.705 17.0768 23.5888C17.8474 23.4727 18.5172 23.3275 19.079 23.1314C19.6408 22.9427 20.1234 22.7539 20.5195 22.5651C20.9156 22.3764 21.283 22.1876 21.6215 21.9988C21.96 21.81 22.2769 21.6794 22.5794 21.5995C22.8819 21.5269 23.1988 21.5559 23.5373 21.6866C23.8758 21.8173 24.1351 22.0787 24.3296 22.4562C24.5528 22.7611 24.7041 23.0443 24.7833 23.3129C24.8553 23.5816 24.8985 23.8647 24.8985 24.1697C24.8985 24.736 24.4448 25.3386 23.5445 25.963C22.6442 26.5874 21.391 27.1319 19.7921 27.582C18.1931 28.0394 16.3782 28.2645 14.3399 28.2645V28.2573ZM5.30813 12.3716H19.4824C20.1594 12.3716 20.6852 12.2772 21.0669 12.0884C21.4414 11.8996 21.6287 11.3841 21.6287 10.5492C21.6287 9.52549 21.3118 8.57438 20.6708 7.70314C20.0297 6.83189 19.1583 6.12763 18.0419 5.59762C16.9327 5.06762 15.6435 4.79899 14.1742 4.79899C12.5537 4.79899 11.0556 5.13296 9.68716 5.79366C8.31151 6.46161 7.23117 7.3619 6.43891 8.49452C5.64665 9.62714 5.27212 10.9267 5.30813 12.3643V12.3716Z" fill="#D72D8A"/>
<path d="M40.9383 28.0827C40.2972 28.0827 39.7715 27.9883 39.3537 27.7996C38.936 27.6108 38.6191 27.2696 38.3958 26.7758L27.9524 3.83306C27.5347 2.92551 27.441 2.22852 27.6715 1.75659C27.8948 1.28467 28.4206 0.834529 29.256 0.420688C30.0051 0.0431487 30.6461 -0.0802793 31.179 0.0504075C31.7048 0.181094 32.1586 0.703838 32.5331 1.61865L40.9454 21.7662L49.1921 2.12687C49.5667 1.25563 50.0132 0.631235 50.5174 0.246435C51.0287 -0.131104 51.8066 -0.0584968 52.8581 0.47151C53.8737 0.965216 54.385 1.52426 54.385 2.14866C54.385 2.77305 54.2122 3.44827 53.8737 4.16704L43.4807 26.7105C43.2934 27.1679 42.9909 27.5091 42.5804 27.7342C42.1627 27.9593 41.6225 28.0754 40.9454 28.0754L40.9383 28.0827Z" fill="#D72D8A"/>
<path d="M79.6721 27.9143C78.8438 27.9143 78.2388 27.7401 77.8643 27.3989C77.4898 27.0576 77.2809 26.5276 77.2449 25.8016L77.4682 22.9555C77.0936 23.5654 76.5103 24.2551 75.718 25.032C74.9257 25.8088 73.8814 26.4913 72.585 27.0794C71.2885 27.6675 69.7328 27.9652 67.925 27.9652C66.1173 27.9652 64.4319 27.6021 62.869 26.8834C61.3061 26.1646 59.9304 25.1554 58.7493 23.8631C57.5609 22.5707 56.6318 21.0969 55.9547 19.4197C55.2777 17.7498 54.9392 15.9638 54.9392 14.0688C54.9392 12.1739 55.2777 10.4531 55.9547 8.80504C56.6318 7.15694 57.5753 5.70486 58.7781 4.44882C59.9809 3.19277 61.3637 2.21262 62.9266 1.48658C64.4895 0.767802 66.1533 0.404785 67.925 0.404785C69.5816 0.404785 70.9933 0.622597 72.16 1.05822C73.3268 1.49384 74.3351 2.06741 75.1778 2.76441C76.0277 3.46866 76.7695 4.25278 77.4106 5.12403L77.2377 2.73537C77.2377 1.90043 77.4322 1.30507 77.8283 0.942051C78.2244 0.579033 78.851 0.404785 79.7225 0.404785C80.4355 0.404785 80.9541 0.520952 81.2782 0.746024C81.5951 0.971095 81.8184 1.29781 81.9264 1.71165C82.0417 2.13276 82.0993 2.64098 82.0993 3.25085V25.2207C82.0993 25.7508 82.0417 26.2299 81.9264 26.6438C81.8112 27.0649 81.5879 27.3771 81.2494 27.5804C80.9109 27.7909 80.3851 27.8926 79.6649 27.8926L79.6721 27.9143ZM68.7173 23.1878C70.2586 23.1878 71.6559 22.7885 72.8947 21.9899C74.1335 21.1912 75.1346 20.124 75.8909 18.7735C76.6399 17.4304 77.0216 15.8766 77.0216 14.1342C77.0216 12.3917 76.6327 10.7871 75.8621 9.43669C75.0914 8.09352 74.0759 7.0335 72.8155 6.27842C71.555 5.52335 70.1506 5.13855 68.6093 5.13855C66.8735 5.13855 65.361 5.53787 64.0646 6.33651C62.7682 7.13515 61.7382 8.21695 60.9892 9.5819C60.233 10.9468 59.8584 12.5006 59.8584 14.2503C59.8584 16.0001 60.233 17.4884 60.9892 18.8316C61.7382 20.182 62.7898 21.2421 64.1222 22.0189C65.4546 22.7958 66.996 23.1878 68.7245 23.1878H68.7173Z" fill="#D72D8A"/>
<path d="M110.506 27.9143C109.678 27.9143 109.073 27.7401 108.698 27.3989C108.324 27.0576 108.115 26.5276 108.079 25.8016L108.302 22.9555C107.928 23.5654 107.344 24.2551 106.552 25.032C105.76 25.8088 104.715 26.4913 103.419 27.0794C102.123 27.6675 100.567 27.9652 98.759 27.9652C96.9512 27.9652 95.2659 27.6021 93.703 26.8834C92.1401 26.1646 90.7644 25.1554 89.5832 23.8631C88.3948 22.5707 87.4657 21.0969 86.7887 19.4197C86.1117 17.7498 85.7732 15.9638 85.7732 14.0688C85.7732 12.1739 86.1117 10.4531 86.7887 8.80504C87.4657 7.15694 88.4092 5.70486 89.612 4.44882C90.8148 3.19277 92.1977 2.21262 93.7606 1.48658C95.3235 0.767802 96.9873 0.404785 98.759 0.404785C100.416 0.404785 101.827 0.622597 102.994 1.05822C104.161 1.49384 105.169 2.06741 106.012 2.76441C106.862 3.46866 107.604 4.25278 108.245 5.12403L108.072 2.73537C108.072 1.90043 108.266 1.30507 108.662 0.942051C109.058 0.579033 109.685 0.404785 110.556 0.404785C111.27 0.404785 111.788 0.520952 112.112 0.746024C112.429 0.971095 112.652 1.29781 112.76 1.71165C112.876 2.13276 112.933 2.64098 112.933 3.25085V25.2207C112.933 25.7508 112.876 26.2299 112.76 26.6438C112.645 27.0649 112.422 27.3771 112.083 27.5804C111.745 27.7909 111.219 27.8926 110.499 27.8926L110.506 27.9143ZM99.5513 23.1878C101.093 23.1878 102.49 22.7885 103.729 21.9899C104.967 21.1912 105.969 20.124 106.725 18.7735C107.474 17.4304 107.856 15.8766 107.856 14.1342C107.856 12.3917 107.467 10.7871 106.696 9.43669C105.925 8.09352 104.91 7.0335 103.649 6.27842C102.389 5.52335 100.985 5.13855 99.4432 5.13855C97.7075 5.13855 96.195 5.53787 94.8986 6.33651C93.6021 7.13515 92.5722 8.21695 91.8232 9.5819C91.0669 10.9468 90.6924 12.5006 90.6924 14.2503C90.6924 16.0001 91.0669 17.4884 91.8232 18.8316C92.5722 20.182 93.6238 21.2421 94.9562 22.0189C96.2886 22.7958 97.8299 23.1878 99.5585 23.1878H99.5513Z" fill="#D72D8A"/>
<path d="M175.753 27.228V19.803H173.178V18.4336H180V19.803H177.437V27.228H175.753Z" fill="#71706C"/>
<path d="M165.056 27.228V18.4336H166.752L170.797 24.5017V18.4336H172.493V27.228H170.797L166.752 21.1724V27.228H165.056Z" fill="#71706C"/>
<path d="M156.06 27.228L159.277 18.4336H161.199L164.402 27.228H162.606L160.231 20.3684L157.844 27.228H156.06ZM157.48 25.2304L157.932 23.9112H162.405L162.845 25.2304H157.48Z" fill="#71706C"/>
<path d="M152.637 27.228V19.803H150.062V18.4336H156.884V19.803H154.321V27.228H152.637Z" fill="#71706C"/>
<path d="M146.624 27.3786C145.987 27.3786 145.418 27.2697 144.915 27.052C144.421 26.8342 144.027 26.5159 143.734 26.0972C143.449 25.6784 143.303 25.1717 143.294 24.577H145.091C145.099 24.8366 145.166 25.0711 145.292 25.2805C145.418 25.4899 145.589 25.6574 145.807 25.7831C146.033 25.9003 146.301 25.959 146.611 25.959C146.879 25.959 147.11 25.9171 147.302 25.8333C147.503 25.7412 147.658 25.6156 147.767 25.4564C147.876 25.2973 147.93 25.1088 147.93 24.8911C147.93 24.6398 147.868 24.4304 147.742 24.2629C147.625 24.0954 147.457 23.953 147.239 23.8357C147.03 23.7185 146.783 23.6138 146.498 23.5217C146.222 23.4212 145.929 23.3165 145.619 23.2076C144.923 22.9814 144.392 22.6799 144.023 22.303C143.663 21.9261 143.483 21.4278 143.483 20.808C143.483 20.2803 143.609 19.828 143.86 19.4511C144.119 19.0742 144.475 18.7853 144.928 18.5842C145.38 18.3832 145.895 18.2827 146.473 18.2827C147.068 18.2827 147.587 18.3874 148.031 18.5968C148.483 18.7978 148.839 19.091 149.099 19.4762C149.367 19.8615 149.505 20.3138 149.513 20.8331H147.704C147.696 20.6405 147.637 20.4604 147.528 20.2929C147.428 20.117 147.285 19.9788 147.101 19.8783C146.917 19.7694 146.699 19.7149 146.448 19.7149C146.23 19.7066 146.029 19.7401 145.845 19.8155C145.669 19.8908 145.527 20.0039 145.418 20.1547C145.317 20.2971 145.267 20.4771 145.267 20.6949C145.267 20.9043 145.317 21.0802 145.418 21.2226C145.527 21.3649 145.673 21.4906 145.857 21.5995C146.042 21.7 146.259 21.7963 146.511 21.8884C146.762 21.9722 147.034 22.0601 147.327 22.1522C147.763 22.303 148.165 22.4831 148.533 22.6925C148.902 22.8935 149.195 23.1573 149.413 23.484C149.631 23.8106 149.739 24.242 149.739 24.778C149.739 25.2387 149.618 25.6658 149.375 26.0595C149.132 26.4531 148.78 26.7714 148.32 27.0143C147.868 27.2572 147.302 27.3786 146.624 27.3786Z" fill="#71706C"/>
<path d="M140.675 27.228V18.4336H142.371V27.228H140.675Z" fill="#71706C"/>
<path d="M136.623 27.3786C135.986 27.3786 135.417 27.2697 134.914 27.052C134.42 26.8342 134.027 26.5159 133.733 26.0972C133.449 25.6784 133.302 25.1717 133.294 24.577H135.09C135.099 24.8366 135.166 25.0711 135.291 25.2805C135.417 25.4899 135.589 25.6574 135.806 25.7831C136.033 25.9003 136.301 25.959 136.61 25.959C136.878 25.959 137.109 25.9171 137.301 25.8333C137.502 25.7412 137.657 25.6156 137.766 25.4564C137.875 25.2973 137.93 25.1088 137.93 24.8911C137.93 24.6398 137.867 24.4304 137.741 24.2629C137.624 24.0954 137.456 23.953 137.239 23.8357C137.029 23.7185 136.782 23.6138 136.497 23.5217C136.221 23.4212 135.928 23.3165 135.618 23.2076C134.923 22.9814 134.391 22.6799 134.022 22.303C133.662 21.9261 133.482 21.4278 133.482 20.808C133.482 20.2803 133.608 19.828 133.859 19.4511C134.119 19.0742 134.475 18.7853 134.927 18.5842C135.379 18.3832 135.894 18.2827 136.472 18.2827C137.067 18.2827 137.586 18.3874 138.03 18.5968C138.482 18.7978 138.838 19.091 139.098 19.4762C139.366 19.8615 139.504 20.3138 139.513 20.8331H137.703C137.695 20.6405 137.636 20.4604 137.528 20.2929C137.427 20.117 137.285 19.9788 137.1 19.8783C136.916 19.7694 136.698 19.7149 136.447 19.7149C136.229 19.7066 136.028 19.7401 135.844 19.8155C135.668 19.8908 135.526 20.0039 135.417 20.1547C135.316 20.2971 135.266 20.4771 135.266 20.6949C135.266 20.9043 135.316 21.0802 135.417 21.2226C135.526 21.3649 135.672 21.4906 135.857 21.5995C136.041 21.7 136.259 21.7963 136.51 21.8884C136.761 21.9722 137.033 22.0601 137.327 22.1522C137.762 22.303 138.164 22.4831 138.533 22.6925C138.901 22.8935 139.194 23.1573 139.412 23.484C139.63 23.8106 139.739 24.242 139.739 24.778C139.739 25.2387 139.617 25.6658 139.374 26.0595C139.132 26.4531 138.78 26.7714 138.319 27.0143C137.867 27.2572 137.301 27.3786 136.623 27.3786Z" fill="#71706C"/>
<path d="M129.543 27.3786C128.907 27.3786 128.337 27.2697 127.835 27.052C127.341 26.8342 126.947 26.5159 126.654 26.0972C126.369 25.6784 126.222 25.1717 126.214 24.577H128.011C128.019 24.8366 128.086 25.0711 128.212 25.2805C128.337 25.4899 128.509 25.6574 128.727 25.7831C128.953 25.9003 129.221 25.959 129.531 25.959C129.799 25.959 130.029 25.9171 130.222 25.8333C130.423 25.7412 130.578 25.6156 130.687 25.4564C130.796 25.2973 130.85 25.1088 130.85 24.8911C130.85 24.6398 130.787 24.4304 130.662 24.2629C130.544 24.0954 130.377 23.953 130.159 23.8357C129.95 23.7185 129.703 23.6138 129.418 23.5217C129.141 23.4212 128.848 23.3165 128.538 23.2076C127.843 22.9814 127.311 22.6799 126.943 22.303C126.583 21.9261 126.403 21.4278 126.403 20.808C126.403 20.2803 126.528 19.828 126.779 19.4511C127.039 19.0742 127.395 18.7853 127.847 18.5842C128.3 18.3832 128.815 18.2827 129.393 18.2827C129.987 18.2827 130.507 18.3874 130.951 18.5968C131.403 18.7978 131.759 19.091 132.018 19.4762C132.286 19.8615 132.425 20.3138 132.433 20.8331H130.624C130.615 20.6405 130.557 20.4604 130.448 20.2929C130.347 20.117 130.205 19.9788 130.021 19.8783C129.837 19.7694 129.619 19.7149 129.368 19.7149C129.15 19.7066 128.949 19.7401 128.764 19.8155C128.589 19.8908 128.446 20.0039 128.337 20.1547C128.237 20.2971 128.187 20.4771 128.187 20.6949C128.187 20.9043 128.237 21.0802 128.337 21.2226C128.446 21.3649 128.593 21.4906 128.777 21.5995C128.961 21.7 129.179 21.7963 129.43 21.8884C129.682 21.9722 129.954 22.0601 130.247 22.1522C130.683 22.303 131.085 22.4831 131.453 22.6925C131.822 22.8935 132.115 23.1573 132.332 23.484C132.55 23.8106 132.659 24.242 132.659 24.778C132.659 25.2387 132.538 25.6658 132.295 26.0595C132.052 26.4531 131.7 26.7714 131.239 27.0143C130.787 27.2572 130.222 27.3786 129.543 27.3786Z" fill="#71706C"/>
<path d="M117.521 27.228L120.737 18.4336H122.659L125.863 27.228H124.066L121.692 20.3684L119.305 27.228H117.521ZM118.94 25.2304L119.392 23.9112H123.865L124.305 25.2304H118.94Z" fill="#71706C"/>
<path d="M120.923 4.80217V0.893555H121.928L123.067 3.24431L124.195 0.893555H125.195V4.80217H124.357V2.30624L123.397 4.25497H122.727L121.761 2.30624V4.80217H120.923Z" fill="#D72D8A"/>
<path d="M118.654 4.80217V1.56919H117.521V0.893555H120.625V1.56919H119.492V4.80217H118.654Z" fill="#D72D8A"/>
</svg>
