<svg width="159" height="28" viewBox="0 0 159 28" fill="none" xmlns="http://www.w3.org/2000/svg">
<path d="M13.7619 27.118C11.5915 27.118 9.66304 26.7557 7.96268 26.0241C6.26232 25.2995 4.8246 24.3031 3.65647 23.0489C2.48833 21.7947 1.57594 20.3454 0.946947 18.708C0.311039 17.0706 0 15.3008 0 13.4125C0 10.8972 0.580608 8.66053 1.73492 6.69564C2.88923 4.73074 4.49973 3.16996 6.55952 2.02726C8.61931 0.877582 10.9694 0.306228 13.6029 0.306228C15.4069 0.306228 17.0244 0.591909 18.4552 1.14933C19.879 1.71371 21.1025 2.47319 22.1116 3.41383C23.1208 4.36144 23.9019 5.42054 24.441 6.58415C24.9801 7.74776 25.2566 8.91834 25.2566 10.082C25.2566 11.9423 24.8211 13.2523 23.9571 14.0117C23.0931 14.7782 22.0218 15.1614 20.7569 15.1614H5.09417C5.05961 16.7292 5.48125 18.0809 6.36599 19.2306C7.25073 20.3802 8.37048 21.2582 9.72524 21.8783C11.08 22.4984 12.4417 22.805 13.8172 22.805C14.7918 22.805 15.6489 22.7493 16.3885 22.6378C17.128 22.5263 17.7709 22.387 18.31 22.1988C18.8491 22.0177 19.3122 21.8365 19.6924 21.6553C20.0726 21.4742 20.4251 21.293 20.75 21.1119C21.0748 20.9307 21.3789 20.8053 21.6693 20.7286C21.9596 20.659 22.2637 20.6868 22.5886 20.8122C22.9134 20.9377 23.1623 21.1885 23.3489 21.5508C23.5632 21.8435 23.7083 22.1152 23.7843 22.373C23.8535 22.6308 23.8949 22.9026 23.8949 23.1952C23.8949 23.7387 23.4595 24.317 22.5955 24.9162C21.7315 25.5155 20.5288 26.038 18.9943 26.47C17.4598 26.909 15.718 27.125 13.7619 27.125V27.118ZM5.09417 11.8727H18.6971C19.3468 11.8727 19.8514 11.7821 20.2177 11.6009C20.5772 11.4197 20.7569 10.925 20.7569 10.1238C20.7569 9.14131 20.4527 8.22853 19.8376 7.39241C19.2224 6.55628 18.386 5.8804 17.3147 5.37176C16.2502 4.86312 15.013 4.60532 13.6029 4.60532C12.0477 4.60532 10.61 4.92583 9.2967 5.55989C7.9765 6.20092 6.93969 7.06492 6.17937 8.15189C5.41904 9.23885 5.05961 10.4861 5.09417 11.8657V11.8727Z" fill="#D72D8A"/>
<path d="M39.2878 26.9508C38.6727 26.9508 38.1681 26.8602 37.7672 26.679C37.3663 26.4979 37.0621 26.1704 36.8479 25.6966L26.8254 3.67856C26.4245 2.80759 26.3347 2.13869 26.5558 1.68579C26.7701 1.23289 27.2747 0.800892 28.0765 0.403731C28.7953 0.0414095 29.4105 -0.0770434 29.922 0.0483757C30.4266 0.173795 30.862 0.675468 31.2215 1.5534L39.2947 20.8888L47.209 2.04115C47.5685 1.20502 47.997 0.605791 48.4808 0.236502C48.9716 -0.12582 49.7181 -0.0561389 50.7273 0.452505C51.7019 0.92631 52.1926 1.46282 52.1926 2.06205C52.1926 2.66127 52.0267 3.30928 51.7019 3.99908L41.7278 25.6339C41.5481 26.0728 41.2578 26.4003 40.8638 26.6163C40.4629 26.8323 39.9445 26.9438 39.2947 26.9438L39.2878 26.9508Z" fill="#D72D8A"/>
<path d="M76.4607 26.7893C75.6659 26.7893 75.0853 26.6221 74.7258 26.2946C74.3664 25.9671 74.1659 25.4584 74.1314 24.7617L74.3456 22.0303C73.9862 22.6156 73.4263 23.2775 72.666 24.0231C71.9057 24.7686 70.9034 25.4236 69.6593 25.988C68.4151 26.5524 66.9221 26.8381 65.1872 26.8381C63.4523 26.8381 61.8349 26.4897 60.3349 25.7999C58.835 25.1101 57.5148 24.1415 56.3812 22.9013C55.2408 21.661 54.3491 20.2466 53.6994 18.637C53.0496 17.0345 52.7248 15.3204 52.7248 13.5018C52.7248 11.6833 53.0496 10.0319 53.6994 8.45024C54.3491 6.86856 55.2546 5.47502 56.4089 4.2696C57.5632 3.06419 58.8903 2.12354 60.3903 1.42676C61.8902 0.736959 63.4868 0.388575 65.1872 0.388575C66.777 0.388575 68.1317 0.597607 69.2515 1.01567C70.3712 1.43373 71.3389 1.98418 72.1476 2.65309C72.9632 3.32895 73.6752 4.08147 74.2904 4.9176L74.1245 2.62522C74.1245 1.82393 74.3111 1.25257 74.6912 0.904185C75.0714 0.555799 75.6728 0.388575 76.5091 0.388575C77.1934 0.388575 77.6911 0.500059 78.0021 0.716059C78.3063 0.932058 78.5205 1.24561 78.6242 1.64277C78.7348 2.0469 78.7901 2.53463 78.7901 3.11992V24.2043C78.7901 24.7129 78.7348 25.1728 78.6242 25.5699C78.5136 25.9741 78.2993 26.2737 77.9745 26.4688C77.6496 26.6708 77.145 26.7684 76.4538 26.7684L76.4607 26.7893ZM65.9475 22.2533C67.4267 22.2533 68.7676 21.8701 69.9565 21.1036C71.1454 20.3372 72.1062 19.3129 72.8319 18.0169C73.5508 16.7279 73.9171 15.2368 73.9171 13.5645C73.9171 11.8923 73.5439 10.3524 72.8043 9.05643C72.0647 7.7674 71.0901 6.75011 69.8805 6.02546C68.6709 5.30082 67.323 4.93153 65.8438 4.93153C64.178 4.93153 62.7265 5.31476 61.4823 6.08121C60.2382 6.84766 59.2498 7.88585 58.5309 9.19578C57.8051 10.5057 57.4457 11.9968 57.4457 13.676C57.4457 15.3553 57.8051 16.7836 58.5309 18.0727C59.2498 19.3687 60.2589 20.386 61.5376 21.1315C62.8164 21.877 64.2955 22.2533 65.9544 22.2533H65.9475Z" fill="#D72D8A"/>
<path d="M106.052 26.7893C105.257 26.7893 104.676 26.6221 104.317 26.2946C103.957 25.9671 103.757 25.4584 103.722 24.7617L103.937 22.0303C103.577 22.6156 103.017 23.2775 102.257 24.0231C101.497 24.7686 100.495 25.4236 99.2504 25.988C98.0062 26.5524 96.5132 26.8381 94.7783 26.8381C93.0433 26.8381 91.4259 26.4897 89.926 25.7999C88.4261 25.1101 87.1059 24.1415 85.9723 22.9013C84.8318 21.661 83.9402 20.2466 83.2904 18.637C82.6407 17.0345 82.3158 15.3204 82.3158 13.5018C82.3158 11.6833 82.6407 10.0319 83.2904 8.45024C83.9402 6.86856 84.8456 5.47502 86 4.2696C87.1543 3.06419 88.4814 2.12354 89.9813 1.42676C91.4812 0.736959 93.0779 0.388575 94.7783 0.388575C96.368 0.388575 97.7228 0.597607 98.8425 1.01567C99.9623 1.43373 100.93 1.98418 101.739 2.65309C102.554 3.32895 103.266 4.08147 103.881 4.9176L103.716 2.62522C103.716 1.82393 103.902 1.25257 104.282 0.904185C104.662 0.555799 105.264 0.388575 106.1 0.388575C106.784 0.388575 107.282 0.500059 107.593 0.716059C107.897 0.932058 108.112 1.24561 108.215 1.64277C108.326 2.0469 108.381 2.53463 108.381 3.11992V24.2043C108.381 24.7129 108.326 25.1728 108.215 25.5699C108.105 25.9741 107.89 26.2737 107.566 26.4688C107.241 26.6708 106.736 26.7684 106.045 26.7684L106.052 26.7893ZM95.5386 22.2533C97.0177 22.2533 98.3587 21.8701 99.5476 21.1036C100.736 20.3372 101.697 19.3129 102.423 18.0169C103.142 16.7279 103.508 15.2368 103.508 13.5645C103.508 11.8923 103.135 10.3524 102.395 9.05643C101.656 7.7674 100.681 6.75011 99.4715 6.02546C98.2619 5.30082 96.9141 4.93153 95.4349 4.93153C93.7691 4.93153 92.3176 5.31476 91.0734 6.08121C89.8292 6.84766 88.8408 7.88585 88.122 9.19578C87.3962 10.5057 87.0368 11.9968 87.0368 13.676C87.0368 15.3553 87.3962 16.7836 88.122 18.0727C88.8408 19.3687 89.85 20.386 91.1287 21.1315C92.4074 21.877 93.8866 22.2533 95.5455 22.2533H95.5386Z" fill="#D72D8A"/>
<path d="M116.049 4.60873V0.857657H117.013L118.107 3.11366L119.189 0.857657H120.148V4.60873H119.345V2.2134L118.423 4.08358H117.78L116.853 2.2134V4.60873H116.049Z" fill="#D72D8A"/>
<path d="M113.871 4.60873V1.50606H112.784V0.857657H115.763V1.50606H114.675V4.60873H113.871Z" fill="#D72D8A"/>
<path d="M112.611 15.0993V6.68121H115.762C116.443 6.68121 117.009 6.79746 117.458 7.02996C117.907 7.26246 118.239 7.57513 118.456 7.96798C118.672 8.36082 118.78 8.80978 118.78 9.31487C118.78 9.77987 118.676 10.2088 118.468 10.6016C118.259 10.9945 117.931 11.3152 117.482 11.5637C117.033 11.8042 116.459 11.9245 115.762 11.9245H114.235V15.0993H112.611ZM114.235 10.6137H115.666C116.187 10.6137 116.56 10.4974 116.784 10.2649C117.017 10.0244 117.133 9.70771 117.133 9.31487C117.133 8.89797 117.017 8.57728 116.784 8.3528C116.56 8.1203 116.187 8.00405 115.666 8.00405H114.235V10.6137Z" fill="white"/>
<path d="M118.552 15.0993L121.631 6.68121H123.471L126.537 15.0993H124.818L122.545 8.53319L120.26 15.0993H118.552ZM119.911 13.1872L120.344 11.9245H124.625L125.046 13.1872H119.911Z" fill="white"/>
<path d="M128.711 15.0993V7.99203H126.246V6.68121H132.776V7.99203H130.323V15.0993H128.711Z" fill="white"/>
<path d="M133.926 15.0993V6.68121H135.55V15.0993H133.926Z" fill="white"/>
<path d="M137.203 15.0993V6.68121H142.735V7.99203H138.827V10.1928H142.374V11.4555H138.827V13.7885H142.735V15.0993H137.203Z" fill="white"/>
<path d="M144.214 15.0993V6.68121H145.838L149.71 12.4897V6.68121H151.333V15.0993H149.71L145.838 9.30284V15.0993H144.214Z" fill="white"/>
<path d="M154.935 15.0993V7.99203H152.47V6.68121H159V7.99203H156.547V15.0993H154.935Z" fill="white"/>
<path d="M112.611 26.123V17.7049H115.762C116.443 17.7049 117.009 17.8211 117.458 18.0536C117.907 18.2861 118.239 18.5988 118.456 18.9917C118.672 19.3845 118.78 19.8335 118.78 20.3386C118.78 20.8036 118.676 21.2325 118.468 21.6253C118.259 22.0182 117.931 22.3388 117.482 22.5874C117.033 22.8279 116.459 22.9482 115.762 22.9482H114.235V26.123H112.611ZM114.235 21.6373H115.666C116.187 21.6373 116.56 21.5211 116.784 21.2886C117.017 21.0481 117.133 20.7314 117.133 20.3386C117.133 19.9217 117.017 19.601 116.784 19.3765C116.56 19.144 116.187 19.0277 115.666 19.0277H114.235V21.6373Z" fill="white"/>
<path d="M123.882 26.2673C123.065 26.2673 122.343 26.0829 121.718 25.7141C121.092 25.3453 120.603 24.8362 120.251 24.1868C119.898 23.5294 119.722 22.7718 119.722 21.9139C119.722 21.0561 119.898 20.3025 120.251 19.6531C120.603 18.9957 121.092 18.4826 121.718 18.1138C122.343 17.745 123.065 17.5606 123.882 17.5606C124.708 17.5606 125.434 17.745 126.059 18.1138C126.684 18.4826 127.17 18.9957 127.514 19.6531C127.867 20.3025 128.043 21.0561 128.043 21.9139C128.043 22.7718 127.867 23.5294 127.514 24.1868C127.17 24.8362 126.684 25.3453 126.059 25.7141C125.434 26.0829 124.708 26.2673 123.882 26.2673ZM123.882 24.8122C124.396 24.8122 124.836 24.6959 125.205 24.4634C125.582 24.2229 125.875 23.8862 126.083 23.4532C126.292 23.0203 126.396 22.5072 126.396 21.9139C126.396 21.3126 126.292 20.7995 126.083 20.3746C125.875 19.9417 125.582 19.609 125.205 19.3765C124.836 19.144 124.396 19.0277 123.882 19.0277C123.377 19.0277 122.936 19.144 122.56 19.3765C122.183 19.609 121.89 19.9417 121.682 20.3746C121.473 20.7995 121.369 21.3126 121.369 21.9139C121.369 22.5072 121.473 23.0203 121.682 23.4532C121.89 23.8862 122.183 24.2229 122.56 24.4634C122.936 24.6959 123.377 24.8122 123.882 24.8122Z" fill="white"/>
<path d="M129.429 26.123V17.7049H132.567C133.249 17.7049 133.81 17.8211 134.251 18.0536C134.692 18.2861 135.021 18.5988 135.237 18.9917C135.453 19.3765 135.562 19.8054 135.562 20.2784C135.562 20.7274 135.457 21.1483 135.249 21.5411C135.041 21.926 134.712 22.2386 134.263 22.4791C133.822 22.7116 133.253 22.8279 132.555 22.8279H131.052V26.123H129.429ZM133.794 26.123L132.062 22.419H133.818L135.646 26.123H133.794ZM131.052 21.6494H132.471C132.96 21.6494 133.321 21.5291 133.553 21.2886C133.786 21.0481 133.902 20.7314 133.902 20.3386C133.902 19.9457 133.786 19.637 133.553 19.4126C133.329 19.1801 132.968 19.0638 132.471 19.0638H131.052V21.6494Z" fill="white"/>
<path d="M138.975 26.123V19.0157H136.51V17.7049H143.04V19.0157H140.587V26.123H138.975Z" fill="white"/>
<path d="M142.733 26.123L145.812 17.7049H147.651L150.718 26.123H148.998L146.726 19.5569L144.441 26.123H142.733ZM144.092 24.2109L144.525 22.9482H148.806L149.227 24.2109H144.092Z" fill="white"/>
<path d="M151.824 26.123V17.7049H153.448V24.8603H157.14V26.123H151.824Z" fill="white"/>
</svg>
