<svg width="122" height="31" viewBox="0 0 122 31" fill="none" xmlns="http://www.w3.org/2000/svg">
<path d="M15.4912 30.5252C13.0481 30.5252 10.8773 30.1174 8.96327 29.2938C7.04924 28.4781 5.43086 27.3565 4.11594 25.9447C2.80102 24.533 1.77398 22.9015 1.06594 21.0584C0.350124 19.2152 0 17.223 0 15.0975C0 12.266 0.653567 9.74835 1.95293 7.53654C3.25229 5.32473 5.06517 3.56783 7.38379 2.28153C9.70242 0.987388 12.3478 0.344238 15.3122 0.344238C17.343 0.344238 19.1636 0.665818 20.7742 1.29328C22.377 1.92859 23.7542 2.7835 24.8902 3.84234C26.0261 4.90903 26.9054 6.10122 27.5122 7.41104C28.1191 8.72087 28.4304 10.0386 28.4304 11.3484C28.4304 13.4425 27.9402 14.9171 26.9676 15.772C25.995 16.6348 24.789 17.0661 23.3652 17.0661H5.73431C5.69541 18.8309 6.17002 20.3525 7.16594 21.6466C8.16186 22.9408 9.42232 23.929 10.9473 24.6271C12.4723 25.3251 14.0051 25.6702 15.5534 25.6702C16.6505 25.6702 17.6153 25.6075 18.4478 25.482C19.2804 25.3565 20.0039 25.1996 20.6108 24.9879C21.2177 24.7839 21.739 24.58 22.167 24.3761C22.5949 24.1722 22.9917 23.9682 23.3574 23.7643C23.7231 23.5604 24.0654 23.4192 24.3922 23.3329C24.719 23.2545 25.0613 23.2859 25.427 23.427C25.7927 23.5682 26.0728 23.8506 26.2829 24.2584C26.5241 24.5878 26.6875 24.8937 26.7731 25.1839C26.8509 25.4741 26.8976 25.78 26.8976 26.1094C26.8976 26.7212 26.4074 27.3722 25.4348 28.0467C24.4623 28.7213 23.1084 29.3095 21.3811 29.7958C19.6538 30.2899 17.6931 30.5331 15.4912 30.5331V30.5252ZM5.73431 13.3641H21.0466C21.7779 13.3641 22.3459 13.2621 22.7583 13.0582C23.1629 12.8543 23.3652 12.2974 23.3652 11.3954C23.3652 10.2895 23.0228 9.26206 22.3304 8.32087C21.6379 7.37967 20.6964 6.61887 19.4904 6.04631C18.2922 5.47375 16.8995 5.18355 15.3122 5.18355C13.5616 5.18355 11.9432 5.54434 10.4649 6.25808C8.97883 6.97966 7.81174 7.95223 6.95587 9.17578C6.1 10.3993 5.69541 11.8033 5.73431 13.3563V13.3641Z" fill="#D72D8A"/>
<path d="M44.2251 30.3374C43.5327 30.3374 42.9647 30.2354 42.5134 30.0315C42.0621 29.8276 41.7198 29.459 41.4786 28.9256L30.1967 4.14081C29.7454 3.1604 29.6443 2.40744 29.8932 1.89763C30.1344 1.38781 30.7024 0.901532 31.605 0.454464C32.4142 0.046613 33.1066 -0.0867247 33.6824 0.0544546C34.2504 0.195634 34.7406 0.760348 35.1451 1.7486L44.2329 23.5137L53.1417 2.29764C53.5463 1.35644 54.0287 0.681915 54.5733 0.266221C55.1258 -0.14163 55.9661 -0.0631934 57.102 0.509367C58.1991 1.04271 58.7515 1.64664 58.7515 2.32117C58.7515 2.99569 58.5648 3.72512 58.1991 4.50161L46.9717 28.855C46.7694 29.3491 46.4426 29.7178 45.9991 29.9609C45.5478 30.2041 44.9643 30.3296 44.2329 30.3296L44.2251 30.3374Z" fill="#D72D8A"/>
<path d="M86.0691 30.1567C85.1743 30.1567 84.5208 29.9685 84.1162 29.5998C83.7116 29.2312 83.4859 28.6586 83.447 27.8743L83.6882 24.7997C83.2836 25.4586 82.6534 26.2037 81.7975 27.0429C80.9417 27.8822 79.8135 28.6194 78.413 29.2547C77.0125 29.89 75.3318 30.2116 73.3789 30.2116C71.426 30.2116 69.6053 29.8194 67.9169 29.043C66.2285 28.2665 64.7424 27.1763 63.4664 25.7801C62.1826 24.384 61.1789 22.7919 60.4475 20.9801C59.7162 19.1761 59.3505 17.2467 59.3505 15.1996C59.3505 13.1525 59.7162 11.2936 60.4475 9.51317C61.1789 7.73274 62.1982 6.16408 63.4975 4.80719C64.7969 3.45031 66.2908 2.39145 67.9792 1.60712C69.6676 0.830639 71.4649 0.438476 73.3789 0.438476C75.1685 0.438476 76.6935 0.673776 77.9539 1.14437C79.2144 1.61497 80.3037 2.23459 81.214 2.98755C82.1321 3.74834 82.9335 4.59542 83.626 5.53662L83.4393 2.95618C83.4393 2.0542 83.6493 1.41104 84.0773 1.01888C84.5052 0.626713 85.1821 0.438476 86.1236 0.438476C86.8938 0.438476 87.454 0.563969 87.8042 0.807111C88.1465 1.05025 88.3877 1.4032 88.5044 1.85027C88.6289 2.30518 88.6912 2.85421 88.6912 3.51304V27.2469C88.6912 27.8194 88.6289 28.3371 88.5044 28.7841C88.3799 29.239 88.1387 29.5763 87.773 29.7959C87.4074 30.0234 86.8394 30.1332 86.0613 30.1332L86.0691 30.1567ZM74.2348 25.0507C75.8998 25.0507 77.4093 24.6193 78.7476 23.7566C80.0858 22.8938 81.1673 21.7409 81.9843 20.282C82.7935 18.831 83.2058 17.1525 83.2058 15.2701C83.2058 13.3878 82.7857 11.6544 81.9532 10.1955C81.1206 8.74452 80.0236 7.5994 78.662 6.7837C77.3003 5.96799 75.7831 5.55231 74.1181 5.55231C72.243 5.55231 70.609 5.98368 69.2085 6.84644C67.808 7.70921 66.6954 8.87786 65.8862 10.3524C65.0692 11.8269 64.6646 13.5054 64.6646 15.3956C64.6646 17.2859 65.0692 18.8937 65.8862 20.3448C66.6954 21.8036 67.8313 22.9487 69.2707 23.788C70.7102 24.6272 72.3752 25.0507 74.2426 25.0507H74.2348Z" fill="#D72D8A"/>
<path d="M119.378 30.1567C118.483 30.1567 117.83 29.9685 117.425 29.5998C117.02 29.2312 116.795 28.6586 116.756 27.8743L116.997 24.7997C116.592 25.4586 115.962 26.2037 115.106 27.0429C114.25 27.8822 113.122 28.6194 111.722 29.2547C110.321 29.89 108.641 30.2116 106.688 30.2116C104.735 30.2116 102.914 29.8194 101.226 29.043C99.5373 28.2665 98.0512 27.1763 96.7752 25.7801C95.4914 24.384 94.4877 22.7919 93.7563 20.9801C93.0249 19.1761 92.6592 17.2467 92.6592 15.1996C92.6592 13.1525 93.0249 11.2936 93.7563 9.51317C94.4877 7.73274 95.5069 6.16408 96.8063 4.80719C98.1057 3.45031 99.5995 2.39145 101.288 1.60712C102.976 0.830639 104.774 0.438476 106.688 0.438476C108.477 0.438476 110.002 0.673776 111.263 1.14437C112.523 1.61497 113.612 2.23459 114.523 2.98755C115.441 3.74834 116.242 4.59542 116.935 5.53662L116.748 2.95618C116.748 2.0542 116.958 1.41104 117.386 1.01888C117.814 0.626713 118.491 0.438476 119.432 0.438476C120.203 0.438476 120.763 0.563969 121.113 0.807111C121.455 1.05025 121.696 1.4032 121.813 1.85027C121.938 2.30518 122 2.85421 122 3.51304V27.2469C122 27.8194 121.938 28.3371 121.813 28.7841C121.689 29.239 121.448 29.5763 121.082 29.7959C120.716 30.0234 120.148 30.1332 119.37 30.1332L119.378 30.1567ZM107.544 25.0507C109.209 25.0507 110.718 24.6193 112.056 23.7566C113.395 22.8938 114.476 21.7409 115.293 20.282C116.102 18.831 116.515 17.1525 116.515 15.2701C116.515 13.3878 116.094 11.6544 115.262 10.1955C114.429 8.74452 113.332 7.5994 111.971 6.7837C110.609 5.96799 109.092 5.55231 107.427 5.55231C105.552 5.55231 103.918 5.98368 102.517 6.84644C101.117 7.70921 100.004 8.87786 99.1949 10.3524C98.378 11.8269 97.9734 13.5054 97.9734 15.3956C97.9734 17.2859 98.378 18.8937 99.1949 20.3448C100.004 21.8036 101.14 22.9487 102.58 23.788C104.019 24.6272 105.684 25.0507 107.551 25.0507H107.544Z" fill="#D72D8A"/>
</svg>
