<svg width="194" height="31" viewBox="0 0 194 31" fill="none" xmlns="http://www.w3.org/2000/svg">
<path d="M173.016 17.2177V7.94629H174.87V15.774H178.923V17.2177H173.016Z" fill="white"/>
<path d="M163.362 17.2177L166.739 7.94629H168.845L172.223 17.2177H170.262L167.786 10.0522L165.296 17.2177H163.362ZM164.845 15.1382L165.335 13.6946H170.103L170.58 15.1382H164.845Z" fill="white"/>
<path d="M159.292 17.3766C158.603 17.3766 157.981 17.2398 157.424 16.966C156.868 16.6923 156.422 16.2817 156.086 15.7343C155.76 15.178 155.596 14.476 155.596 13.6283V7.94629H157.451V13.6416C157.451 14.0919 157.526 14.4672 157.676 14.7674C157.826 15.0676 158.038 15.2972 158.312 15.4561C158.594 15.6062 158.934 15.6813 159.331 15.6813C159.729 15.6813 160.064 15.6062 160.338 15.4561C160.621 15.2972 160.837 15.0676 160.987 14.7674C161.137 14.4672 161.212 14.0919 161.212 13.6416V7.94629H163.067V13.6283C163.067 14.476 162.894 15.178 162.55 15.7343C162.214 16.2817 161.76 16.6923 161.186 16.966C160.612 17.2398 159.98 17.3766 159.292 17.3766Z" fill="white"/>
<path d="M150.278 17.2177V9.44296H147.576V7.94629H154.821V9.44296H152.119V17.2177H150.278Z" fill="white"/>
<path d="M140.122 17.2177V7.94629H143.632C144.382 7.94629 145 8.07432 145.486 8.33039C145.98 8.58646 146.347 8.93082 146.585 9.36349C146.833 9.78732 146.956 10.2641 146.956 10.7939C146.956 11.2884 146.837 11.752 146.599 12.1846C146.369 12.6173 146.007 12.9661 145.512 13.231C145.018 13.487 144.387 13.6151 143.618 13.6151H141.976V17.2177H140.122ZM144.916 17.2177L143.022 13.1515H145.036L147.036 17.2177H144.916ZM141.976 12.2641H143.526C144.047 12.2641 144.431 12.1361 144.678 11.88C144.934 11.6239 145.062 11.284 145.062 10.8602C145.062 10.4451 144.939 10.114 144.691 9.86679C144.444 9.61955 144.051 9.49594 143.513 9.49594H141.976V12.2641Z" fill="white"/>
<path d="M136.859 17.2177V7.94629H138.713V17.2177H136.859Z" fill="white"/>
<path d="M130.515 17.2177L127.15 7.94629H129.137L131.667 15.3369L134.21 7.94629H136.17L132.806 17.2177H130.515Z" fill="white"/>
<path d="M15.4552 30.4546C13.0178 30.4546 10.852 30.0477 8.94244 29.2261C7.03286 28.4123 5.41824 27.2933 4.10638 25.8848C2.79451 24.4763 1.76985 22.8486 1.06346 21.0097C0.34931 19.1709 0 17.1833 0 15.0627C0 12.2379 0.652049 9.72601 1.94839 7.51934C3.24474 5.31267 5.0534 3.55985 7.36664 2.27654C9.67987 0.985406 12.3191 0.34375 15.2767 0.34375C17.3027 0.34375 19.1191 0.664583 20.726 1.29059C22.325 1.92442 23.699 2.77734 24.8323 3.83373C25.9657 4.89794 26.8428 6.08735 27.4483 7.39414C28.0538 8.70092 28.3643 10.0155 28.3643 11.3223C28.3643 13.4116 27.8752 14.8827 26.9049 15.7357C25.9346 16.5964 24.7314 17.0268 23.3109 17.0268H5.72098C5.68217 18.7874 6.15568 20.3055 7.14929 21.5966C8.14289 22.8878 9.40042 23.8737 10.9219 24.5702C12.4433 25.2666 13.9726 25.6109 15.5173 25.6109C16.6118 25.6109 17.5744 25.5483 18.405 25.4231C19.2356 25.2979 19.9575 25.1414 20.5629 24.9301C21.1684 24.7267 21.6885 24.5232 22.1155 24.3198C22.5424 24.1163 22.9383 23.9129 23.3031 23.7094C23.668 23.506 24.0095 23.3651 24.3355 23.279C24.6616 23.2008 25.0031 23.2321 25.368 23.3729C25.7328 23.5138 26.0123 23.7955 26.2218 24.2024C26.4625 24.531 26.6255 24.8362 26.7109 25.1257C26.7885 25.4153 26.8351 25.7204 26.8351 26.0491C26.8351 26.6594 26.346 27.3089 25.3757 27.9819C24.4054 28.6548 23.0547 29.2417 21.3314 29.7269C19.6082 30.2199 17.652 30.4624 15.4552 30.4624V30.4546ZM5.72098 13.3334H20.9977C21.7273 13.3334 22.294 13.2316 22.7054 13.0282C23.1091 12.8247 23.3109 12.2692 23.3109 11.3693C23.3109 10.2659 22.9693 9.24085 22.2785 8.30185C21.5876 7.36284 20.6483 6.6038 19.4452 6.03257C18.2497 5.46134 16.8602 5.17182 15.2767 5.17182C13.5301 5.17182 11.9155 5.53177 10.4406 6.24385C8.95796 6.96376 7.79359 7.93407 6.93971 9.15478C6.08583 10.3755 5.68217 11.7762 5.72098 13.3255V13.3334Z" fill="#D72D8A"/>
<path d="M44.122 30.2669C43.4311 30.2669 42.8645 30.1652 42.4142 29.9617C41.964 29.7583 41.6224 29.3905 41.3818 28.8584L30.1261 4.13119C29.6759 3.15305 29.575 2.40185 29.8234 1.89322C30.064 1.38459 30.6307 0.899437 31.5312 0.453408C32.3385 0.0465047 33.0293 -0.0865232 33.6038 0.054328C34.1704 0.195179 34.6595 0.758581 35.0631 1.74454L44.1297 23.4591L53.0179 2.2923C53.4215 1.35329 53.9028 0.680331 54.4462 0.265602C54.9973 -0.141301 55.8357 -0.0630465 56.969 0.508183C58.0635 1.04029 58.6146 1.64282 58.6146 2.31577C58.6146 2.98873 58.4283 3.71646 58.0635 4.49115L46.8622 28.788C46.6603 29.2809 46.3343 29.6487 45.8919 29.8913C45.4416 30.1339 44.8594 30.2591 44.1297 30.2591L44.122 30.2669Z" fill="#D72D8A"/>
<path d="M85.8685 30.0857C84.9758 30.0857 84.3237 29.8979 83.9201 29.5301C83.5164 29.1623 83.2913 28.5911 83.2525 27.8086L83.4931 24.7412C83.0895 25.3985 82.4607 26.1419 81.6068 26.9791C80.7529 27.8164 79.6274 28.552 78.2301 29.1858C76.8329 29.8197 75.1562 30.1405 73.2078 30.1405C71.2594 30.1405 69.4429 29.7492 67.7585 28.9745C66.074 28.1999 64.5914 27.1122 63.3183 25.7193C62.0375 24.3265 61.0361 22.738 60.3064 20.9304C59.5768 19.1306 59.2119 17.2056 59.2119 15.1633C59.2119 13.121 59.5768 11.2664 60.3064 9.49013C61.0361 7.71384 62.053 6.14883 63.3494 4.79509C64.6457 3.44135 66.1361 2.38496 67.8206 1.60246C69.5051 0.827775 71.2982 0.436523 73.2078 0.436523C74.9931 0.436523 76.5146 0.671277 77.7721 1.14078C79.0297 1.61028 80.1164 2.22846 81.0246 2.97967C81.9406 3.7387 82.7402 4.58381 83.431 5.52282L83.2447 2.94837C83.2447 2.04849 83.4543 1.40683 83.8812 1.01558C84.3082 0.624323 84.9835 0.436523 85.9228 0.436523C86.6913 0.436523 87.2502 0.561725 87.5995 0.804303C87.9411 1.04688 88.1817 1.39901 88.2981 1.84504C88.4223 2.29889 88.4844 2.84664 88.4844 3.50395V27.1826C88.4844 27.7538 88.4223 28.2703 88.2981 28.7163C88.1739 29.1702 87.9333 29.5067 87.5684 29.7258C87.2036 29.9527 86.637 30.0622 85.8607 30.0622L85.8685 30.0857ZM74.0616 24.9916C75.7228 24.9916 77.2288 24.5612 78.5639 23.7004C79.8991 22.8397 80.9781 21.6894 81.7931 20.2339C82.6004 18.7863 83.0118 17.1117 83.0118 15.2337C83.0118 13.3557 82.5927 11.6264 81.7621 10.1709C80.9315 8.72327 79.837 7.58081 78.4785 6.767C77.1201 5.95319 75.6064 5.53847 73.9452 5.53847C72.0744 5.53847 70.4443 5.96884 69.0471 6.8296C67.6498 7.69036 66.5398 8.85629 65.7325 10.3274C64.9174 11.7985 64.5137 13.4731 64.5137 15.3589C64.5137 17.2448 64.9174 18.8489 65.7325 20.2965C66.5398 21.752 67.6731 22.8945 69.1091 23.7318C70.5452 24.569 72.2064 24.9916 74.0694 24.9916H74.0616Z" fill="#D72D8A"/>
<path d="M119.101 30.0857C118.208 30.0857 117.556 29.8979 117.152 29.5301C116.749 29.1623 116.523 28.5911 116.485 27.8086L116.725 24.7412C116.322 25.3985 115.693 26.1419 114.839 26.9791C113.985 27.8164 112.86 28.552 111.462 29.1858C110.065 29.8197 108.388 30.1405 106.44 30.1405C104.492 30.1405 102.675 29.7492 100.991 28.9745C99.3062 28.1999 97.8235 27.1122 96.5505 25.7193C95.2696 24.3265 94.2683 22.738 93.5386 20.9304C92.8089 19.1306 92.4441 17.2056 92.4441 15.1633C92.4441 13.121 92.8089 11.2664 93.5386 9.49013C94.2683 7.71384 95.2852 6.14883 96.5815 4.79509C97.8779 3.44135 99.3683 2.38496 101.053 1.60246C102.737 0.827775 104.53 0.436523 106.44 0.436523C108.225 0.436523 109.747 0.671277 111.004 1.14078C112.262 1.61028 113.349 2.22846 114.257 2.97967C115.173 3.7387 115.972 4.58381 116.663 5.52282L116.477 2.94837C116.477 2.04849 116.686 1.40683 117.113 1.01558C117.54 0.624323 118.216 0.436523 119.155 0.436523C119.923 0.436523 120.482 0.561725 120.832 0.804303C121.173 1.04688 121.414 1.39901 121.53 1.84504C121.654 2.29889 121.717 2.84664 121.717 3.50395V27.1826C121.717 27.7538 121.654 28.2703 121.53 28.7163C121.406 29.1702 121.165 29.5067 120.801 29.7258C120.436 29.9527 119.869 30.0622 119.093 30.0622L119.101 30.0857ZM107.294 24.9916C108.955 24.9916 110.461 24.5612 111.796 23.7004C113.131 22.8397 114.21 21.6894 115.025 20.2339C115.833 18.7863 116.244 17.1117 116.244 15.2337C116.244 13.3557 115.825 11.6264 114.994 10.1709C114.164 8.72327 113.069 7.58081 111.711 6.767C110.352 5.95319 108.839 5.53847 107.177 5.53847C105.307 5.53847 103.676 5.96884 102.279 6.8296C100.882 7.69036 99.7719 8.85629 98.9646 10.3274C98.1495 11.7985 97.7459 13.4731 97.7459 15.3589C97.7459 17.2448 98.1495 18.8489 98.9646 20.2965C99.7719 21.752 100.905 22.8945 102.341 23.7318C103.777 24.569 105.439 24.9916 107.302 24.9916H107.294Z" fill="#D72D8A"/>
<path d="M189.423 29.3461V21.3436H186.647V19.8677H194V21.3436H191.238V29.3461H189.423Z" fill="white"/>
<path d="M177.893 29.3461V19.8677H179.721L184.081 26.4078V19.8677H185.909V29.3461H184.081L179.721 22.8195V29.3461H177.893Z" fill="white"/>
<path d="M168.198 29.3461L171.665 19.8677H173.737L177.189 29.3461H175.253L172.694 21.9529L170.121 29.3461H168.198ZM169.729 27.1931L170.216 25.7714H175.036L175.51 27.1931H169.729Z" fill="white"/>
<path d="M164.509 29.3461V21.3436H161.733V19.8677H169.085V21.3436H166.323V29.3461H164.509Z" fill="white"/>
<path d="M158.027 29.508C157.341 29.508 156.728 29.3906 156.186 29.1559C155.653 28.9212 155.229 28.5782 154.913 28.1268C154.606 27.6755 154.448 27.1293 154.439 26.4884H156.376C156.385 26.7683 156.457 27.021 156.592 27.2467C156.728 27.4724 156.913 27.6529 157.147 27.7883C157.391 27.9147 157.68 27.9779 158.014 27.9779C158.303 27.9779 158.551 27.9327 158.759 27.8425C158.975 27.7432 159.142 27.6078 159.26 27.4363C159.377 27.2647 159.436 27.0616 159.436 26.8269C159.436 26.5561 159.368 26.3304 159.233 26.1499C159.106 25.9694 158.926 25.8159 158.691 25.6895C158.465 25.5631 158.199 25.4503 157.892 25.351C157.594 25.2427 157.278 25.1298 156.944 25.0125C156.195 24.7688 155.622 24.4438 155.225 24.0376C154.836 23.6314 154.642 23.0942 154.642 22.4262C154.642 21.8575 154.778 21.3701 155.049 20.9639C155.328 20.5576 155.712 20.2462 156.199 20.0296C156.687 19.8129 157.242 19.7046 157.865 19.7046C158.506 19.7046 159.066 19.8174 159.544 20.0431C160.031 20.2598 160.415 20.5757 160.695 20.9909C160.984 21.4062 161.133 21.8936 161.142 22.4533H159.192C159.183 22.2457 159.12 22.0516 159.002 21.8711C158.894 21.6815 158.741 21.5326 158.542 21.4242C158.343 21.3069 158.109 21.2482 157.838 21.2482C157.603 21.2392 157.387 21.2753 157.188 21.3565C156.998 21.4378 156.845 21.5596 156.728 21.7221C156.619 21.8756 156.565 22.0697 156.565 22.3044C156.565 22.5301 156.619 22.7196 156.728 22.8731C156.845 23.0265 157.003 23.1619 157.201 23.2793C157.4 23.3876 157.635 23.4914 157.906 23.5907C158.176 23.681 158.47 23.7758 158.786 23.8751C159.255 24.0376 159.688 24.2317 160.086 24.4573C160.483 24.674 160.799 24.9583 161.033 25.3104C161.268 25.6624 161.386 26.1273 161.386 26.7051C161.386 27.2016 161.255 27.6619 160.993 28.0862C160.731 28.5105 160.352 28.8535 159.855 29.1153C159.368 29.3771 158.759 29.508 158.027 29.508Z" fill="white"/>
<path d="M151.616 29.3461V19.8677H153.444V29.3461H151.616Z" fill="white"/>
<path d="M147.249 29.508C146.563 29.508 145.949 29.3906 145.408 29.1559C144.875 28.9212 144.451 28.5782 144.135 28.1268C143.828 27.6755 143.67 27.1293 143.661 26.4884H145.597C145.606 26.7683 145.679 27.021 145.814 27.2467C145.949 27.4724 146.135 27.6529 146.369 27.7883C146.613 27.9147 146.902 27.9779 147.236 27.9779C147.525 27.9779 147.773 27.9327 147.981 27.8425C148.197 27.7432 148.364 27.6078 148.482 27.4363C148.599 27.2647 148.658 27.0616 148.658 26.8269C148.658 26.5561 148.59 26.3304 148.454 26.1499C148.328 25.9694 148.148 25.8159 147.913 25.6895C147.687 25.5631 147.421 25.4503 147.114 25.351C146.816 25.2427 146.5 25.1298 146.166 25.0125C145.417 24.7688 144.844 24.4438 144.446 24.0376C144.058 23.6314 143.864 23.0942 143.864 22.4262C143.864 21.8575 144 21.3701 144.27 20.9639C144.55 20.5576 144.934 20.2462 145.421 20.0296C145.909 19.8129 146.464 19.7046 147.087 19.7046C147.728 19.7046 148.287 19.8174 148.766 20.0431C149.253 20.2598 149.637 20.5757 149.917 20.9909C150.206 21.4062 150.355 21.8936 150.364 22.4533H148.414C148.405 22.2457 148.342 22.0516 148.224 21.8711C148.116 21.6815 147.963 21.5326 147.764 21.4242C147.565 21.3069 147.331 21.2482 147.06 21.2482C146.825 21.2392 146.608 21.2753 146.41 21.3565C146.22 21.4378 146.067 21.5596 145.949 21.7221C145.841 21.8756 145.787 22.0697 145.787 22.3044C145.787 22.5301 145.841 22.7196 145.949 22.8731C146.067 23.0265 146.225 23.1619 146.423 23.2793C146.622 23.3876 146.857 23.4914 147.128 23.5907C147.398 23.681 147.692 23.7758 148.008 23.8751C148.477 24.0376 148.91 24.2317 149.308 24.4573C149.705 24.674 150.021 24.9583 150.255 25.3104C150.49 25.6624 150.607 26.1273 150.607 26.7051C150.607 27.2016 150.477 27.6619 150.215 28.0862C149.953 28.5105 149.574 28.8535 149.077 29.1153C148.59 29.3771 147.981 29.508 147.249 29.508Z" fill="white"/>
<path d="M139.62 29.508C138.933 29.508 138.32 29.3906 137.778 29.1559C137.245 28.9212 136.821 28.5782 136.505 28.1268C136.198 27.6755 136.04 27.1293 136.031 26.4884H137.968C137.977 26.7683 138.049 27.021 138.184 27.2467C138.32 27.4724 138.505 27.6529 138.739 27.7883C138.983 27.9147 139.272 27.9779 139.606 27.9779C139.895 27.9779 140.143 27.9327 140.351 27.8425C140.567 27.7432 140.734 27.6078 140.852 27.4363C140.969 27.2647 141.028 27.0616 141.028 26.8269C141.028 26.5561 140.96 26.3304 140.825 26.1499C140.698 25.9694 140.518 25.8159 140.283 25.6895C140.057 25.5631 139.791 25.4503 139.484 25.351C139.186 25.2427 138.87 25.1298 138.536 25.0125C137.787 24.7688 137.214 24.4438 136.817 24.0376C136.428 23.6314 136.234 23.0942 136.234 22.4262C136.234 21.8575 136.37 21.3701 136.641 20.9639C136.92 20.5576 137.304 20.2462 137.792 20.0296C138.279 19.8129 138.834 19.7046 139.457 19.7046C140.098 19.7046 140.658 19.8174 141.136 20.0431C141.624 20.2598 142.007 20.5757 142.287 20.9909C142.576 21.4062 142.725 21.8936 142.734 22.4533H140.784C140.775 22.2457 140.712 22.0516 140.594 21.8711C140.486 21.6815 140.333 21.5326 140.134 21.4242C139.935 21.3069 139.701 21.2482 139.43 21.2482C139.195 21.2392 138.979 21.2753 138.78 21.3565C138.59 21.4378 138.437 21.5596 138.32 21.7221C138.211 21.8756 138.157 22.0697 138.157 22.3044C138.157 22.5301 138.211 22.7196 138.32 22.8731C138.437 23.0265 138.595 23.1619 138.794 23.2793C138.992 23.3876 139.227 23.4914 139.498 23.5907C139.768 23.681 140.062 23.7758 140.378 23.8751C140.847 24.0376 141.28 24.2317 141.678 24.4573C142.075 24.674 142.391 24.9583 142.626 25.3104C142.86 25.6624 142.978 26.1273 142.978 26.7051C142.978 27.2016 142.847 27.6619 142.585 28.0862C142.323 28.5105 141.944 28.8535 141.447 29.1153C140.96 29.3771 140.351 29.508 139.62 29.508Z" fill="white"/>
<path d="M126.661 29.3461L130.128 19.8677H132.199L135.652 29.3461H133.716L131.157 21.9529L128.584 29.3461H126.661ZM128.191 27.1931L128.679 25.7714H133.499L133.973 27.1931H128.191Z" fill="white"/>
<path d="M130.328 5.176V0.963379H131.412L132.639 3.49697L133.855 0.963379H134.932V5.176H134.029V2.48594L132.994 4.58623H132.272L131.231 2.48594V5.176H130.328Z" fill="#D72D8A"/>
<path d="M127.883 5.176V1.69156H126.661V0.963379H130.007V1.69156H128.785V5.176H127.883Z" fill="#D72D8A"/>
</svg>
