<svg width="194" height="31" viewBox="0 0 194 31" fill="none" xmlns="http://www.w3.org/2000/svg">
<path d="M15.4552 30.4547C13.0178 30.4547 10.852 30.0477 8.94246 29.2261C7.03287 28.4123 5.41825 27.2933 4.10638 25.8848C2.79451 24.4763 1.76986 22.8487 1.06347 21.0098C0.349311 19.1709 0 17.1833 0 15.0627C0 12.2379 0.65205 9.72602 1.9484 7.51935C3.24474 5.31268 5.05341 3.55986 7.36665 2.27655C9.67989 0.985407 12.3192 0.34375 15.2767 0.34375C17.3027 0.34375 19.1192 0.664583 20.726 1.29059C22.3251 1.92442 23.6991 2.77735 24.8324 3.83373C25.9657 4.89795 26.8429 6.08736 27.4484 7.39415C28.0539 8.70094 28.3643 10.0156 28.3643 11.3223C28.3643 13.4116 27.8753 14.8828 26.905 15.7357C25.9347 16.5964 24.7315 17.0268 23.3109 17.0268H5.72099C5.68218 18.7875 6.15569 20.3055 7.1493 21.5967C8.14291 22.8878 9.40044 23.8738 10.9219 24.5702C12.4434 25.2666 13.9726 25.6109 15.5173 25.6109C16.6118 25.6109 17.5744 25.5483 18.405 25.4231C19.2356 25.2979 19.9575 25.1414 20.563 24.9302C21.1685 24.7267 21.6886 24.5233 22.1155 24.3198C22.5424 24.1163 22.9383 23.9129 23.3032 23.7094C23.668 23.506 24.0096 23.3651 24.3356 23.2791C24.6616 23.2008 25.0032 23.2321 25.368 23.373C25.7328 23.5138 26.0123 23.7955 26.2219 24.2024C26.4625 24.5311 26.6255 24.8363 26.7109 25.1258C26.7885 25.4153 26.8351 25.7205 26.8351 26.0491C26.8351 26.6595 26.3461 27.309 25.3758 27.9819C24.4055 28.6549 23.0548 29.2418 21.3315 29.7269C19.6082 30.2199 17.652 30.4625 15.4552 30.4625V30.4547ZM5.72099 13.3334H20.9977C21.7274 13.3334 22.294 13.2317 22.7055 13.0282C23.1091 12.8248 23.3109 12.2692 23.3109 11.3693C23.3109 10.266 22.9694 9.24087 22.2785 8.30186C21.5876 7.36285 20.6484 6.60381 19.4452 6.03258C18.2498 5.46135 16.8603 5.17183 15.2767 5.17183C13.5301 5.17183 11.9155 5.53178 10.4406 6.24386C8.95798 6.96377 7.7936 7.93408 6.93972 9.15479C6.08584 10.3755 5.68218 11.7762 5.72099 13.3256V13.3334Z" fill="#D72D8A"/>
<path d="M44.122 30.267C43.4311 30.267 42.8644 30.1652 42.4142 29.9618C41.964 29.7583 41.6224 29.3906 41.3818 28.8585L30.1261 4.13119C29.6759 3.15306 29.575 2.40185 29.8234 1.89322C30.064 1.38459 30.6307 0.899439 31.5311 0.453409C32.3384 0.0465047 33.0293 -0.0865233 33.6037 0.0543281C34.1704 0.19518 34.6594 0.758582 35.0631 1.74454L44.1297 23.4591L53.0179 2.2923C53.4215 1.35329 53.9028 0.680332 54.4462 0.265603C54.9973 -0.141301 55.8357 -0.0630467 56.969 0.508184C58.0635 1.04029 58.6146 1.64282 58.6146 2.31578C58.6146 2.98873 58.4284 3.71647 58.0635 4.49115L46.8622 28.788C46.6603 29.281 46.3343 29.6488 45.8918 29.8914C45.4416 30.1339 44.8594 30.2591 44.1297 30.2591L44.122 30.267Z" fill="#D72D8A"/>
<path d="M85.8689 30.0858C84.9762 30.0858 84.3242 29.898 83.9205 29.5302C83.5169 29.1624 83.2918 28.5912 83.2529 27.8087L83.4936 24.7412C83.0899 25.3985 82.4612 26.1419 81.6073 26.9792C80.7534 27.8165 79.6278 28.552 78.2306 29.1859C76.8333 29.8197 75.1566 30.1405 73.2082 30.1405C71.2598 30.1405 69.4434 29.7493 67.7589 28.9746C66.0744 28.1999 64.5918 27.1122 63.3187 25.7194C62.0379 24.3265 61.0365 22.738 60.3068 20.9304C59.5772 19.1306 59.2123 17.2057 59.2123 15.1633C59.2123 13.121 59.5772 11.2664 60.3068 9.49015C61.0365 7.71385 62.0534 6.14884 63.3498 4.7951C64.6461 3.44136 66.1365 2.38497 67.821 1.60246C69.5055 0.827775 71.2986 0.436523 73.2082 0.436523C74.9936 0.436523 76.515 0.671276 77.7726 1.14078C79.0301 1.61029 80.1169 2.22847 81.0251 2.97967C81.9411 3.73871 82.7406 4.58382 83.4315 5.52282L83.2452 2.94838C83.2452 2.04849 83.4548 1.40683 83.8817 1.01558C84.3086 0.624323 84.984 0.436523 85.9233 0.436523C86.6917 0.436523 87.2507 0.561725 87.6 0.804303C87.9415 1.04688 88.1822 1.39901 88.2986 1.84504C88.4228 2.29889 88.4849 2.84665 88.4849 3.50395V27.1827C88.4849 27.7539 88.4228 28.2703 88.2986 28.7164C88.1744 29.1702 87.9338 29.5067 87.5689 29.7258C87.2041 29.9527 86.6374 30.0623 85.8612 30.0623L85.8689 30.0858ZM74.0621 24.9916C75.7233 24.9916 77.2292 24.5612 78.5644 23.7005C79.8995 22.8397 80.9785 21.6894 81.7936 20.234C82.6009 18.7863 83.0123 17.1118 83.0123 15.2338C83.0123 13.3557 82.5931 11.6264 81.7625 10.1709C80.9319 8.72329 79.8374 7.58082 78.479 6.76701C77.1205 5.9532 75.6068 5.53848 73.9457 5.53848C72.0749 5.53848 70.4447 5.96885 69.0475 6.82961C67.6502 7.69037 66.5402 8.85631 65.7329 10.3274C64.9178 11.7985 64.5142 13.4731 64.5142 15.359C64.5142 17.2448 64.9178 18.8489 65.7329 20.2966C66.5402 21.752 67.6735 22.8945 69.1096 23.7318C70.5456 24.5691 72.2068 24.9916 74.0699 24.9916H74.0621Z" fill="#D72D8A"/>
<path d="M119.101 30.0858C118.208 30.0858 117.556 29.898 117.153 29.5302C116.749 29.1624 116.524 28.5912 116.485 27.8087L116.726 24.7412C116.322 25.3985 115.693 26.1419 114.839 26.9792C113.986 27.8165 112.86 28.552 111.463 29.1859C110.065 29.8197 108.389 30.1405 106.44 30.1405C104.492 30.1405 102.675 29.7493 100.991 28.9746C99.3065 28.1999 97.8239 27.1122 96.5508 25.7194C95.27 24.3265 94.2686 22.738 93.539 20.9304C92.8093 19.1306 92.4445 17.2057 92.4445 15.1633C92.4445 13.121 92.8093 11.2664 93.539 9.49015C94.2686 7.71385 95.2855 6.14884 96.5819 4.7951C97.8782 3.44136 99.3687 2.38497 101.053 1.60246C102.738 0.827775 104.531 0.436523 106.44 0.436523C108.226 0.436523 109.747 0.671276 111.005 1.14078C112.262 1.61029 113.349 2.22847 114.257 2.97967C115.173 3.73871 115.973 4.58382 116.664 5.52282L116.477 2.94838C116.477 2.04849 116.687 1.40683 117.114 1.01558C117.541 0.624323 118.216 0.436523 119.155 0.436523C119.924 0.436523 120.483 0.561725 120.832 0.804303C121.174 1.04688 121.414 1.39901 121.531 1.84504C121.655 2.29889 121.717 2.84665 121.717 3.50395V27.1827C121.717 27.7539 121.655 28.2703 121.531 28.7164C121.407 29.1702 121.166 29.5067 120.801 29.7258C120.436 29.9527 119.87 30.0623 119.093 30.0623L119.101 30.0858ZM107.294 24.9916C108.955 24.9916 110.461 24.5612 111.796 23.7005C113.132 22.8397 114.211 21.6894 115.026 20.234C115.833 18.7863 116.244 17.1118 116.244 15.2338C116.244 13.3557 115.825 11.6264 114.995 10.1709C114.164 8.72329 113.07 7.58082 111.711 6.76701C110.353 5.9532 108.839 5.53848 107.178 5.53848C105.307 5.53848 103.677 5.96885 102.28 6.82961C100.882 7.69037 99.7723 8.85631 98.965 10.3274C98.1499 11.7985 97.7463 13.4731 97.7463 15.359C97.7463 17.2448 98.1499 18.8489 98.965 20.2966C99.7723 21.752 100.906 22.8945 102.342 23.7318C103.778 24.5691 105.439 24.9916 107.302 24.9916H107.294Z" fill="#D72D8A"/>
<path d="M189.423 29.3456V21.3431H186.647V19.8672H194V21.3431H191.238V29.3456H189.423Z" fill="white"/>
<path d="M177.893 29.3456V19.8672H179.721L184.081 26.4073V19.8672H185.909V29.3456H184.081L179.721 22.819V29.3456H177.893Z" fill="white"/>
<path d="M168.199 29.3456L171.665 19.8672H173.737L177.189 29.3456H175.253L172.694 21.9524L170.121 29.3456H168.199ZM169.729 27.1926L170.216 25.7709H175.037L175.51 27.1926H169.729Z" fill="white"/>
<path d="M164.509 29.3456V21.3431H161.733V19.8672H169.086V21.3431H166.324V29.3456H164.509Z" fill="white"/>
<path d="M158.028 29.508C157.342 29.508 156.728 29.3906 156.186 29.1559C155.654 28.9212 155.229 28.5782 154.913 28.1268C154.607 27.6755 154.449 27.1293 154.44 26.4884H156.376C156.385 26.7682 156.457 27.021 156.592 27.2467C156.728 27.4724 156.913 27.6529 157.148 27.7883C157.391 27.9147 157.68 27.9779 158.014 27.9779C158.303 27.9779 158.551 27.9327 158.759 27.8425C158.976 27.7432 159.143 27.6078 159.26 27.4362C159.377 27.2647 159.436 27.0616 159.436 26.8269C159.436 26.5561 159.368 26.3304 159.233 26.1499C159.106 25.9693 158.926 25.8159 158.691 25.6895C158.466 25.5631 158.199 25.4503 157.892 25.351C157.594 25.2427 157.279 25.1298 156.945 25.0125C156.195 24.7687 155.622 24.4438 155.225 24.0376C154.837 23.6313 154.643 23.0942 154.643 22.4262C154.643 21.8575 154.778 21.3701 155.049 20.9638C155.329 20.5576 155.712 20.2462 156.2 20.0295C156.687 19.8129 157.242 19.7046 157.865 19.7046C158.506 19.7046 159.066 19.8174 159.544 20.0431C160.032 20.2597 160.415 20.5757 160.695 20.9909C160.984 21.4062 161.133 21.8936 161.142 22.4533H159.192C159.183 22.2457 159.12 22.0516 159.003 21.8711C158.894 21.6815 158.741 21.5325 158.542 21.4242C158.344 21.3069 158.109 21.2482 157.838 21.2482C157.603 21.2392 157.387 21.2753 157.188 21.3565C156.999 21.4378 156.845 21.5596 156.728 21.7221C156.62 21.8756 156.565 22.0697 156.565 22.3044C156.565 22.53 156.62 22.7196 156.728 22.8731C156.845 23.0265 157.003 23.1619 157.202 23.2793C157.4 23.3876 157.635 23.4914 157.906 23.5907C158.177 23.681 158.47 23.7758 158.786 23.8751C159.255 24.0376 159.689 24.2316 160.086 24.4573C160.483 24.674 160.799 24.9583 161.034 25.3104C161.268 25.6624 161.386 26.1273 161.386 26.7051C161.386 27.2015 161.255 27.6619 160.993 28.0862C160.731 28.5105 160.352 28.8535 159.856 29.1153C159.368 29.3771 158.759 29.508 158.028 29.508Z" fill="white"/>
<path d="M151.617 29.3456V19.8672H153.445V29.3456H151.617Z" fill="white"/>
<path d="M147.249 29.508C146.563 29.508 145.95 29.3906 145.408 29.1559C144.875 28.9212 144.451 28.5782 144.135 28.1268C143.828 27.6755 143.67 27.1293 143.661 26.4884H145.598C145.607 26.7682 145.679 27.021 145.814 27.2467C145.95 27.4724 146.135 27.6529 146.369 27.7883C146.613 27.9147 146.902 27.9779 147.236 27.9779C147.525 27.9779 147.773 27.9327 147.981 27.8425C148.197 27.7432 148.364 27.6078 148.482 27.4362C148.599 27.2647 148.658 27.0616 148.658 26.8269C148.658 26.5561 148.59 26.3304 148.455 26.1499C148.328 25.9693 148.148 25.8159 147.913 25.6895C147.687 25.5631 147.421 25.4503 147.114 25.351C146.816 25.2427 146.5 25.1298 146.166 25.0125C145.417 24.7687 144.844 24.4438 144.447 24.0376C144.058 23.6313 143.864 23.0942 143.864 22.4262C143.864 21.8575 144 21.3701 144.271 20.9638C144.55 20.5576 144.934 20.2462 145.421 20.0295C145.909 19.8129 146.464 19.7046 147.087 19.7046C147.728 19.7046 148.288 19.8174 148.766 20.0431C149.253 20.2597 149.637 20.5757 149.917 20.9909C150.206 21.4062 150.355 21.8936 150.364 22.4533H148.414C148.405 22.2457 148.342 22.0516 148.224 21.8711C148.116 21.6815 147.963 21.5325 147.764 21.4242C147.565 21.3069 147.331 21.2482 147.06 21.2482C146.825 21.2392 146.609 21.2753 146.41 21.3565C146.22 21.4378 146.067 21.5596 145.95 21.7221C145.841 21.8756 145.787 22.0697 145.787 22.3044C145.787 22.53 145.841 22.7196 145.95 22.8731C146.067 23.0265 146.225 23.1619 146.423 23.2793C146.622 23.3876 146.857 23.4914 147.128 23.5907C147.398 23.681 147.692 23.7758 148.008 23.8751C148.477 24.0376 148.91 24.2316 149.308 24.4573C149.705 24.674 150.021 24.9583 150.255 25.3104C150.49 25.6624 150.608 26.1273 150.608 26.7051C150.608 27.2015 150.477 27.6619 150.215 28.0862C149.953 28.5105 149.574 28.8535 149.077 29.1153C148.59 29.3771 147.981 29.508 147.249 29.508Z" fill="white"/>
<path d="M139.619 29.508C138.933 29.508 138.319 29.3906 137.778 29.1559C137.245 28.9212 136.821 28.5782 136.505 28.1268C136.198 27.6755 136.04 27.1293 136.031 26.4884H137.967C137.976 26.7682 138.049 27.021 138.184 27.2467C138.319 27.4724 138.504 27.6529 138.739 27.7883C138.983 27.9147 139.272 27.9779 139.606 27.9779C139.895 27.9779 140.143 27.9327 140.351 27.8425C140.567 27.7432 140.734 27.6078 140.852 27.4362C140.969 27.2647 141.028 27.0616 141.028 26.8269C141.028 26.5561 140.96 26.3304 140.824 26.1499C140.698 25.9693 140.518 25.8159 140.283 25.6895C140.057 25.5631 139.791 25.4503 139.484 25.351C139.186 25.2427 138.87 25.1298 138.536 25.0125C137.787 24.7687 137.214 24.4438 136.816 24.0376C136.428 23.6313 136.234 23.0942 136.234 22.4262C136.234 21.8575 136.37 21.3701 136.64 20.9638C136.92 20.5576 137.304 20.2462 137.791 20.0295C138.279 19.8129 138.834 19.7046 139.457 19.7046C140.098 19.7046 140.657 19.8174 141.136 20.0431C141.623 20.2597 142.007 20.5757 142.287 20.9909C142.576 21.4062 142.725 21.8936 142.734 22.4533H140.784C140.775 22.2457 140.712 22.0516 140.594 21.8711C140.486 21.6815 140.332 21.5325 140.134 21.4242C139.935 21.3069 139.701 21.2482 139.43 21.2482C139.195 21.2392 138.978 21.2753 138.78 21.3565C138.59 21.4378 138.437 21.5596 138.319 21.7221C138.211 21.8756 138.157 22.0697 138.157 22.3044C138.157 22.53 138.211 22.7196 138.319 22.8731C138.437 23.0265 138.595 23.1619 138.793 23.2793C138.992 23.3876 139.227 23.4914 139.497 23.5907C139.768 23.681 140.062 23.7758 140.378 23.8751C140.847 24.0376 141.28 24.2316 141.678 24.4573C142.075 24.674 142.391 24.9583 142.625 25.3104C142.86 25.6624 142.977 26.1273 142.977 26.7051C142.977 27.2015 142.847 27.6619 142.585 28.0862C142.323 28.5105 141.944 28.8535 141.447 29.1153C140.96 29.3771 140.351 29.508 139.619 29.508Z" fill="white"/>
<path d="M126.661 29.3456L130.127 19.8672H132.199L135.652 29.3456H133.716L131.156 21.9524L128.584 29.3456H126.661ZM128.191 27.1926L128.679 25.7709H133.499L133.973 27.1926H128.191Z" fill="white"/>
<path d="M169.184 17.3727C168.281 17.3727 167.495 17.1741 166.827 16.7769C166.159 16.3707 165.64 15.8065 165.27 15.0844C164.9 14.3532 164.715 13.5046 164.715 12.5387C164.715 11.5638 164.905 10.7062 165.284 9.96601C165.663 9.21676 166.209 8.63001 166.922 8.20573C167.635 7.78146 168.488 7.56933 169.481 7.56933C170.592 7.56933 171.513 7.83562 172.244 8.36822C172.984 8.90082 173.462 9.64104 173.679 10.5889H171.634C171.499 10.1736 171.246 9.84866 170.876 9.61395C170.515 9.37022 170.046 9.24836 169.468 9.24836C168.854 9.24836 168.33 9.38377 167.897 9.65458C167.464 9.92539 167.134 10.3045 166.909 10.792C166.683 11.2794 166.57 11.8617 166.57 12.5387C166.57 13.2248 166.683 13.807 166.909 14.2855C167.134 14.7639 167.455 15.1295 167.87 15.3822C168.294 15.626 168.791 15.7478 169.36 15.7478C170.19 15.7478 170.817 15.5267 171.242 15.0844C171.675 14.633 171.932 14.0508 172.014 13.3376H169.685V11.97H173.855V17.2102H172.162L172.027 16.0051C171.828 16.303 171.594 16.5558 171.323 16.7634C171.061 16.962 170.754 17.1109 170.402 17.2102C170.05 17.3186 169.644 17.3727 169.184 17.3727Z" fill="white"/>
<path d="M155.704 17.2123V7.73388H157.532L161.892 14.274V7.73388H163.72V17.2123H161.892L157.532 10.6857V17.2123H155.704Z" fill="white"/>
<path d="M152.556 17.2123V7.73388H154.384V17.2123H152.556Z" fill="white"/>
<path d="M145.547 17.2123V7.73388H147.375V15.7905H151.532V17.2123H145.547Z" fill="white"/>
<path d="M138.539 17.2123V7.73388H140.367V15.7905H144.524V17.2123H138.539Z" fill="white"/>
<path d="M135.391 17.2123V7.73388H137.219V17.2123H135.391Z" fill="white"/>
<path d="M127.297 17.2123V7.73388H131.184C131.843 7.73388 132.398 7.83769 132.849 8.04531C133.3 8.25293 133.639 8.5418 133.865 8.91191C134.099 9.27299 134.217 9.69275 134.217 10.1712C134.217 10.6496 134.113 11.0513 133.905 11.3763C133.698 11.7013 133.422 11.954 133.079 12.1346C132.745 12.3061 132.375 12.4054 131.969 12.4325L132.186 12.2835C132.619 12.3016 133.003 12.4189 133.337 12.6356C133.68 12.8432 133.946 13.123 134.135 13.4751C134.334 13.8271 134.433 14.2108 134.433 14.626C134.433 15.1316 134.311 15.5784 134.068 15.9666C133.824 16.3547 133.472 16.6616 133.012 16.8873C132.551 17.104 131.987 17.2123 131.319 17.2123H127.297ZM129.125 15.7228H131.021C131.518 15.7228 131.901 15.61 132.172 15.3843C132.443 15.1586 132.578 14.8337 132.578 14.4094C132.578 13.9851 132.438 13.6556 132.159 13.4209C131.879 13.1772 131.491 13.0553 130.994 13.0553H129.125V15.7228ZM129.125 11.6877H130.886C131.364 11.6877 131.725 11.5794 131.969 11.3628C132.222 11.1461 132.348 10.8392 132.348 10.442C132.348 10.0538 132.222 9.75142 131.969 9.53478C131.725 9.3091 131.36 9.19626 130.872 9.19626H129.125V11.6877Z" fill="white"/>
<path d="M130.328 5.17601V0.963378H131.412L132.639 3.49697L133.855 0.963378H134.932V5.17601H134.03V2.48594L132.994 4.58624H132.272L131.231 2.48594V5.17601H130.328Z" fill="#D72D8A"/>
<path d="M127.883 5.17601V1.69156H126.661V0.963378H130.007V1.69156H128.785V5.17601H127.883Z" fill="#D72D8A"/>
</svg>
