<svg width="173" height="28" viewBox="0 0 173 28" fill="none" xmlns="http://www.w3.org/2000/svg">
<path d="M13.7822 27.1583C11.6087 27.1583 9.67734 26.7954 7.97446 26.0627C6.27158 25.337 4.83174 24.3391 3.66188 23.0831C2.49201 21.827 1.57828 20.3756 0.948348 18.7358C0.311499 17.0959 0 15.3235 0 13.4325C0 10.9134 0.581467 8.67344 1.73749 6.70564C2.89351 4.73783 4.50639 3.17475 6.56923 2.03035C8.63207 0.878975 10.9856 0.306775 13.623 0.306775C15.4297 0.306775 17.0496 0.59288 18.4825 1.15112C19.9085 1.71634 21.1337 2.47694 22.1443 3.41898C23.155 4.36799 23.9372 5.42866 24.4772 6.59399C25.0171 7.75932 25.294 8.93163 25.294 10.097C25.294 11.9601 24.8579 13.272 23.9926 14.0326C23.1273 14.8002 22.0544 15.1839 20.7876 15.1839H5.10171C5.0671 16.754 5.48936 18.1077 6.37541 19.2591C7.26146 20.4105 8.38287 21.2897 9.73963 21.9108C11.0964 22.5318 12.4601 22.8389 13.8376 22.8389C14.8137 22.8389 15.672 22.783 16.4127 22.6714C17.1534 22.5597 17.7972 22.4202 18.3371 22.2318C18.877 22.0503 19.3408 21.8689 19.7215 21.6875C20.1023 21.5061 20.4553 21.3246 20.7807 21.1432C21.106 20.9618 21.4106 20.8362 21.7013 20.7594C21.9921 20.6896 22.2966 20.7175 22.622 20.8431C22.9473 20.9687 23.1965 21.2199 23.3834 21.5828C23.598 21.8759 23.7434 22.148 23.8195 22.4062C23.8888 22.6644 23.9303 22.9365 23.9303 23.2296C23.9303 23.7739 23.4942 24.3531 22.6289 24.9532C21.7636 25.5533 20.5591 26.0767 19.0224 26.5093C17.4857 26.9489 15.7413 27.1652 13.7822 27.1652V27.1583ZM5.10171 11.8903H18.7248C19.3754 11.8903 19.8808 11.7996 20.2477 11.6182C20.6076 11.4367 20.7876 10.9413 20.7876 10.1388C20.7876 9.15493 20.483 8.24081 19.8669 7.40344C19.2508 6.56608 18.4132 5.8892 17.3403 5.37981C16.2743 4.87041 15.0352 4.61223 13.623 4.61223C12.0655 4.61223 10.6257 4.93321 9.31046 5.56822C7.9883 6.21019 6.94996 7.07547 6.18851 8.16405C5.42706 9.25262 5.0671 10.5017 5.10171 11.8833V11.8903Z" fill="#D72D8A"/>
<path d="M39.346 26.9906C38.7299 26.9906 38.2246 26.8999 37.8231 26.7185C37.4216 26.5371 37.117 26.2091 36.9024 25.7346L26.8651 3.684C26.4636 2.81175 26.3736 2.14186 26.5952 1.68828C26.8098 1.23471 27.3151 0.802077 28.1181 0.404329C28.838 0.0414707 29.4541 -0.0771574 29.9663 0.0484473C30.4716 0.174052 30.9077 0.676468 31.2677 1.5557L39.3529 20.9198L47.2789 2.04417C47.6389 1.2068 48.0681 0.606688 48.5526 0.236852C49.0441 -0.126006 49.7917 -0.056222 50.8023 0.453175C51.7784 0.927681 52.2699 1.46499 52.2699 2.0651C52.2699 2.66521 52.1037 3.31417 51.7784 4.005L41.7896 25.6718C41.6096 26.1114 41.3188 26.4394 40.9243 26.6557C40.5228 26.872 40.0036 26.9837 39.3529 26.9837L39.346 26.9906Z" fill="#D72D8A"/>
<path d="M76.574 26.8289C75.7779 26.8289 75.1964 26.6614 74.8365 26.3334C74.4765 26.0055 74.2757 25.4961 74.2411 24.7983L74.4557 22.0629C74.0958 22.649 73.5351 23.312 72.7736 24.0586C72.0122 24.8053 71.0084 25.4612 69.7624 26.0264C68.5164 26.5916 67.0212 26.8777 65.2837 26.8777C63.5462 26.8777 61.9264 26.5288 60.4243 25.838C58.9222 25.1472 57.6 24.1772 56.4647 22.9351C55.3226 21.693 54.4296 20.2765 53.7789 18.6646C53.1282 17.0596 52.8029 15.343 52.8029 13.5218C52.8029 11.7005 53.1282 10.0467 53.7789 8.4627C54.4296 6.87868 55.3364 5.48308 56.4924 4.27588C57.6485 3.06868 58.9775 2.12663 60.4797 1.42883C61.9818 0.738005 63.5808 0.389105 65.2837 0.389105C66.8758 0.389105 68.2326 0.598447 69.354 1.01713C70.4754 1.43581 71.4445 1.98708 72.2544 2.65697C73.0713 3.33384 73.7843 4.08746 74.4004 4.92483L74.2342 2.62906C74.2342 1.82659 74.4211 1.25438 74.8018 0.905478C75.1826 0.556576 75.7848 0.389105 76.6224 0.389105C77.3077 0.389105 77.8061 0.500754 78.1176 0.717073C78.4222 0.933393 78.6368 1.24741 78.7406 1.64515C78.8514 2.04988 78.9068 2.53834 78.9068 3.12449V24.24C78.9068 24.7494 78.8514 25.21 78.7406 25.6077C78.6299 26.0125 78.4153 26.3125 78.0899 26.5079C77.7646 26.7103 77.2593 26.808 76.567 26.808L76.574 26.8289ZM66.0452 22.2862C67.5265 22.2862 68.8695 21.9024 70.0601 21.1348C71.2507 20.3672 72.2129 19.3415 72.9398 18.0435C73.6597 16.7526 74.0265 15.2593 74.0265 13.5846C74.0265 11.9098 73.6528 10.3677 72.9121 9.06978C72.1714 7.77885 71.1953 6.76005 69.9839 6.03433C68.7725 5.30862 67.4227 4.93879 65.9413 4.93879C64.2731 4.93879 62.8194 5.32258 61.5734 6.09016C60.3274 6.85774 59.3375 7.89747 58.6176 9.20934C57.8907 10.5212 57.5308 12.0145 57.5308 13.6962C57.5308 15.3779 57.8907 16.8084 58.6176 18.0994C59.3375 19.3973 60.3481 20.4161 61.6288 21.1627C62.9094 21.9094 64.3907 22.2862 66.0521 22.2862H66.0452Z" fill="#D72D8A"/>
<path d="M106.209 26.8289C105.413 26.8289 104.831 26.6614 104.471 26.3334C104.111 26.0055 103.911 25.4961 103.876 24.7983L104.091 22.0629C103.731 22.649 103.17 23.312 102.409 24.0586C101.647 24.8053 100.643 25.4612 99.3974 26.0264C98.1514 26.5916 96.6561 26.8777 94.9187 26.8777C93.1812 26.8777 91.5613 26.5288 90.0592 25.838C88.5571 25.1472 87.2349 24.1772 86.0997 22.9351C84.9575 21.693 84.0645 20.2765 83.4138 18.6646C82.7631 17.0596 82.4378 15.343 82.4378 13.5218C82.4378 11.7005 82.7631 10.0467 83.4138 8.4627C84.0645 6.87868 84.9713 5.48308 86.1274 4.27588C87.2834 3.06868 88.6125 2.12663 90.1146 1.42883C91.6167 0.738005 93.2158 0.389105 94.9187 0.389105C96.5108 0.389105 97.8675 0.598447 98.9889 1.01713C100.11 1.43581 101.079 1.98708 101.889 2.65697C102.706 3.33384 103.419 4.08746 104.035 4.92483L103.869 2.62906C103.869 1.82659 104.056 1.25438 104.437 0.905478C104.818 0.556576 105.42 0.389105 106.257 0.389105C106.943 0.389105 107.441 0.500754 107.753 0.717073C108.057 0.933393 108.272 1.24741 108.376 1.64515C108.486 2.04988 108.542 2.53834 108.542 3.12449V24.24C108.542 24.7494 108.486 25.21 108.376 25.6077C108.265 26.0125 108.05 26.3125 107.725 26.5079C107.4 26.7103 106.894 26.808 106.202 26.808L106.209 26.8289ZM95.6801 22.2862C97.1615 22.2862 98.5044 21.9024 99.695 21.1348C100.886 20.3672 101.848 19.3415 102.575 18.0435C103.295 16.7526 103.661 15.2593 103.661 13.5846C103.661 11.9098 103.288 10.3677 102.547 9.06978C101.806 7.77885 100.83 6.76005 99.6189 6.03433C98.4075 5.30862 97.0576 4.93879 95.5763 4.93879C93.908 4.93879 92.4543 5.32258 91.2083 6.09016C89.9623 6.85774 88.9724 7.89747 88.2525 9.20934C87.5257 10.5212 87.1657 12.0145 87.1657 13.6962C87.1657 15.3779 87.5257 16.8084 88.2525 18.0994C88.9724 19.3973 89.9831 20.4161 91.2637 21.1627C92.5443 21.9094 94.0257 22.2862 95.687 22.2862H95.6801Z" fill="#D72D8A"/>
<path d="M116.221 4.61569V0.859069H117.187L118.281 3.11841L119.365 0.859069H120.326V4.61569H119.521V2.21682L118.598 4.08976H117.954L117.026 2.21682V4.61569H116.221Z" fill="#D72D8A"/>
<path d="M114.04 4.61569V1.50843H112.95V0.859069H115.934V1.50843H114.845V4.61569H114.04Z" fill="#D72D8A"/>
<path d="M112.802 15.1213V6.69074H115.945C116.628 6.69074 117.194 6.80716 117.643 7.04001C118.093 7.27285 118.426 7.59 118.643 7.99145C118.868 8.39291 118.98 8.84655 118.98 9.35238C118.98 9.81807 118.872 10.2516 118.655 10.6531C118.446 11.0546 118.117 11.3797 117.668 11.6286C117.226 11.8695 116.652 11.9899 115.945 11.9899H114.428V15.1213H112.802ZM114.428 10.6772H115.837C116.375 10.6772 116.756 10.5567 116.981 10.3159C117.214 10.075 117.33 9.75384 117.33 9.35238C117.33 8.93487 117.214 8.60969 116.981 8.37685C116.756 8.13598 116.375 8.01554 115.837 8.01554H114.428V10.6772Z" fill="#71706C"/>
<path d="M118.798 15.1213L121.882 6.69074H123.724L126.795 15.1213H125.073L122.797 8.54546L120.509 15.1213H118.798ZM120.159 13.2063L120.593 11.9418H124.88L125.302 13.2063H120.159Z" fill="#71706C"/>
<path d="M128.984 15.1213V8.0035H126.515V6.69074H133.055V8.0035H130.598V15.1213H128.984Z" fill="#71706C"/>
<path d="M134.255 15.1213V6.69074H135.881V15.1213H134.255Z" fill="#71706C"/>
<path d="M137.595 15.1213V6.69074H143.135V8.0035H139.221V10.2075H142.774V11.4721H139.221V13.8085H143.135V15.1213H137.595Z" fill="#71706C"/>
<path d="M144.652 15.1213V6.69074H146.278L150.156 12.5078V6.69074H151.782V15.1213H150.156L146.278 9.31625V15.1213H144.652Z" fill="#71706C"/>
<path d="M155.447 15.1213V8.0035H152.978V6.69074H159.518V8.0035H157.061V15.1213H155.447Z" fill="#71706C"/>
<path d="M112.802 26.1613V17.7307H115.945C116.628 17.7307 117.194 17.8472 117.643 18.08C118.093 18.3128 118.426 18.63 118.643 19.0314C118.868 19.4329 118.98 19.8865 118.98 20.3924C118.98 20.8581 118.872 21.2916 118.655 21.6931C118.446 22.0945 118.117 22.4197 117.668 22.6686C117.226 22.9095 116.652 23.0299 115.945 23.0299H114.428V26.1613H112.802ZM114.428 21.7172H115.837C116.375 21.7172 116.756 21.5967 116.981 21.3559C117.214 21.115 117.33 20.7938 117.33 20.3924C117.33 19.9749 117.214 19.6497 116.981 19.4168C116.756 19.176 116.375 19.0555 115.837 19.0555H114.428V21.7172Z" fill="#71706C"/>
<path d="M124.053 26.3058C123.242 26.3058 122.527 26.1211 121.909 25.7518C121.299 25.3825 120.821 24.8726 120.476 24.2223C120.13 23.5639 119.958 22.8051 119.958 21.946C119.958 21.0869 120.13 20.3322 120.476 19.6818C120.821 19.0234 121.299 18.5096 121.909 18.1402C122.527 17.7709 123.242 17.5862 124.053 17.5862C124.864 17.5862 125.574 17.7709 126.184 18.1402C126.803 18.5096 127.284 19.0234 127.63 19.6818C127.975 20.3322 128.148 21.0869 128.148 21.946C128.148 22.8051 127.975 23.5639 127.63 24.2223C127.284 24.8726 126.803 25.3825 126.184 25.7518C125.574 26.1211 124.864 26.3058 124.053 26.3058ZM124.053 24.8485C124.55 24.8485 124.98 24.7321 125.341 24.4993C125.711 24.2584 125.992 23.9212 126.184 23.4876C126.385 23.054 126.485 22.5402 126.485 21.946C126.485 21.3438 126.385 20.83 126.184 20.4044C125.992 19.9709 125.711 19.6376 125.341 19.4048C124.98 19.172 124.55 19.0555 124.053 19.0555C123.563 19.0555 123.133 19.172 122.764 19.4048C122.395 19.6376 122.11 19.9709 121.909 20.4044C121.708 20.83 121.608 21.3438 121.608 21.946C121.608 22.5402 121.708 23.054 121.909 23.4876C122.11 23.9212 122.395 24.2584 122.764 24.4993C123.133 24.7321 123.563 24.8485 124.053 24.8485Z" fill="#71706C"/>
<path d="M129.574 26.1613V17.7307H132.729C133.404 17.7307 133.962 17.8472 134.403 18.08C134.845 18.3128 135.174 18.626 135.391 19.0194C135.616 19.4048 135.728 19.8344 135.728 20.3081C135.728 20.7577 135.62 21.1792 135.403 21.5727C135.194 21.958 134.865 22.2712 134.415 22.5121C133.974 22.7449 133.404 22.8613 132.705 22.8613H131.2V26.1613H129.574ZM133.945 26.1613L132.211 22.4518H133.97L135.8 26.1613H133.945ZM131.2 21.681H132.621C133.118 21.681 133.484 21.5606 133.717 21.3197C133.949 21.0789 134.066 20.7617 134.066 20.3683C134.066 19.9749 133.949 19.6657 133.717 19.4409C133.484 19.2081 133.118 19.0917 132.621 19.0917H131.2V21.681Z" fill="#71706C"/>
<path d="M139.158 26.1613V19.0435H136.689V17.7307H143.229V19.0435H140.772V26.1613H139.158Z" fill="#71706C"/>
<path d="M142.956 26.1613L146.039 17.7307H147.882L150.953 26.1613H149.231L146.955 19.5855L144.666 26.1613H142.956ZM144.317 24.2463L144.751 22.9818H149.038L149.46 24.2463H144.317Z" fill="#71706C"/>
<path d="M152.085 26.1613V17.7307H153.711V24.8967H157.408V26.1613H152.085Z" fill="#71706C"/>
</svg>
