<svg width="158" height="39" viewBox="0 0 158 39" fill="none" xmlns="http://www.w3.org/2000/svg">
<path d="M0 32.4587V10.605H3.82316L9.52739 25.7379C9.65618 26.1005 9.78159 26.4869 9.91038 26.9004C10.0392 27.3139 10.1612 27.707 10.2764 28.0798C10.3917 28.4526 10.4832 28.7645 10.5476 29.0186H10.7374C10.8221 28.7204 10.9272 28.3713 11.056 27.968C11.1848 27.5647 11.3068 27.1681 11.422 26.775C11.5373 26.3818 11.6491 26.0361 11.7576 25.7413L17.4618 10.6084H21.2544V32.4621H18.7362V18.8577C18.7362 18.3256 18.7463 17.7257 18.7667 17.0581C18.787 16.3904 18.804 15.7363 18.8141 15.0991C18.8243 14.4619 18.8311 13.9739 18.8311 13.6349H18.6074C18.5226 13.9535 18.4108 14.3297 18.2718 14.7669C18.1329 15.2042 17.9939 15.6448 17.8583 16.0887C17.7194 16.5361 17.5872 16.9496 17.4584 17.3326L11.5949 32.4655H9.5545L3.72826 17.3258C3.59946 16.9869 3.47406 16.6141 3.34526 16.2108C3.21647 15.8074 3.09106 15.3838 2.96227 14.9364C2.83347 14.489 2.70807 14.0552 2.57927 13.6316H2.35558C2.37592 14.0552 2.39286 14.5873 2.40303 15.2245C2.4132 15.8617 2.42337 16.4988 2.43353 17.136C2.4437 17.7732 2.45048 18.346 2.45048 18.8577V32.4621H0V32.4587Z" fill="#303030"/>
<path d="M29.6567 32.8417C28.9992 32.8417 28.3518 32.7604 27.7146 32.6045C27.0774 32.4452 26.508 32.191 26.0098 31.8385C25.5115 31.4894 25.1116 31.0149 24.8167 30.4218C24.5185 29.8287 24.3693 29.0932 24.3693 28.2222C24.3693 27.0766 24.6507 26.1344 25.2133 25.4023C25.7759 24.6703 26.5656 24.0975 27.5858 23.6806C28.606 23.2671 29.8092 22.9858 31.2022 22.8367C32.5918 22.6876 34.1069 22.613 35.7405 22.613V20.4778C35.7405 19.8 35.6185 19.2204 35.3745 18.7425C35.1304 18.2646 34.7068 17.8952 34.1001 17.6275C33.4934 17.3631 32.6393 17.2275 31.5344 17.2275C30.4294 17.2275 29.633 17.3665 29.0161 17.641C28.3992 17.9189 27.9688 18.2748 27.7248 18.7086C27.4807 19.1424 27.3587 19.6271 27.3587 20.1592V20.6676H25.1591C25.1387 20.5625 25.1285 20.4541 25.1285 20.349V19.966C25.1285 18.9052 25.4031 18.0342 25.9555 17.3529C26.508 16.6751 27.2943 16.1633 28.3145 15.8244C29.3347 15.4855 30.5006 15.316 31.8191 15.316C33.1375 15.316 34.2831 15.5126 35.1948 15.9057C36.1066 16.2989 36.8082 16.8547 37.2962 17.5766C37.7843 18.2985 38.0283 19.1696 38.0283 20.1897V32.4452L35.8625 32.4553V30.0659H35.6388C35.2355 30.6387 34.7203 31.1335 34.0933 31.547C33.4663 31.9605 32.7816 32.2791 32.0394 32.5028C31.2971 32.7265 30.5006 32.8383 29.6499 32.8383L29.6567 32.8417ZM30.1346 30.8997C30.8362 30.8997 31.514 30.7844 32.175 30.5506C32.8325 30.3167 33.429 29.9914 33.9577 29.5779C34.4899 29.1644 34.9169 28.6696 35.2491 28.0968C35.5778 27.524 35.7439 26.8868 35.7439 26.1853V24.4635C33.7679 24.4635 32.1173 24.5686 30.7887 24.7821C29.4601 24.9956 28.4636 25.3651 27.7926 25.8972C27.1249 26.4293 26.7893 27.1715 26.7893 28.1273C26.7893 28.7645 26.9317 29.2898 27.2198 29.7033C27.5079 30.1168 27.9044 30.4184 28.4128 30.6116C28.9212 30.8014 29.4974 30.8997 30.1346 30.8997Z" fill="#303030"/>
<path d="M40.4855 32.4585L46.5389 23.921L40.7092 15.7021H43.5122L47.9082 22.0739H48.0675L52.4634 15.7021H55.0766L49.3113 23.8261L55.3952 32.4585H52.6566L47.9421 25.6732H47.8133L43.1292 32.4585H40.4855Z" fill="#303030"/>
<path d="M58.7404 32.4585V15.7021H61.035V32.4585H58.7404Z" fill="#303030"/>
<path d="M66.2171 32.4588V15.7024H68.0338L68.2575 18.346H68.4812C68.9489 17.5801 69.4573 16.9802 70.0098 16.5463C70.5623 16.1125 71.1656 15.7973 71.8265 15.6075C72.484 15.4177 73.1856 15.3194 73.9278 15.3194C75.0531 15.3194 76.0191 15.5465 76.8257 16.0041C77.6324 16.4616 78.2052 17.2411 78.5475 18.346H78.7373C79.1847 17.6038 79.6829 17.0141 80.2354 16.5768C80.7878 16.143 81.3979 15.8244 82.0656 15.6211C82.7333 15.4211 83.4417 15.3194 84.1839 15.3194C85.1804 15.3194 86.065 15.4889 86.8276 15.8278C87.5936 16.1667 88.1935 16.7294 88.6273 17.5157C89.0612 18.302 89.2815 19.3628 89.2815 20.7015V32.4554H86.9869V20.9557C86.9869 20.2338 86.8954 19.6339 86.7158 19.156C86.5361 18.6782 86.2853 18.3121 85.9667 18.0579C85.6481 17.8037 85.2753 17.6241 84.8516 17.5157C84.428 17.4106 83.9704 17.3564 83.4823 17.3564C82.6757 17.3564 81.9266 17.5631 81.2352 17.9766C80.5438 18.3901 79.9812 18.9798 79.5473 19.7458C79.1135 20.5117 78.8932 21.4438 78.8932 22.5487V32.4554H76.5986V20.9557C76.5986 20.2338 76.5139 19.6339 76.3444 19.156C76.175 18.6782 75.9309 18.3121 75.6123 18.0579C75.2937 17.8037 74.9277 17.6241 74.5142 17.5157C74.1007 17.4106 73.6601 17.3564 73.1924 17.3564C72.3857 17.3564 71.6265 17.5631 70.9147 17.9766C70.203 18.3901 69.6234 18.9798 69.1794 19.7458C68.732 20.5117 68.5117 21.4438 68.5117 22.5487V32.4554H66.2171V32.4588Z" fill="#303030"/>
<path d="M93.6131 32.4587V10.605H109.421V12.7707H96.1313V20.1626H108.021V22.3622H96.1313V30.293H109.614V32.4587H93.6165H93.6131Z" fill="#303030"/>
<path d="M113.498 38.2574C113.095 38.2574 112.739 38.2303 112.431 38.1795C112.122 38.1253 111.875 38.088 111.682 38.0676V36.3459H112.925C113.478 36.3459 114.01 36.251 114.518 36.0578C115.027 35.868 115.505 35.4885 115.952 34.9258C116.399 34.3632 116.803 33.5396 117.162 32.4585L110.665 15.7021H113.085L116.525 24.6226C116.694 25.0259 116.881 25.5309 117.084 26.1342C117.284 26.7409 117.498 27.3543 117.721 27.9813C117.945 28.6083 118.131 29.1642 118.277 29.6556H118.467C118.552 29.3167 118.664 28.9235 118.802 28.4761C118.941 28.0288 119.084 27.5746 119.233 27.1069C119.382 26.6392 119.524 26.1952 119.663 25.7681C119.802 25.3445 119.924 24.9717 120.029 24.6531L122.992 15.7021H125.317L119.582 32.1738C119.263 33.1092 118.925 33.9464 118.562 34.692C118.199 35.4342 117.792 36.0714 117.335 36.6035C116.877 37.1356 116.335 37.5423 115.711 37.8304C115.084 38.1185 114.346 38.2608 113.498 38.2608V38.2574Z" fill="#303030"/>
<path d="M134.332 32.8417C132.739 32.8417 131.39 32.5265 130.286 31.9029C129.181 31.2759 128.343 30.3168 127.767 29.0187C127.194 27.724 126.906 26.0768 126.906 24.0806C126.906 22.0843 127.194 20.4134 127.767 19.1255C128.34 17.841 129.191 16.8853 130.316 16.2583C131.441 15.6312 132.844 15.3194 134.522 15.3194C136.071 15.3194 137.373 15.6279 138.423 16.2447C139.474 16.8615 140.27 17.7529 140.813 18.9222C141.355 20.0915 141.626 21.5251 141.626 23.2231V24.6873H129.296C129.296 26.1514 129.496 27.3512 129.903 28.2866C130.306 29.222 130.885 29.8965 131.638 30.31C132.39 30.7235 133.322 30.9302 134.424 30.9302C135.231 30.9302 135.936 30.8252 136.542 30.6116C137.149 30.3981 137.647 30.1066 138.04 29.7338C138.433 29.361 138.735 28.9204 138.949 28.412C139.162 27.9036 139.267 27.3715 139.267 26.8191H141.497C141.497 27.6461 141.342 28.429 141.036 29.161C140.728 29.8931 140.284 30.5371 139.698 31.0895C139.115 31.642 138.376 32.0724 137.484 32.3808C136.593 32.6892 135.542 32.8417 134.329 32.8417H134.332ZM129.299 22.8706H139.24C139.24 21.8098 139.118 20.9218 138.874 20.2101C138.63 19.4984 138.295 18.9256 137.871 18.4884C137.447 18.0545 136.942 17.7393 136.359 17.5495C135.776 17.3598 135.122 17.2615 134.4 17.2615C133.36 17.2615 132.468 17.458 131.723 17.8512C130.98 18.2443 130.411 18.8544 130.018 19.6814C129.625 20.5083 129.384 21.5726 129.303 22.8672L129.299 22.8706Z" fill="#303030"/>
<path d="M151.313 32.8418C150.208 32.8418 149.232 32.73 148.381 32.5063C147.531 32.2826 146.826 31.9538 146.263 31.52C145.7 31.0862 145.277 30.5609 144.989 29.944C144.7 29.3272 144.558 28.6155 144.558 27.8088V27.5377C144.558 27.4428 144.568 27.3513 144.589 27.2665H146.849C146.829 27.3716 146.819 27.4631 146.819 27.5377V27.7444C146.839 28.5714 147.042 29.2154 147.425 29.6729C147.808 30.1304 148.351 30.4524 149.049 30.6456C149.747 30.8388 150.557 30.9337 151.469 30.9337C152.255 30.9337 152.96 30.8218 153.587 30.5982C154.214 30.3745 154.712 30.0525 155.085 29.6254C155.458 29.2018 155.645 28.6799 155.645 28.063C155.645 27.2767 155.407 26.6836 154.926 26.2803C154.448 25.877 153.828 25.5652 153.062 25.3415C152.296 25.1178 151.499 24.8805 150.672 24.6263C149.991 24.4365 149.323 24.2264 148.666 24.0061C148.008 23.7824 147.408 23.5011 146.866 23.1622C146.324 22.8233 145.893 22.3861 145.575 21.8573C145.256 21.3252 145.097 20.6576 145.097 19.8509C145.097 19.1493 145.239 18.5223 145.527 17.9699C145.815 17.4175 146.229 16.9463 146.771 16.5532C147.314 16.16 147.978 15.8584 148.761 15.6449C149.547 15.4314 150.439 15.3263 151.438 15.3263C152.543 15.3263 153.489 15.4551 154.275 15.7093C155.062 15.9635 155.699 16.3092 156.187 16.743C156.675 17.1768 157.038 17.6683 157.271 18.2071C157.505 18.7494 157.621 19.3188 157.621 19.9119C157.621 19.9967 157.614 20.0916 157.604 20.2C157.593 20.3051 157.587 20.4034 157.587 20.4881H155.326V20.0746C155.326 19.6272 155.214 19.1934 154.99 18.7698C154.767 18.3461 154.374 17.9835 153.811 17.6852C153.248 17.3869 152.415 17.2378 151.31 17.2378C150.652 17.2378 150.083 17.2954 149.605 17.4141C149.127 17.5327 148.724 17.6954 148.395 17.9089C148.066 18.1224 147.822 18.38 147.663 18.6884C147.503 18.9968 147.422 19.3527 147.422 19.756C147.422 20.3729 147.619 20.844 148.012 21.1727C148.405 21.5015 148.92 21.7658 149.557 21.9692C150.195 22.1725 150.872 22.3894 151.598 22.6233C152.32 22.8368 153.058 23.0571 153.811 23.291C154.563 23.5248 155.262 23.8129 155.899 24.1518C156.536 24.4908 157.044 24.9449 157.427 25.5075C157.81 26.0701 158 26.809 158 27.7207C158 28.5714 157.831 29.3204 157.492 29.9678C157.153 30.6151 156.685 31.1506 156.089 31.5776C155.495 32.0013 154.787 32.3199 153.97 32.5334C153.153 32.7469 152.265 32.852 151.31 32.852L151.313 32.8418Z" fill="#303030"/>
<path d="M59.7673 13.3908C55.9102 13.3908 53.6021 10.3507 53.6021 7.40885C53.6021 5.38548 55.3171 2.49786 58.6963 2.49786C61.3637 2.49786 62.5126 3.8705 62.4618 5.599C62.411 7.41224 61.2145 8.56119 59.6792 8.56119C58.3709 8.56119 56.9101 7.46986 56.8898 5.60239C56.8898 5.31431 56.988 4.71103 57.188 4.32465C57.2117 4.2772 57.2016 4.22298 57.1643 4.1857C57.1406 4.16536 57.1135 4.1518 57.0829 4.1518C57.0626 4.1518 57.0423 4.15519 57.0253 4.16536C55.934 4.76864 55.4256 6.40564 55.4256 7.32412C55.4256 10.1609 58.0625 11.2183 59.7266 11.2183C62.2686 11.2183 64.8411 9.38816 64.8411 5.89048C64.8411 2.39279 62.5838 0.382983 58.598 0.0271138C58.8047 0.0101677 59.0284 0 59.2555 0C63.6006 0 66.7798 2.47075 66.7798 6.29379C66.7798 9.60507 64.3259 13.3874 59.7673 13.3874V13.3908ZM59.6758 3.9315C58.7505 3.9315 57.9947 4.68391 57.9947 5.60578C57.9947 6.52765 58.7471 7.28006 59.6758 7.28006C60.6045 7.28006 61.3569 6.52765 61.3569 5.60578C61.3569 4.68391 60.6045 3.9315 59.6758 3.9315Z" fill="#008A1E"/>
</svg>
