<svg width="194" height="28" viewBox="0 0 194 28" fill="none" xmlns="http://www.w3.org/2000/svg">
<path d="M182.419 26.7364V8.80077H194V11.2861H185.493V16.4362H193.231V18.8703H185.493V24.251H194V26.7364H182.419Z" fill="white"/>
<path d="M167.096 26.7364V8.80077H174.117C175.381 8.80077 176.432 8.99721 177.269 9.39008C178.123 9.78296 178.763 10.3296 179.19 11.0299C179.617 11.7132 179.831 12.5075 179.831 13.4128C179.831 14.3181 179.634 15.0782 179.241 15.6932C178.849 16.3081 178.328 16.7778 177.678 17.1024C177.046 17.4269 176.355 17.6234 175.603 17.6917L175.987 17.4099C176.79 17.4269 177.508 17.6405 178.14 18.0504C178.789 18.4604 179.301 18.9984 179.677 19.6646C180.053 20.3137 180.241 21.0397 180.241 21.8425C180.241 22.782 180.01 23.6275 179.549 24.3791C179.105 25.1136 178.447 25.6944 177.576 26.1214C176.705 26.5314 175.637 26.7364 174.373 26.7364H167.096ZM170.171 24.2254H173.912C174.92 24.2254 175.706 23.9862 176.269 23.508C176.833 23.0297 177.115 22.3635 177.115 21.5094C177.115 20.6554 176.824 19.9806 176.244 19.4853C175.663 18.9728 174.869 18.7166 173.861 18.7166H170.171V24.2254ZM170.171 16.385H173.681C174.672 16.385 175.424 16.1629 175.936 15.7188C176.449 15.2576 176.705 14.6256 176.705 13.8227C176.705 13.037 176.449 12.4221 175.936 11.9779C175.424 11.5167 174.664 11.2861 173.656 11.2861H170.171V16.385Z" fill="white"/>
<path d="M161.183 26.7364V8.80077H164.258V26.7364H161.183Z" fill="white"/>
<path d="M146.061 26.7364V8.80077H152.493C153.91 8.80077 155.08 9.04845 156.003 9.54382C156.942 10.0221 157.634 10.6712 158.078 11.4911C158.539 12.2939 158.77 13.2078 158.77 14.2327C158.77 15.1893 158.548 16.0775 158.104 16.8974C157.66 17.7173 156.968 18.375 156.028 18.8703C155.089 19.3657 153.885 19.6134 152.416 19.6134H149.136V26.7364H146.061ZM155.413 26.7364L151.647 18.8191H154.978L158.924 26.7364H155.413ZM149.136 17.333H152.288C153.432 17.333 154.269 17.0597 154.799 16.5131C155.345 15.9494 155.618 15.2149 155.618 14.3096C155.618 13.4213 155.354 12.7124 154.824 12.1829C154.295 11.6363 153.449 11.363 152.288 11.363H149.136V17.333Z" fill="white"/>
<path d="M136.029 27.0442C134.253 27.0442 132.716 26.6599 131.417 25.8912C130.136 25.1054 129.145 24.0208 128.445 22.6371C127.762 21.2365 127.42 19.6223 127.42 17.7945C127.42 15.9497 127.762 14.3355 128.445 12.9519C129.145 11.5512 130.136 10.458 131.417 9.67227C132.716 8.88652 134.253 8.49364 136.029 8.49364C138.165 8.49364 139.907 9.02317 141.256 10.0822C142.606 11.1242 143.46 12.6017 143.819 14.5149H140.436C140.197 13.5071 139.71 12.7128 138.976 12.132C138.241 11.5512 137.251 11.2608 136.004 11.2608C134.876 11.2608 133.903 11.5256 133.083 12.0551C132.28 12.5676 131.656 13.3192 131.212 14.3099C130.785 15.2835 130.572 16.4451 130.572 17.7945C130.572 19.144 130.785 20.3055 131.212 21.2792C131.656 22.2357 132.28 22.9788 133.083 23.5083C133.903 24.0208 134.876 24.277 136.004 24.277C137.251 24.277 138.241 24.0122 138.976 23.4827C139.71 22.9361 140.197 22.1845 140.436 21.2279H143.819C143.477 23.0386 142.623 24.4649 141.256 25.5068C139.907 26.5317 138.165 27.0442 136.029 27.0442Z" fill="white"/>
<path d="M119.56 27.0442C118.262 27.0442 117.109 26.8136 116.101 26.3524C115.093 25.8912 114.308 25.2335 113.744 24.3795C113.18 23.5254 112.89 22.509 112.873 21.3304H116.127C116.127 21.9283 116.263 22.4663 116.537 22.9446C116.827 23.4058 117.22 23.7731 117.715 24.0464C118.228 24.3197 118.843 24.4563 119.56 24.4563C120.175 24.4563 120.705 24.3624 121.149 24.1745C121.61 23.9695 121.96 23.6877 122.199 23.329C122.455 22.9532 122.584 22.5176 122.584 22.0222C122.584 21.4585 122.447 20.9973 122.174 20.6386C121.917 20.2628 121.559 19.9468 121.097 19.6906C120.636 19.4344 120.107 19.2123 119.509 19.0244C118.911 18.8194 118.279 18.6059 117.613 18.3838C116.195 17.9056 115.127 17.2992 114.41 16.5647C113.693 15.8131 113.334 14.8138 113.334 13.5669C113.334 12.5249 113.582 11.6281 114.077 10.8765C114.572 10.1249 115.264 9.54415 116.152 9.1342C117.058 8.70716 118.1 8.49364 119.278 8.49364C120.474 8.49364 121.516 8.70716 122.404 9.1342C123.309 9.56123 124.018 10.1591 124.531 10.9278C125.06 11.6793 125.334 12.5847 125.351 13.6437H122.071C122.054 13.1996 121.934 12.7896 121.712 12.4139C121.49 12.021 121.166 11.705 120.739 11.4658C120.329 11.2096 119.825 11.0815 119.227 11.0815C118.715 11.0644 118.253 11.1498 117.843 11.3377C117.451 11.5085 117.135 11.7648 116.895 12.1064C116.673 12.4309 116.562 12.8409 116.562 13.3363C116.562 13.8145 116.665 14.216 116.87 14.5405C117.092 14.848 117.408 15.1127 117.818 15.3348C118.228 15.5398 118.706 15.7362 119.253 15.9241C119.799 16.112 120.397 16.317 121.046 16.539C121.934 16.8294 122.737 17.1881 123.455 17.6152C124.189 18.0251 124.77 18.5632 125.197 19.2294C125.624 19.8956 125.838 20.7582 125.838 21.8172C125.838 22.7396 125.598 23.6023 125.12 24.4051C124.642 25.1908 123.941 25.8314 123.019 26.3268C122.097 26.805 120.944 27.0442 119.56 27.0442Z" fill="white"/>
<path d="M13.7197 27.0349C11.556 27.0349 9.63345 26.6737 7.93829 25.9443C6.24314 25.2219 4.80983 24.2285 3.64527 22.9782C2.48071 21.7278 1.57112 20.283 0.944047 18.6506C0.310086 17.0182 0 15.2538 0 13.3713C0 10.8637 0.57883 8.6339 1.72961 6.67502C2.88038 4.71613 4.48595 3.16014 6.53943 2.02093C8.59292 0.87478 10.9358 0.305175 13.5612 0.305175C15.3598 0.305175 16.9722 0.589982 18.3986 1.14569C19.8182 1.70835 21.0378 2.4655 22.0439 3.40326C23.05 4.34797 23.8287 5.40382 24.3661 6.56387C24.9036 7.72392 25.1793 8.89091 25.1793 10.051C25.1793 11.9056 24.7451 13.2116 23.8838 13.9687C23.0224 14.7328 21.9543 15.1149 20.6933 15.1149H5.07857C5.04412 16.6778 5.46446 18.0254 6.34649 19.1716C7.22852 20.3177 8.34485 21.193 9.69546 21.8112C11.0461 22.4294 12.4036 22.7351 13.7749 22.7351C14.7465 22.7351 15.6009 22.6795 16.3383 22.5683C17.0756 22.4572 17.7164 22.3183 18.2539 22.1307C18.7914 21.9501 19.2531 21.7695 19.6321 21.5889C20.0111 21.4083 20.3625 21.2277 20.6864 21.0471C21.0103 20.8665 21.3135 20.7414 21.6029 20.665C21.8923 20.5956 22.1955 20.6234 22.5194 20.7484C22.8432 20.8734 23.0913 21.1235 23.2774 21.4847C23.491 21.7765 23.6357 22.0474 23.7115 22.3044C23.7804 22.5614 23.8218 22.8323 23.8218 23.1241C23.8218 23.6659 23.3876 24.2424 22.5263 24.8398C21.6649 25.4372 20.4659 25.9582 18.9361 26.3889C17.4064 26.8265 15.6699 27.0418 13.7197 27.0418V27.0349ZM5.07857 11.8362H18.6398C19.2876 11.8362 19.7906 11.7459 20.1558 11.5653C20.5141 11.3847 20.6933 10.8915 20.6933 10.0926C20.6933 9.1132 20.3901 8.20322 19.7768 7.36965C19.1635 6.53609 18.3297 5.86228 17.2616 5.3552C16.2005 4.84811 14.967 4.5911 13.5612 4.5911C12.0108 4.5911 10.5775 4.91063 9.26823 5.54275C7.95207 6.18182 6.91844 7.04317 6.16044 8.12681C5.40245 9.21044 5.04412 10.4538 5.07857 11.8292V11.8362Z" fill="#D72D8A"/>
<path d="M39.1675 26.8682C38.5542 26.8682 38.0512 26.7779 37.6515 26.5973C37.2518 26.4167 36.9486 26.0902 36.735 25.6179L26.7432 3.66729C26.3436 2.799 26.254 2.13214 26.4745 1.68063C26.6881 1.22911 27.1912 0.798439 27.9905 0.402495C28.7072 0.0412826 29.3204 -0.0768074 29.8304 0.0482275C30.3334 0.173262 30.7675 0.6734 31.1258 1.54864L39.1744 20.8249L47.0644 2.03489C47.4228 1.20133 47.85 0.603936 48.3324 0.235778C48.8216 -0.125434 49.5658 -0.055967 50.5719 0.451119C51.5435 0.923473 52.0328 1.45834 52.0328 2.05573C52.0328 2.65312 51.8674 3.29914 51.5435 3.98683L41.6 25.5554C41.4208 25.993 41.1314 26.3195 40.7386 26.5348C40.339 26.7501 39.8221 26.8613 39.1744 26.8613L39.1675 26.8682Z" fill="#D72D8A"/>
<path d="M76.2264 26.7076C75.434 26.7076 74.8552 26.5408 74.4968 26.2144C74.1385 25.8879 73.9387 25.3808 73.9042 24.6862L74.1178 21.9632C73.7595 22.5467 73.2013 23.2066 72.4433 23.9498C71.6853 24.6931 70.6862 25.3461 69.4458 25.9087C68.2055 26.4714 66.717 26.7562 64.9874 26.7562C63.2578 26.7562 61.6453 26.4089 60.15 25.7212C58.6547 25.0335 57.3385 24.0679 56.2084 22.8315C55.0715 21.595 54.1825 20.1849 53.5348 18.5803C52.887 16.9826 52.5632 15.2738 52.5632 13.4608C52.5632 11.6478 52.887 10.0015 53.5348 8.42467C54.1825 6.84784 55.0852 5.45856 56.236 4.25684C57.3868 3.05511 58.7098 2.11734 60.2052 1.4227C61.7005 0.735013 63.2923 0.387695 64.9874 0.387695C66.5723 0.387695 67.9229 0.596087 69.0393 1.01287C70.1556 1.42965 71.1203 1.97842 71.9265 2.64527C72.7397 3.31907 73.4494 4.06928 74.0627 4.90285L73.8973 2.61749C73.8973 1.81866 74.0834 1.24905 74.4624 0.901726C74.8414 0.554407 75.4409 0.387695 76.2747 0.387695C76.9569 0.387695 77.453 0.498838 77.7631 0.714176C78.0663 0.929514 78.2799 1.2421 78.3833 1.63805C78.4935 2.04094 78.5487 2.52718 78.5487 3.11068V24.1304C78.5487 24.6375 78.4935 25.096 78.3833 25.4919C78.273 25.8948 78.0594 26.1935 77.7355 26.388C77.4117 26.5895 76.9086 26.6867 76.2196 26.6867L76.2264 26.7076ZM65.7454 22.1855C67.2201 22.1855 68.5569 21.8034 69.7421 21.0393C70.9274 20.2752 71.8852 19.2541 72.6087 17.9621C73.3254 16.677 73.6906 15.1904 73.6906 13.5233C73.6906 11.8562 73.3185 10.321 72.5812 9.029C71.8438 7.74392 70.8722 6.72974 69.6663 6.00732C68.4604 5.28489 67.1167 4.91674 65.6421 4.91674C63.9814 4.91674 62.5343 5.29879 61.2939 6.06289C60.0536 6.82699 59.0682 7.86201 58.3515 9.16793C57.628 10.4738 57.2696 11.9604 57.2696 13.6345C57.2696 15.3085 57.628 16.7325 58.3515 18.0176C59.0682 19.3097 60.0742 20.3238 61.349 21.0671C62.6238 21.8104 64.0985 22.1855 65.7523 22.1855H65.7454Z" fill="#D72D8A"/>
<path d="M105.727 26.7076C104.934 26.7076 104.356 26.5408 103.997 26.2144C103.639 25.8879 103.439 25.3808 103.405 24.6862L103.618 21.9632C103.26 22.5467 102.702 23.2066 101.944 23.9498C101.186 24.6931 100.187 25.3461 98.9463 25.9087C97.7059 26.4714 96.2175 26.7562 94.4879 26.7562C92.7583 26.7562 91.1458 26.4089 89.6505 25.7212C88.1551 25.0335 86.839 24.0679 85.7089 22.8315C84.5719 21.595 83.683 20.1849 83.0352 18.5803C82.3875 16.9826 82.0636 15.2738 82.0636 13.4608C82.0636 11.6478 82.3875 10.0015 83.0352 8.42467C83.683 6.84784 84.5857 5.45856 85.7364 4.25684C86.8872 3.05511 88.2103 2.11734 89.7056 1.4227C91.2009 0.735013 92.7927 0.387695 94.4879 0.387695C96.0728 0.387695 97.4234 0.596087 98.5397 1.01287C99.656 1.42965 100.621 1.97842 101.427 2.64527C102.24 3.31907 102.95 4.06928 103.563 4.90285L103.398 2.61749C103.398 1.81866 103.584 1.24905 103.963 0.901726C104.342 0.554407 104.941 0.387695 105.775 0.387695C106.457 0.387695 106.953 0.498838 107.264 0.714176C107.567 0.929514 107.78 1.2421 107.884 1.63805C107.994 2.04094 108.049 2.52718 108.049 3.11068V24.1304C108.049 24.6375 107.994 25.096 107.884 25.4919C107.773 25.8948 107.56 26.1935 107.236 26.388C106.912 26.5895 106.409 26.6867 105.72 26.6867L105.727 26.7076ZM95.2458 22.1855C96.7205 22.1855 98.0573 21.8034 99.2426 21.0393C100.428 20.2752 101.386 19.2541 102.109 17.9621C102.826 16.677 103.191 15.1904 103.191 13.5233C103.191 11.8562 102.819 10.321 102.082 9.029C101.344 7.74392 100.373 6.72974 99.1668 6.00732C97.9609 5.28489 96.6171 4.91674 95.1425 4.91674C93.4818 4.91674 92.0347 5.29879 90.7943 6.06289C89.554 6.82699 88.5686 7.86201 87.8519 9.16793C87.1284 10.4738 86.7701 11.9604 86.7701 13.6345C86.7701 15.3085 87.1284 16.7325 87.8519 18.0176C88.5686 19.3097 89.5747 20.3238 90.8495 21.0671C92.1243 21.8104 93.5989 22.1855 95.2527 22.1855H95.2458Z" fill="#D72D8A"/>
<path d="M115.693 4.59456V0.854979H116.655L117.745 3.10407L118.824 0.854979H119.78V4.59456H118.979V2.20657L118.06 4.07102H117.419L116.495 2.20657V4.59456H115.693Z" fill="#D72D8A"/>
<path d="M113.522 4.59456V1.50139H112.438V0.854979H115.408V1.50139H114.324V4.59456H113.522Z" fill="#D72D8A"/>
</svg>
