<svg width="180" height="48" viewBox="0 0 180 48" fill="none" xmlns="http://www.w3.org/2000/svg">
<g clip-path="url(#clip0_15795_3246)">
<path d="M0.193359 32.7327V10.6938H3.8084L9.20235 25.9549C9.32222 26.318 9.44208 26.7102 9.56467 27.1286C9.68454 27.5469 9.80168 27.942 9.91065 28.3168C10.0196 28.6916 10.1068 29.0082 10.1667 29.2639H10.3465C10.4255 28.9646 10.5263 28.6102 10.6489 28.2035C10.7688 27.7968 10.8859 27.3958 10.9949 26.9978C11.1039 26.6027 11.2101 26.2541 11.3109 25.9549L16.7048 10.6938H20.2899V32.7327H17.909V19.0143C17.909 18.4798 17.9198 17.8726 17.9389 17.1986C17.958 16.5246 17.9743 15.8651 17.9852 15.2231C17.9961 14.581 18.0016 14.0871 18.0016 13.7443H17.7918C17.7101 14.0668 17.6066 14.4474 17.4758 14.886C17.345 15.3247 17.2143 15.7692 17.0835 16.2195C16.9528 16.6698 16.8274 17.0882 16.7076 17.4717L11.1638 32.7327H9.23504L3.7185 17.4717C3.59863 17.1289 3.47877 16.7541 3.35618 16.3474C3.23631 15.9406 3.11645 15.5107 2.99386 15.0633C2.87399 14.613 2.75412 14.1743 2.63153 13.7472H2.42177C2.44084 14.1772 2.45719 14.7117 2.46808 15.3538C2.47898 15.9958 2.48715 16.6379 2.49805 17.2799C2.50894 17.922 2.51439 18.5001 2.51439 19.0143V32.7327H0.193359Z" fill="#303030"/>
<path d="M28.2366 33.1191C27.6127 33.1191 27.0025 33.0378 26.3977 32.878C25.7957 32.7182 25.259 32.4596 24.785 32.1081C24.3137 31.7537 23.935 31.2772 23.6544 30.6788C23.3738 30.0803 23.2322 29.3395 23.2322 28.4621C23.2322 27.3058 23.4992 26.3587 24.0304 25.6179C24.5616 24.88 25.3108 24.3018 26.2751 23.8835C27.2395 23.4652 28.3782 23.1833 29.694 23.0323C31.0098 22.8812 32.44 22.8086 33.9874 22.8086V20.6558C33.9874 19.9702 33.873 19.3863 33.6414 18.904C33.4099 18.4217 33.0094 18.047 32.4373 17.7797C31.8652 17.5124 31.0561 17.3788 30.0128 17.3788C28.9694 17.3788 28.2148 17.5182 27.6318 17.7971C27.0488 18.076 26.6429 18.4333 26.4113 18.8749C26.1798 19.3136 26.0654 19.8017 26.0654 20.3363V20.8505H23.9868C23.9677 20.743 23.9568 20.6355 23.9568 20.528V20.1416C23.9568 19.0696 24.2183 18.1922 24.7414 17.5066C25.2644 16.821 26.0082 16.3067 26.9698 15.9639C27.9342 15.6211 29.0375 15.4497 30.2825 15.4497C31.5274 15.4497 32.6117 15.6473 33.4752 16.0453C34.3388 16.4404 35.0008 17.004 35.4639 17.7332C35.927 18.4624 36.1559 19.3398 36.1559 20.3682V32.7269L34.11 32.7356V30.3272H33.8975C33.5161 30.9054 33.0285 31.4022 32.4373 31.8205C31.8434 32.2389 31.1978 32.5584 30.4949 32.785C29.7921 33.0087 29.0375 33.122 28.2366 33.122V33.1191ZM28.6888 31.161C29.3508 31.161 29.9937 31.0448 30.6175 30.8066C31.2387 30.5713 31.8026 30.243 32.3038 29.8275C32.8051 29.4092 33.211 28.9124 33.5243 28.3343C33.8348 27.7561 33.9901 27.1141 33.9901 26.4052V24.6708C32.1213 24.6708 30.5603 24.7783 29.3045 24.9933C28.0486 25.2083 27.106 25.583 26.4713 26.1176C25.8393 26.6522 25.5232 27.4017 25.5232 28.3662C25.5232 29.0083 25.6595 29.5399 25.9292 29.9554C26.2016 30.3737 26.5775 30.6788 27.0597 30.8705C27.5419 31.0622 28.084 31.161 28.6861 31.161H28.6888Z" fill="#303030"/>
<path d="M38.4796 32.7325L44.2032 24.1215L38.6893 15.833H41.34L45.4972 22.2593H45.647L49.8041 15.833H52.275L46.8211 24.0257L52.5747 32.7325H49.9839L45.5244 25.8879H45.4045L40.975 32.7325H38.4741H38.4796Z" fill="#303030"/>
<path d="M55.7402 32.7325V15.833H57.9087V32.7325H55.7402Z" fill="#303030"/>
<path d="M62.8123 32.7327V15.8332H64.5286L64.7384 18.5001H64.9481C65.3894 17.7303 65.8716 17.1231 66.3947 16.6844C66.9177 16.2457 67.4898 15.929 68.1109 15.7373C68.7321 15.5456 69.3968 15.4468 70.0996 15.4468C71.1648 15.4468 72.0774 15.6763 72.8402 16.1382C73.603 16.6001 74.1451 17.3875 74.4665 18.5001H74.6463C75.0686 17.7506 75.5399 17.155 76.0629 16.7163C76.586 16.2777 77.1635 15.9552 77.7955 15.7518C78.4276 15.5485 79.095 15.4468 79.7978 15.4468C80.7404 15.4468 81.574 15.6182 82.2987 15.961C83.0206 16.3038 83.5899 16.8703 84.0013 17.6634C84.4127 18.4566 84.6197 19.5257 84.6197 20.8766V32.7327H82.4512V21.1352C82.4512 20.406 82.3668 19.8017 82.1951 19.3194C82.0235 18.8371 81.7892 18.4682 81.4868 18.2096C81.1845 17.954 80.833 17.7709 80.4326 17.6634C80.0294 17.556 79.599 17.5037 79.1358 17.5037C78.3731 17.5037 77.6648 17.7128 77.011 18.1312C76.3571 18.5495 75.8259 19.1422 75.4146 19.915C75.0032 20.6849 74.7962 21.629 74.7962 22.7417V32.7327H72.6277V21.1352C72.6277 20.406 72.546 19.8017 72.388 19.3194C72.2272 18.8371 71.9957 18.4682 71.696 18.2096C71.3936 17.954 71.0476 17.7709 70.6554 17.6634C70.2631 17.556 69.8463 17.5037 69.4049 17.5037C68.6422 17.5037 67.923 17.7128 67.2501 18.1312C66.5772 18.5495 66.0296 19.1422 65.6074 19.915C65.1851 20.6849 64.9754 21.629 64.9754 22.7417V32.7327H62.8069H62.8123Z" fill="#303030"/>
<path d="M88.7195 32.7327V10.6938H103.667V12.8786H91.0978V20.3333H102.341V22.55H91.0978V30.5509H103.847V32.7356H88.7168L88.7195 32.7327Z" fill="#303030"/>
<path d="M107.525 38.5807C107.143 38.5807 106.806 38.5545 106.517 38.4993C106.225 38.4441 105.991 38.4093 105.809 38.386V36.6516H106.983C107.506 36.6516 108.007 36.5558 108.489 36.3611C108.971 36.1694 109.424 35.7888 109.846 35.2194C110.268 34.6529 110.65 33.822 110.99 32.7296L104.844 15.8301H107.133L110.385 24.8275C110.546 25.2342 110.72 25.7426 110.914 26.3527C111.104 26.9628 111.306 27.5845 111.516 28.2149C111.726 28.8483 111.903 29.409 112.042 29.9029H112.221C112.3 29.56 112.407 29.1649 112.537 28.7146C112.668 28.2643 112.804 27.8053 112.943 27.3318C113.085 26.8611 113.218 26.4108 113.349 25.9837C113.48 25.5567 113.594 25.1819 113.695 24.8594L116.496 15.8301H118.694L113.27 32.4391C112.968 33.3804 112.646 34.2258 112.306 34.9782C111.965 35.7278 111.579 36.3698 111.145 36.9044C110.712 37.4389 110.2 37.8515 109.609 38.142C109.015 38.4325 108.318 38.5749 107.514 38.5749L107.525 38.5807Z" fill="#303030"/>
<path d="M127.226 33.1191C125.72 33.1191 124.445 32.8025 123.402 32.172C122.358 31.5416 121.563 30.5713 121.021 29.2639C120.478 27.9566 120.206 26.2977 120.206 24.2844C120.206 22.2711 120.478 20.5861 121.021 19.2875C121.563 17.9918 122.366 17.0272 123.432 16.3968C124.497 15.7664 125.821 15.4497 127.409 15.4497C128.875 15.4497 130.106 15.7606 131.1 16.3823C132.095 17.004 132.846 17.9046 133.359 19.0812C133.871 20.2607 134.127 21.7046 134.127 23.4187V24.8974H122.467C122.467 26.3762 122.658 27.5847 123.039 28.5289C123.421 29.4731 123.968 30.15 124.682 30.5684C125.396 30.9867 126.273 31.1959 127.319 31.1959C128.082 31.1959 128.749 31.0884 129.321 30.8734C129.893 30.6584 130.365 30.365 130.738 29.9902C131.108 29.6155 131.394 29.171 131.596 28.6567C131.798 28.1425 131.898 27.608 131.898 27.0502H134.007C134.007 27.884 133.86 28.6713 133.571 29.4121C133.28 30.15 132.857 30.8008 132.307 31.3557C131.754 31.9135 131.057 32.3463 130.212 32.6572C129.368 32.9681 128.373 33.122 127.229 33.122L127.226 33.1191ZM122.467 23.0642H131.866C131.866 21.9922 131.751 21.1003 131.52 20.3798C131.288 19.6622 130.972 19.0841 130.572 18.6454C130.169 18.2067 129.692 17.8901 129.141 17.6983C128.588 17.5066 127.97 17.4078 127.289 17.4078C126.306 17.4078 125.461 17.6054 124.758 18.0034C124.055 18.3985 123.519 19.0144 123.145 19.8511C122.775 20.6878 122.549 21.7569 122.467 23.0642Z" fill="#303030"/>
<path d="M143.286 33.1191C142.242 33.1191 141.316 33.0058 140.515 32.7821C139.711 32.5584 139.044 32.2243 138.513 31.7856C137.982 31.347 137.578 30.8182 137.309 30.1965C137.036 29.5748 136.903 28.8572 136.903 28.0437V27.7707C136.903 27.6748 136.914 27.5847 136.933 27.4976H139.071C139.052 27.6051 139.041 27.6951 139.041 27.7707V27.9798C139.06 28.8165 139.251 29.4644 139.613 29.9234C139.976 30.3853 140.488 30.7107 141.15 30.9025C141.812 31.0942 142.575 31.193 143.438 31.193C144.182 31.193 144.849 31.0797 145.441 30.856C146.032 30.6323 146.506 30.304 146.857 29.8769C147.209 29.4499 147.386 28.924 147.386 28.3023C147.386 27.5092 147.16 26.9107 146.707 26.504C146.255 26.0973 145.667 25.7806 144.945 25.5569C144.223 25.3332 143.468 25.0921 142.686 24.8335C142.043 24.6418 141.411 24.4326 140.788 24.206C140.164 23.9823 139.597 23.6976 139.085 23.3548C138.573 23.0119 138.167 22.5733 137.864 22.0387C137.562 21.5041 137.412 20.8301 137.412 20.0138C137.412 19.3078 137.548 18.6745 137.818 18.1167C138.091 17.5589 138.48 17.0824 138.992 16.6873C139.504 16.2922 140.131 15.9872 140.875 15.7722C141.618 15.5572 142.46 15.4497 143.406 15.4497C144.449 15.4497 145.342 15.5775 146.086 15.8361C146.83 16.0947 147.432 16.4404 147.892 16.8791C148.355 17.3177 148.696 17.8116 148.917 18.3578C149.137 18.904 149.249 19.4763 149.249 20.0777C149.249 20.1648 149.244 20.2607 149.233 20.3682C149.222 20.4757 149.219 20.5716 149.219 20.6587H147.081V20.2404C147.081 19.7901 146.974 19.3514 146.764 18.9243C146.555 18.4973 146.182 18.1312 145.65 17.832C145.119 17.5327 144.329 17.3817 143.286 17.3817C142.662 17.3817 142.125 17.4398 141.673 17.5589C141.221 17.678 140.839 17.8436 140.529 18.0557C140.218 18.2707 139.987 18.5321 139.837 18.843C139.687 19.1538 139.611 19.5112 139.611 19.9208C139.611 20.5425 139.796 21.019 140.169 21.3502C140.54 21.6814 141.027 21.9486 141.629 22.152C142.231 22.3554 142.874 22.5762 143.558 22.8115C144.242 23.0265 144.939 23.2502 145.653 23.4855C146.367 23.7208 147.023 24.0113 147.625 24.3541C148.227 24.697 148.71 25.1531 149.072 25.7196C149.434 26.2861 149.614 27.0327 149.614 27.9537C149.614 28.8107 149.453 29.5661 149.132 30.2197C148.81 30.8734 148.369 31.4138 147.805 31.8408C147.244 32.2708 146.574 32.5904 145.803 32.8054C145.029 33.0203 144.19 33.1278 143.288 33.1278L143.286 33.1191Z" fill="#303030"/>
<path d="M56.7126 13.5034C53.0649 13.5034 50.8828 10.4355 50.8828 7.47217C50.8828 5.42982 52.5037 2.51881 55.6992 2.51881C58.2219 2.51881 59.3061 3.90168 59.2598 5.64771C59.2107 7.47508 58.0802 8.63425 56.6282 8.63425C55.3914 8.63425 54.0102 7.53609 53.9911 5.65061C53.9911 5.36009 54.0838 4.75 54.2717 4.3607C54.2935 4.31422 54.2854 4.25902 54.2499 4.22125C54.2282 4.19801 54.2009 4.18639 54.1737 4.18639C54.1546 4.18639 54.1355 4.1922 54.1192 4.20092C53.0867 4.8081 52.6045 6.46116 52.6045 7.38502C52.6045 10.2466 55.0999 11.3128 56.6718 11.3128C59.0773 11.3128 61.51 9.46804 61.51 5.93823C61.51 2.40841 59.3769 0.383486 55.6066 0.029052C55.8027 0.0116208 56.0125 0 56.2277 0C60.3386 0 63.3434 2.49266 63.3434 6.34786C63.3434 9.68884 61.0224 13.5034 56.7126 13.5034ZM56.6255 3.96269C55.7483 3.96269 55.0372 4.72095 55.0372 5.65061C55.0372 6.58028 55.751 7.33853 56.6255 7.33853C57.4999 7.33853 58.2137 6.58028 58.2137 5.65061C58.2137 4.72095 57.4999 3.96269 56.6255 3.96269Z" fill="#D72D8A"/>
<path d="M149.854 14.9355C149.54 14.9355 149.249 14.8774 148.985 14.7641C148.72 14.6479 148.489 14.4881 148.293 14.2819C148.097 14.0756 147.944 13.8316 147.838 13.5469C147.729 13.2651 147.677 12.9542 147.677 12.6201C147.677 12.286 147.731 11.9752 147.838 11.6933C147.947 11.4115 148.097 11.1675 148.293 10.9583C148.489 10.7521 148.718 10.5923 148.985 10.4761C149.249 10.3599 149.54 10.3018 149.854 10.3018C150.167 10.3018 150.456 10.3599 150.723 10.4761C150.987 10.5923 151.216 10.7521 151.412 10.9583C151.605 11.1646 151.758 11.4086 151.864 11.6933C151.973 11.9752 152.025 12.286 152.025 12.6201C152.025 12.9542 151.97 13.2651 151.864 13.5469C151.755 13.8287 151.605 14.0756 151.412 14.2819C151.218 14.4881 150.99 14.6508 150.723 14.7641C150.458 14.8804 150.167 14.9355 149.854 14.9355ZM149.854 14.5521C150.2 14.5521 150.507 14.4678 150.774 14.3022C151.041 14.1337 151.251 13.9042 151.406 13.6137C151.562 13.3232 151.638 12.9891 151.638 12.6143C151.638 12.2395 151.562 11.9141 151.406 11.6236C151.251 11.3331 151.041 11.1036 150.774 10.938C150.507 10.7724 150.2 10.6911 149.854 10.6911C149.508 10.6911 149.197 10.7753 148.927 10.9409C148.655 11.1094 148.445 11.336 148.293 11.6265C148.14 11.917 148.064 12.2453 148.064 12.6143C148.064 12.9833 148.14 13.3203 148.295 13.6137C148.451 13.9042 148.663 14.1337 148.933 14.3022C149.203 14.4707 149.51 14.5521 149.856 14.5521H149.854ZM148.925 13.9565V11.2692H150.123C150.385 11.2692 150.581 11.3447 150.717 11.4929C150.851 11.644 150.919 11.8386 150.919 12.0826C150.919 12.257 150.883 12.408 150.813 12.5388C150.742 12.6695 150.638 12.7712 150.505 12.8467L151.025 13.9565H150.45L149.998 12.9455H149.467V13.9565H148.927H148.925ZM149.461 12.4894H150.025C150.126 12.4894 150.211 12.4545 150.276 12.3848C150.341 12.3151 150.374 12.2192 150.374 12.0972C150.374 11.9752 150.341 11.8822 150.279 11.8212C150.216 11.7573 150.132 11.7253 150.025 11.7253H149.461V12.4894Z" fill="#303030"/>
<path d="M65.847 47.5C64.9916 47.5 64.2316 47.3489 63.5614 47.0439C62.8912 46.7417 62.3246 46.3263 61.8642 45.8034C61.4038 45.2804 61.0442 44.6762 60.7963 43.9934C60.5457 43.3107 60.4231 42.5728 60.4231 41.7855C60.4231 40.7367 60.6519 39.8041 61.1069 38.9849C61.5618 38.1656 62.1966 37.5148 63.0084 37.0384C63.8202 36.559 64.7464 36.3208 65.7844 36.3208C66.4954 36.3208 67.1328 36.4399 67.6968 36.6723C68.2579 36.9077 68.7401 37.2243 69.1379 37.6165C69.5356 38.0116 69.8434 38.4532 70.0559 38.9384C70.2684 39.4236 70.3774 39.9116 70.3774 40.3968C70.3774 41.1725 70.2058 41.7187 69.8652 42.0353C69.5247 42.3549 69.1025 42.5147 68.6039 42.5147H62.4308C62.4172 43.1684 62.5834 43.732 62.9321 44.2113C63.2808 44.6907 63.7221 45.0567 64.2561 45.3153C64.79 45.5739 65.3267 45.7017 65.8688 45.7017C66.2529 45.7017 66.5907 45.6784 66.8822 45.632C67.1737 45.5855 67.4271 45.5274 67.6395 45.4489C67.852 45.3734 68.0346 45.2979 68.1844 45.2223C68.3342 45.1468 68.4732 45.0713 68.6012 44.9957C68.7292 44.9202 68.8491 44.8679 68.9635 44.8359C69.0779 44.8069 69.1978 44.8185 69.3258 44.8708C69.4539 44.9231 69.552 45.0277 69.6255 45.1788C69.71 45.3008 69.7672 45.4141 69.7971 45.5216C69.8244 45.6291 69.8407 45.7424 69.8407 45.8644C69.8407 46.091 69.6691 46.3321 69.3286 46.582C68.988 46.8318 68.514 47.0497 67.9092 47.2298C67.3045 47.4129 66.618 47.5029 65.847 47.5029V47.5ZM62.4308 41.1434H67.7921C68.0482 41.1434 68.2471 41.1057 68.3914 41.0301C68.5331 40.9546 68.6039 40.7483 68.6039 40.4142C68.6039 40.0046 68.4841 39.624 68.2416 39.2754C67.9991 38.9268 67.6695 38.645 67.2473 38.4329C66.8277 38.2208 66.3401 38.1133 65.7844 38.1133C65.1714 38.1133 64.6048 38.2469 64.0872 38.5113C63.5668 38.7786 63.1582 39.1388 62.8585 39.5921C62.5589 40.0453 62.4172 40.5653 62.4308 41.1405V41.1434Z" fill="#D72D8A"/>
<path d="M75.9075 47.4305C75.6651 47.4305 75.4662 47.3927 75.3082 47.3172C75.1502 47.2417 75.0303 47.1051 74.9459 46.9076L70.9958 37.7271C70.8377 37.364 70.8023 37.0851 70.8895 36.8963C70.974 36.7074 71.1728 36.5273 71.4888 36.3617C71.7722 36.2106 72.0146 36.1612 72.2162 36.2135C72.4151 36.2658 72.5867 36.475 72.7284 36.8411L75.9102 44.903L79.0295 37.0444C79.1711 36.6958 79.34 36.4459 79.5307 36.292C79.7242 36.1409 80.0184 36.17 80.4161 36.382C80.8002 36.5796 80.9936 36.8033 80.9936 37.0531C80.9936 37.303 80.9283 37.5732 80.8002 37.8608L76.8692 46.8814C76.7983 47.0644 76.6839 47.201 76.5286 47.2911C76.3706 47.3811 76.1663 47.4276 75.9102 47.4276L75.9075 47.4305Z" fill="#D72D8A"/>
<path d="M90.5583 47.3638C90.2451 47.3638 90.0162 47.294 89.8746 47.1575C89.7329 47.0209 89.6539 46.8089 89.6403 46.5183L89.7247 45.3795C89.5831 45.6235 89.3624 45.8995 89.0627 46.2104C88.7631 46.5212 88.3681 46.7943 87.8777 47.0297C87.3873 47.265 86.7989 47.3841 86.1151 47.3841C85.4314 47.3841 84.7939 47.2388 84.2027 46.9512C83.6116 46.6636 83.0913 46.2598 82.6445 45.7427C82.195 45.2255 81.8436 44.6358 81.5875 43.9647C81.3314 43.2965 81.2034 42.5818 81.2034 41.8235C81.2034 41.0653 81.3314 40.3768 81.5875 39.7173C81.8436 39.0578 82.2004 38.4768 82.6554 37.9742C83.1103 37.4716 83.6334 37.0794 84.2245 36.7888C84.8157 36.5012 85.445 36.356 86.1151 36.356C86.7417 36.356 87.2757 36.4431 87.717 36.6174C88.1583 36.7917 88.5397 37.0212 88.8584 37.3001C89.1799 37.582 89.4605 37.8957 89.7029 38.2443L89.6376 37.2885C89.6376 36.9544 89.7111 36.7162 89.8609 36.5709C90.0108 36.4257 90.2478 36.356 90.5774 36.356C90.8471 36.356 91.0432 36.4024 91.1658 36.4925C91.2857 36.5826 91.3702 36.7133 91.411 36.8789C91.4546 37.0474 91.4764 37.2508 91.4764 37.4948V46.2859C91.4764 46.498 91.4546 46.6897 91.411 46.8553C91.3674 47.0238 91.283 47.1488 91.1549 47.2301C91.0269 47.3144 90.828 47.355 90.5556 47.355L90.5583 47.3638ZM86.4148 45.4725C86.9978 45.4725 87.5263 45.3127 87.9949 44.9931C88.4634 44.6735 88.8421 44.2465 89.1281 43.7061C89.4114 43.1686 89.5558 42.5469 89.5558 41.8497C89.5558 41.1524 89.4087 40.5104 89.1172 39.97C88.8257 39.4326 88.4416 39.0084 87.9649 38.7063C87.4881 38.4041 86.9569 38.2501 86.3739 38.2501C85.7174 38.2501 85.1453 38.4099 84.655 38.7295C84.1646 39.0491 83.775 39.482 83.4917 40.0281C83.2057 40.5743 83.064 41.196 83.064 41.8962C83.064 42.5963 83.2057 43.1919 83.4917 43.7294C83.775 44.2697 84.1728 44.6939 84.6767 45.0047C85.1807 45.3156 85.7637 45.4725 86.4175 45.4725H86.4148Z" fill="#D72D8A"/>
<path d="M102.221 47.3638C101.907 47.3638 101.679 47.294 101.537 47.1575C101.395 47.0209 101.316 46.8089 101.303 46.5183L101.387 45.3795C101.245 45.6235 101.025 45.8995 100.725 46.2104C100.425 46.5212 100.03 46.7943 99.5401 47.0297C99.0497 47.265 98.4613 47.3841 97.7775 47.3841C97.0937 47.3841 96.4562 47.2388 95.8651 46.9512C95.2739 46.6636 94.7536 46.2598 94.3068 45.7427C93.8573 45.2255 93.5059 44.6358 93.2498 43.9647C92.9938 43.2965 92.8657 42.5818 92.8657 41.8235C92.8657 41.0653 92.9938 40.3768 93.2498 39.7173C93.5059 39.0578 93.8628 38.4768 94.3177 37.9742C94.7727 37.4716 95.2957 37.0794 95.8869 36.7888C96.478 36.5012 97.1073 36.356 97.7775 36.356C98.4041 36.356 98.938 36.4431 99.3793 36.6174C99.8206 36.7917 100.202 37.0212 100.521 37.3001C100.842 37.582 101.123 37.8957 101.365 38.2443L101.3 37.2885C101.3 36.9544 101.373 36.7162 101.523 36.5709C101.673 36.4257 101.91 36.356 102.24 36.356C102.509 36.356 102.706 36.4024 102.828 36.4925C102.948 36.5826 103.032 36.7133 103.073 36.8789C103.117 37.0474 103.139 37.2508 103.139 37.4948V46.2859C103.139 46.498 103.117 46.6897 103.073 46.8553C103.03 47.0238 102.945 47.1488 102.817 47.2301C102.689 47.3144 102.49 47.355 102.218 47.355L102.221 47.3638ZM98.0771 45.4725C98.6601 45.4725 99.1886 45.3127 99.6572 44.9931C100.126 44.6735 100.504 44.2465 100.79 43.7061C101.074 43.1686 101.218 42.5469 101.218 41.8497C101.218 41.1524 101.071 40.5104 100.78 39.97C100.488 39.4326 100.104 39.0084 99.6272 38.7063C99.1505 38.4041 98.6193 38.2501 98.0363 38.2501C97.3797 38.2501 96.8077 38.4099 96.3173 38.7295C95.8269 39.0491 95.4374 39.482 95.1541 40.0281C94.868 40.5743 94.7264 41.196 94.7264 41.8962C94.7264 42.5963 94.868 43.1919 95.1541 43.7294C95.4374 44.2697 95.8351 44.6939 96.3391 45.0047C96.8431 45.3156 97.4261 45.4725 98.0799 45.4725H98.0771Z" fill="#D72D8A"/>
<path d="M0 45.0628V37.0474H3.15464C3.6668 37.0474 4.07543 37.149 4.38599 37.3524C4.69655 37.5558 4.92539 37.8289 5.07522 38.1775C5.22505 38.5232 5.2986 38.9241 5.2986 39.3744C5.2986 39.8247 5.21143 40.2576 5.03436 40.6237C4.86001 40.9897 4.61483 41.2773 4.30154 41.4894C3.98826 41.6986 3.62593 41.8061 3.2173 41.8061H0.67833V45.0657H0V45.0628ZM0.67833 41.1611H3.12195C3.58235 41.1611 3.94467 41.0013 4.21164 40.6818C4.47861 40.3622 4.6121 39.9351 4.6121 39.3977C4.6121 39.0461 4.56034 38.744 4.45955 38.4854C4.35603 38.2298 4.1953 38.0351 3.97736 37.9015C3.75942 37.7679 3.47338 37.7039 3.12195 37.7039H0.67833V41.1611Z" fill="#303030"/>
<path d="M8.63294 45.2051C8.02544 45.2051 7.51601 45.0889 7.0992 44.8536C6.6824 44.6212 6.36911 44.2638 6.15662 43.7845C5.94414 43.3051 5.83789 42.7066 5.83789 41.992C5.83789 41.2773 5.94414 40.6672 6.15662 40.1936C6.36911 39.7172 6.6824 39.3628 7.0992 39.1303C7.51601 38.8979 8.02816 38.7788 8.63294 38.7788C9.23772 38.7788 9.74987 38.895 10.1612 39.1303C10.5726 39.3628 10.8886 39.7172 11.1038 40.1936C11.319 40.6701 11.428 41.2686 11.428 41.992C11.428 42.7154 11.319 43.3051 11.1038 43.7845C10.8886 44.2638 10.5753 44.6212 10.1612 44.8536C9.74987 45.086 9.24044 45.2051 8.63294 45.2051ZM8.63294 44.595C9.04974 44.595 9.41751 44.5108 9.73352 44.3452C10.0523 44.1767 10.2947 43.9152 10.4663 43.5579C10.638 43.2005 10.7251 42.7241 10.7251 42.1314V41.838C10.7251 41.2453 10.638 40.7718 10.4663 40.4115C10.2947 40.0542 10.0495 39.7956 9.73352 39.6358C9.41479 39.4761 9.04974 39.3976 8.63294 39.3976C8.21613 39.3976 7.84019 39.479 7.52691 39.6358C7.21362 39.7956 6.96844 40.0542 6.79409 40.4115C6.61974 40.7689 6.53257 41.2453 6.53257 41.838V42.1314C6.53257 42.7241 6.61974 43.1976 6.79409 43.5579C6.96844 43.9152 7.21362 44.1796 7.52691 44.3452C7.84019 44.5137 8.21069 44.595 8.63294 44.595Z" fill="#303030"/>
<path d="M13.7873 45.0625L11.9021 38.918H12.6022L13.632 42.3868C13.7055 42.5901 13.7682 42.7964 13.8172 43.0114C13.869 43.2264 13.9153 43.4152 13.9589 43.5837C14.0025 43.7522 14.0352 43.8888 14.057 43.9992H14.1223C14.1523 43.8597 14.1904 43.6912 14.2368 43.4966C14.2831 43.3019 14.3348 43.1073 14.3839 42.9126C14.4356 42.718 14.4792 42.5437 14.5146 42.3868L15.479 38.918H16.19L17.1435 42.3868C17.1953 42.5814 17.247 42.7819 17.3015 42.9882C17.356 43.1944 17.4023 43.3862 17.4377 43.5605C17.4731 43.7348 17.5058 43.883 17.5358 43.9992H17.5903C17.6339 43.8597 17.6802 43.6941 17.7319 43.5024C17.7837 43.3106 17.8354 43.1189 17.8845 42.9242C17.9362 42.7296 17.9826 42.5553 18.0261 42.3984L19.0668 38.918H19.7015L17.8273 45.0625H17.2252L16.2282 41.5326C16.1846 41.3845 16.1383 41.2131 16.0919 41.0184C16.0456 40.8238 15.9966 40.632 15.9503 40.4461C15.904 40.2602 15.8604 40.0946 15.825 39.9551H15.7705C15.7269 40.0946 15.6833 40.2602 15.6397 40.4519C15.5961 40.6437 15.5498 40.8325 15.5035 41.0242C15.4572 41.216 15.4136 41.3845 15.3782 41.5326L14.392 45.0625H13.7791H13.7873Z" fill="#303030"/>
<path d="M22.9952 45.2051C22.3959 45.2051 21.8865 45.0889 21.467 44.8594C21.0474 44.6299 20.7314 44.2754 20.5189 43.7961C20.3064 43.3167 20.2002 42.7154 20.2002 41.992C20.2002 41.2686 20.3092 40.6585 20.5244 40.1878C20.7396 39.7172 21.0529 39.3628 21.467 39.1303C21.8783 38.8979 22.3959 38.7788 23.017 38.7788C23.6382 38.7788 24.1367 38.8979 24.5344 39.1362C24.9322 39.3744 25.2291 39.7056 25.4225 40.1297C25.6159 40.5539 25.714 41.0478 25.714 41.6085V42.1924H20.903C20.903 42.7764 20.9929 43.247 21.1727 43.6014C21.3525 43.9559 21.6032 44.2115 21.9219 44.3655C22.2434 44.5224 22.6111 44.5979 23.0279 44.5979C23.3794 44.5979 23.6763 44.5485 23.9215 44.4527C24.1667 44.3568 24.3655 44.2319 24.5181 44.0779C24.6706 43.9268 24.7905 43.7554 24.875 43.5637C24.9594 43.3719 25.0057 43.1918 25.0112 43.0204H25.6568C25.6486 43.2761 25.5941 43.5346 25.4934 43.7903C25.3898 44.0459 25.2346 44.2813 25.0275 44.4904C24.8205 44.6996 24.548 44.871 24.2102 45.0047C23.8724 45.1383 23.4693 45.2022 22.9952 45.2022V45.2051ZM20.903 41.5939H25.0221C25.0221 41.1727 24.9676 40.8241 24.8586 40.5423C24.7496 40.2605 24.5998 40.0368 24.4146 39.8654C24.2293 39.6939 24.0087 39.5719 23.758 39.4964C23.5074 39.4238 23.2404 39.386 22.9626 39.386C22.5621 39.386 22.2134 39.4644 21.9165 39.6184C21.6195 39.7753 21.3825 40.0135 21.2054 40.336C21.0256 40.6585 20.9248 41.0768 20.903 41.591V41.5939Z" fill="#303030"/>
<path d="M26.9588 45.0628V38.9183H27.4737L27.539 40.0397H27.5935C27.6289 39.8683 27.7025 39.6823 27.806 39.4848C27.9123 39.2872 28.0675 39.1187 28.2773 38.9822C28.4843 38.8456 28.7404 38.7788 29.0374 38.7788C29.1545 38.7788 29.2607 38.7846 29.3561 38.7962C29.4514 38.8079 29.525 38.8253 29.574 38.8485V39.4673H29.2117C28.9039 39.4673 28.6478 39.5342 28.4408 39.6649C28.2337 39.7985 28.0675 39.9699 27.9477 40.1791C27.8278 40.3883 27.7406 40.6178 27.6889 40.8676C27.6371 41.1175 27.6126 41.3586 27.6126 41.591V45.0599H26.9561L26.9588 45.0628Z" fill="#303030"/>
<path d="M32.8678 45.2051C32.2685 45.2051 31.759 45.0889 31.3395 44.8594C30.92 44.6299 30.604 44.2754 30.3915 43.7961C30.179 43.3167 30.0728 42.7154 30.0728 41.992C30.0728 41.2686 30.1817 40.6585 30.3969 40.1878C30.6121 39.7172 30.9254 39.3628 31.3395 39.1303C31.7509 38.8979 32.2685 38.7788 32.8896 38.7788C33.5107 38.7788 34.0093 38.8979 34.407 39.1362C34.8047 39.3744 35.1017 39.7056 35.2951 40.1297C35.4885 40.5539 35.5866 41.0478 35.5866 41.6085V42.1924H30.7756C30.7756 42.7764 30.8655 43.247 31.0453 43.6014C31.2251 43.9559 31.4757 44.2115 31.7945 44.3655C32.1159 44.5224 32.4837 44.5979 32.9005 44.5979C33.2519 44.5979 33.5489 44.5485 33.794 44.4527C34.0392 44.3568 34.2381 44.2319 34.3906 44.0779C34.5432 43.9268 34.6631 43.7554 34.7475 43.5637C34.832 43.3719 34.8783 43.1918 34.8837 43.0204H35.5294C35.5212 43.2761 35.4667 43.5346 35.3659 43.7903C35.2624 44.0459 35.1071 44.2813 34.9001 44.4904C34.693 44.6996 34.4206 44.871 34.0828 45.0047C33.745 45.1383 33.3418 45.2022 32.8678 45.2022V45.2051ZM30.7756 41.5939H34.8946C34.8946 41.1727 34.8401 40.8241 34.7312 40.5423C34.6222 40.2605 34.4724 40.0368 34.2871 39.8654C34.1019 39.6939 33.8812 39.5719 33.6306 39.4964C33.38 39.4238 33.113 39.386 32.8351 39.386C32.4347 39.386 32.086 39.4644 31.789 39.6184C31.4921 39.7753 31.2551 40.0135 31.078 40.336C30.8982 40.6585 30.7974 41.0768 30.7756 41.591V41.5939Z" fill="#303030"/>
<path d="M39.0736 45.205C38.5342 45.205 38.0792 45.0887 37.7088 44.8534C37.341 44.621 37.0577 44.2637 36.8642 43.7843C36.6708 43.305 36.5728 42.692 36.5728 41.9453C36.5728 41.2365 36.6708 40.6496 36.8697 40.1819C37.0658 39.7141 37.3546 39.3626 37.7305 39.1302C38.1065 38.8978 38.5614 38.7787 39.0954 38.7787C39.3732 38.7787 39.6321 38.8135 39.8745 38.8832C40.117 38.953 40.3376 39.0605 40.5365 39.2057C40.7381 39.351 40.9097 39.5427 41.0568 39.7839H41.1331V36.6172H41.7896V45.0655H41.2748L41.1876 44.1068H41.1113C40.8934 44.4816 40.6046 44.7576 40.2504 44.9377C39.8963 45.1178 39.504 45.205 39.0736 45.205ZM39.139 44.5832C39.5694 44.5832 39.9317 44.4932 40.2232 44.3131C40.5147 44.1329 40.7408 43.8598 40.8961 43.4909C41.0541 43.1219 41.1331 42.6542 41.1331 42.0935V41.8727C41.1331 41.373 41.0786 40.9663 40.9696 40.6467C40.8607 40.3271 40.7136 40.0773 40.531 39.8943C40.3485 39.7112 40.1415 39.5805 39.9126 39.5021C39.6838 39.4236 39.4386 39.3858 39.1853 39.3858C38.7984 39.3858 38.4606 39.4701 38.1719 39.6357C37.8831 39.8042 37.6597 40.0657 37.5044 40.4172C37.3464 40.7716 37.2702 41.2481 37.2702 41.8495V42.1313C37.2702 42.7384 37.3492 43.2207 37.5099 43.5809C37.6706 43.9383 37.894 44.1969 38.1773 44.3508C38.4634 44.5077 38.7848 44.5832 39.1417 44.5832H39.139Z" fill="#303030"/>
<path d="M49.1203 45.205C48.6817 45.205 48.2921 45.1149 47.9543 44.9377C47.6138 44.7576 47.3305 44.4816 47.1044 44.1068H47.039L46.9627 45.0655H46.4587V36.6172H47.1153V39.7839H47.1807C47.3278 39.5427 47.5048 39.351 47.7119 39.2057C47.9189 39.0605 48.1478 38.9559 48.3957 38.8832C48.6436 38.8135 48.8996 38.7787 49.1612 38.7787C49.6951 38.7787 50.1446 38.8949 50.5097 39.1302C50.8747 39.3626 51.1553 39.7141 51.3542 40.1819C51.5503 40.6496 51.6511 41.2365 51.6511 41.9453C51.6511 42.692 51.553 43.3079 51.3542 43.7843C51.158 44.2637 50.872 44.621 50.4988 44.8534C50.1255 45.0858 49.6651 45.205 49.1176 45.205H49.1203ZM49.0658 44.5832C49.4309 44.5832 49.755 44.5048 50.0411 44.3508C50.3271 44.1939 50.5478 43.9383 50.7085 43.5809C50.8693 43.2236 50.9483 42.7384 50.9483 42.1313V41.8495C50.9483 41.251 50.872 40.7716 50.7194 40.4172C50.5669 40.0628 50.3462 39.8013 50.0629 39.6357C49.7768 39.4672 49.4418 39.3858 49.0549 39.3858C48.7988 39.3858 48.5591 39.4236 48.333 39.5021C48.1069 39.5805 47.8999 39.7112 47.7146 39.8943C47.5294 40.0773 47.3795 40.3271 47.2706 40.6467C47.1616 40.9663 47.1071 41.3759 47.1071 41.8727V42.0935C47.1071 42.6542 47.1834 43.119 47.3359 43.4909C47.4885 43.8598 47.7146 44.1358 48.0088 44.3131C48.3058 44.4932 48.6572 44.5832 49.0658 44.5832Z" fill="#303030"/>
<path d="M53.0704 47.2007C52.9533 47.2007 52.8416 47.1949 52.7354 47.1832C52.6291 47.1716 52.5283 47.1571 52.433 47.1426V46.6051H52.8716C53.1576 46.6051 53.4001 46.5644 53.6044 46.4831C53.8087 46.4017 53.9885 46.2507 54.1411 46.027C54.2936 45.8062 54.4434 45.4837 54.5906 45.0624L52.0815 38.9179H52.7926L54.152 42.2822C54.2173 42.439 54.2936 42.6337 54.3808 42.8661C54.468 43.0985 54.5579 43.3368 54.6505 43.5721C54.7404 43.8103 54.8248 44.0224 54.8984 44.2083H54.9638C55.0074 44.0834 55.0564 43.9352 55.1109 43.7638C55.1654 43.5924 55.2226 43.4152 55.2798 43.2322C55.337 43.0491 55.3996 42.869 55.4596 42.6947C55.5222 42.5204 55.574 42.3606 55.6176 42.2212L56.7672 38.915H57.4564L55.2444 45.0857C55.119 45.4372 54.9937 45.7452 54.8602 46.0095C54.7295 46.2739 54.5824 46.4976 54.4216 46.6748C54.2609 46.8549 54.0702 46.9857 53.8523 47.0728C53.6343 47.1571 53.3701 47.2007 53.0623 47.2007H53.0704Z" fill="#303030"/>
<path d="M151.9 32.7328L159.661 7.11768H162.249L170.01 32.7328H167.738L165.534 25.2374H156.234L154.03 32.7328H151.897H151.9ZM156.866 23.2241H164.908L162.287 14.4243C162.241 14.1773 162.159 13.8723 162.042 13.512C161.925 13.1518 161.808 12.7538 161.693 12.318C161.576 11.8822 161.454 11.4493 161.325 11.0135C161.197 10.5778 161.099 10.1885 161.029 9.83985H160.783C160.691 10.2117 160.563 10.6794 160.399 11.2372C160.236 11.795 160.072 12.3616 159.909 12.9339C159.745 13.5062 159.593 14.003 159.454 14.4243L156.866 23.2241Z" fill="#303030"/>
<path d="M180 8.98555V7.15527H177.107H174.87H171.977V8.98555H174.87V30.9024H171.977V32.7326H174.87H177.107H180V30.9024H177.107V8.98555H180Z" fill="#303030"/>
</g>
<defs>
<clipPath id="clip0_15795_3246">
<rect width="180" height="47.5" fill="white"/>
</clipPath>
</defs>
</svg>
