<svg width="180" height="45" viewBox="0 0 180 45" fill="none" xmlns="http://www.w3.org/2000/svg">
<g clip-path="url(#clip0_15795_3371)">
<path d="M0.193359 31.0102V10.1313H3.8084L9.20235 24.5891C9.32222 24.9332 9.44208 25.3047 9.56467 25.7011C9.68454 26.0974 9.80168 26.4717 9.91065 26.8268C10.0196 27.1818 10.1068 27.4818 10.1667 27.724H10.3465C10.4255 27.4405 10.5263 27.1047 10.6489 26.7194C10.7688 26.3341 10.8859 25.9543 10.9949 25.5772C11.1039 25.2029 11.2101 24.8726 11.3109 24.5891L16.7048 10.1313H20.2899V31.0102H17.909V18.0139C17.909 17.5075 17.9198 16.9323 17.9389 16.2937C17.958 15.6552 17.9743 15.0304 17.9852 14.4222C17.9961 13.8139 18.0016 13.346 18.0016 13.0213H17.7918C17.7101 13.3268 17.6066 13.6873 17.4758 14.1029C17.345 14.5185 17.2143 14.9396 17.0835 15.3662C16.9528 15.7928 16.8274 16.1891 16.7076 16.5524L11.1638 31.0102H9.23504L3.7185 16.5524C3.59863 16.2277 3.47877 15.8726 3.35618 15.4873C3.23631 15.102 3.11645 14.6946 2.99386 14.2708C2.87399 13.8442 2.75412 13.4286 2.63154 13.024H2.42177C2.44084 13.4313 2.45719 13.9378 2.46808 14.546C2.47898 15.1543 2.48715 15.7625 2.49805 16.3708C2.50895 16.9791 2.51439 17.5268 2.51439 18.0139V31.0102H0.193359Z" fill="white"/>
<path d="M28.2366 31.3762C27.6127 31.3762 27.0025 31.2991 26.3977 31.1477C25.7957 30.9964 25.259 30.7514 24.785 30.4184C24.3137 30.0826 23.935 29.6312 23.6544 29.0642C23.3738 28.4973 23.2322 27.7954 23.2322 26.9642C23.2322 25.8688 23.4992 24.9716 24.0304 24.2697C24.5616 23.5707 25.3108 23.023 26.2751 22.6266C27.2395 22.2303 28.3782 21.9633 29.694 21.8202C31.0098 21.6771 32.44 21.6083 33.9874 21.6083V19.5688C33.9874 18.9193 33.873 18.3661 33.6414 17.9092C33.4099 17.4523 33.0094 17.0973 32.4373 16.8441C31.8652 16.5908 31.0561 16.4642 30.0128 16.4642C28.9694 16.4642 28.2148 16.5964 27.6318 16.8606C27.0488 17.1248 26.6429 17.4633 26.4113 17.8817C26.1798 18.2973 26.0654 18.7597 26.0654 19.2661V19.7532H23.9868C23.9677 19.6514 23.9568 19.5496 23.9568 19.4477V19.0817C23.9568 18.0661 24.2183 17.2349 24.7414 16.5853C25.2644 15.9358 26.0082 15.4486 26.9698 15.1239C27.9342 14.7991 29.0375 14.6367 30.2825 14.6367C31.5274 14.6367 32.6117 14.8239 33.4752 15.2009C34.3388 15.5753 35.0008 16.1092 35.4639 16.8C35.927 17.4908 36.1559 18.322 36.1559 19.2964V31.0046L34.11 31.0129V28.7312H33.8975C33.5161 29.2789 33.0285 29.7496 32.4373 30.1459C31.8434 30.5422 31.1978 30.845 30.4949 31.0597C29.7921 31.2716 29.0375 31.3789 28.2366 31.3789V31.3762ZM28.6888 29.5211C29.3508 29.5211 29.9937 29.411 30.6175 29.1853C31.2387 28.9624 31.8026 28.6514 32.3038 28.2578C32.8051 27.8615 33.211 27.3908 33.5243 26.8431C33.8348 26.2954 33.9901 25.6872 33.9901 25.0156V23.3725C32.1213 23.3725 30.5603 23.4743 29.3045 23.678C28.0486 23.8817 27.106 24.2367 26.4713 24.7431C25.8393 25.2496 25.5232 25.9597 25.5232 26.8734C25.5232 27.4817 25.6595 27.9853 25.9292 28.3789C26.2016 28.7753 26.5775 29.0642 27.0597 29.2459C27.5419 29.4275 28.084 29.5211 28.6861 29.5211H28.6888Z" fill="white"/>
<path d="M38.4796 31.0101L44.2032 22.8523L38.6893 15H41.34L45.4972 21.0881H45.647L49.8041 15H52.275L46.8211 22.7615L52.5747 31.0101H49.9839L45.5244 24.5257H45.4045L40.975 31.0101H38.4741H38.4796Z" fill="white"/>
<path d="M55.7402 31.0101V15H57.9087V31.0101H55.7402Z" fill="white"/>
<path d="M62.8123 31.0104V15.0003H64.5286L64.7384 17.5269H64.9481C65.3894 16.7976 65.8716 16.2224 66.3947 15.8068C66.9177 15.3912 67.4898 15.0912 68.1109 14.9095C68.7321 14.7279 69.3968 14.6343 70.0996 14.6343C71.1648 14.6343 72.0774 14.8517 72.8402 15.2893C73.603 15.7269 74.1451 16.4728 74.4665 17.5269H74.6463C75.0686 16.8168 75.5399 16.2526 76.0629 15.837C76.586 15.4214 77.1635 15.1159 77.7955 14.9233C78.4276 14.7306 79.095 14.6343 79.7978 14.6343C80.7404 14.6343 81.574 14.7967 82.2987 15.1214C83.0206 15.4462 83.5899 15.9829 84.0013 16.7343C84.4127 17.4857 84.6197 18.4985 84.6197 19.7783V31.0104H82.4512V20.0233C82.4512 19.3324 82.3668 18.76 82.1951 18.3031C82.0235 17.8462 81.7892 17.4967 81.4868 17.2517C81.1845 17.0095 80.833 16.8361 80.4326 16.7343C80.0294 16.6324 79.599 16.5829 79.1358 16.5829C78.3731 16.5829 77.6648 16.7811 77.011 17.1774C76.3571 17.5737 75.8259 18.1352 75.4146 18.8673C75.0032 19.5967 74.7962 20.4912 74.7962 21.5453V31.0104H72.6277V20.0233C72.6277 19.3324 72.546 18.76 72.388 18.3031C72.2272 17.8462 71.9957 17.4967 71.696 17.2517C71.3936 17.0095 71.0476 16.8361 70.6554 16.7343C70.2631 16.6324 69.8463 16.5829 69.4049 16.5829C68.6422 16.5829 67.923 16.7811 67.2501 17.1774C66.5772 17.5737 66.0296 18.1352 65.6074 18.8673C65.1851 19.5967 64.9754 20.4912 64.9754 21.5453V31.0104H62.8069H62.8123Z" fill="white"/>
<path d="M88.7195 31.0102V10.1313H103.667V12.2011H91.0978V19.2635H102.341V21.3635H91.0978V28.9433H103.847V31.013H88.7168L88.7195 31.0102Z" fill="white"/>
<path d="M107.525 36.5508C107.143 36.5508 106.806 36.526 106.517 36.4737C106.225 36.4214 105.991 36.3884 105.809 36.3664V34.7232H106.983C107.506 34.7232 108.007 34.6324 108.489 34.448C108.971 34.2664 109.424 33.9058 109.846 33.3664C110.268 32.8297 110.65 32.0425 110.99 31.0077L104.844 14.9976H107.133L110.385 23.5214C110.546 23.9067 110.72 24.3884 110.914 24.9664C111.104 25.5443 111.306 26.1333 111.516 26.7306C111.726 27.3306 111.903 27.8618 112.042 28.3297H112.221C112.3 28.0049 112.407 27.6306 112.537 27.204C112.668 26.7774 112.804 26.3425 112.943 25.8939C113.085 25.448 113.218 25.0214 113.349 24.6168C113.48 24.2122 113.594 23.8572 113.695 23.5517L116.496 14.9976H118.694L113.27 30.7324C112.968 31.6242 112.646 32.4251 112.306 33.1379C111.965 33.848 111.579 34.4563 111.145 34.9627C110.712 35.4691 110.2 35.8599 109.609 36.1352C109.015 36.4104 108.318 36.5453 107.514 36.5453L107.525 36.5508Z" fill="white"/>
<path d="M127.226 31.3762C125.72 31.3762 124.445 31.0762 123.402 30.4789C122.358 29.8817 121.563 28.9624 121.021 27.7239C120.478 26.4853 120.206 24.9138 120.206 23.0064C120.206 21.0991 120.478 19.5028 121.021 18.2725C121.563 17.045 122.366 16.1312 123.432 15.534C124.497 14.9367 125.821 14.6367 127.409 14.6367C128.875 14.6367 130.106 14.9312 131.1 15.5202C132.095 16.1092 132.846 16.9624 133.359 18.0771C133.871 19.1945 134.127 20.5624 134.127 22.1863V23.5872H122.467C122.467 24.9881 122.658 26.133 123.039 27.0275C123.421 27.922 123.968 28.5633 124.682 28.9597C125.396 29.356 126.273 29.5541 127.319 29.5541C128.082 29.5541 128.749 29.4523 129.321 29.2486C129.893 29.045 130.365 28.767 130.738 28.4119C131.108 28.0569 131.394 27.6358 131.596 27.1486C131.798 26.6615 131.898 26.1551 131.898 25.6266H134.007C134.007 26.4165 133.86 27.1624 133.571 27.8642C133.28 28.5633 132.857 29.1798 132.307 29.7055C131.754 30.234 131.057 30.6441 130.212 30.9386C129.368 31.2331 128.373 31.3789 127.229 31.3789L127.226 31.3762ZM122.467 21.8505H131.866C131.866 20.8349 131.751 19.9899 131.52 19.3074C131.288 18.6275 130.972 18.0798 130.572 17.6642C130.169 17.2486 129.692 16.9486 129.141 16.767C128.588 16.5853 127.97 16.4918 127.289 16.4918C126.306 16.4918 125.461 16.6789 124.758 17.056C124.055 17.4303 123.519 18.0138 123.145 18.8064C122.775 19.5991 122.549 20.6119 122.467 21.8505Z" fill="white"/>
<path d="M143.286 31.3762C142.242 31.3762 141.316 31.2688 140.515 31.0569C139.711 30.845 139.044 30.5285 138.513 30.1129C137.982 29.6973 137.578 29.1964 137.309 28.6074C137.036 28.0184 136.903 27.3386 136.903 26.5679V26.3092C136.903 26.2184 136.914 26.133 136.933 26.0505H139.071C139.052 26.1523 139.041 26.2376 139.041 26.3092V26.5074C139.06 27.3 139.251 27.9138 139.613 28.3486C139.976 28.7863 140.488 29.0945 141.15 29.2762C141.812 29.4578 142.575 29.5514 143.438 29.5514C144.182 29.5514 144.849 29.4441 145.441 29.2321C146.032 29.0202 146.506 28.7092 146.857 28.3046C147.209 27.9 147.386 27.4019 147.386 26.8129C147.386 26.0615 147.16 25.4945 146.707 25.1092C146.255 24.7239 145.667 24.4239 144.945 24.2119C144.223 24 143.468 23.7716 142.686 23.5266C142.043 23.345 141.411 23.1468 140.788 22.9321C140.164 22.7202 139.597 22.4505 139.085 22.1257C138.573 21.8009 138.167 21.3853 137.864 20.8789C137.562 20.3725 137.412 19.734 137.412 18.9606C137.412 18.2918 137.548 17.6918 137.818 17.1633C138.091 16.6349 138.48 16.1835 138.992 15.8092C139.504 15.4349 140.131 15.1459 140.875 14.9422C141.618 14.7386 142.46 14.6367 143.406 14.6367C144.449 14.6367 145.342 14.7578 146.086 15.0028C146.83 15.2477 147.432 15.5753 147.892 15.9908C148.355 16.4064 148.696 16.8743 148.917 17.3918C149.137 17.9092 149.249 18.4514 149.249 19.0211C149.249 19.1037 149.244 19.1945 149.233 19.2964C149.222 19.3982 149.219 19.489 149.219 19.5716H147.081V19.1753C147.081 18.7486 146.974 18.333 146.764 17.9285C146.555 17.5239 146.182 17.1771 145.65 16.8936C145.119 16.6101 144.329 16.467 143.286 16.467C142.662 16.467 142.125 16.522 141.673 16.6349C141.221 16.7477 140.839 16.9046 140.529 17.1055C140.218 17.3092 139.987 17.5569 139.837 17.8514C139.687 18.1459 139.611 18.4844 139.611 18.8725C139.611 19.4615 139.796 19.9129 140.169 20.2266C140.54 20.5404 141.027 20.7936 141.629 20.9863C142.231 21.1789 142.874 21.3881 143.558 21.611C144.242 21.8147 144.939 22.0266 145.653 22.2496C146.367 22.4725 147.023 22.7477 147.625 23.0725C148.227 23.3973 148.71 23.8294 149.072 24.3661C149.434 24.9028 149.614 25.6101 149.614 26.4826C149.614 27.2945 149.453 28.0101 149.132 28.6294C148.81 29.2486 148.369 29.7606 147.805 30.1652C147.244 30.5725 146.574 30.8752 145.803 31.0789C145.029 31.2826 144.19 31.3844 143.288 31.3844L143.286 31.3762Z" fill="white"/>
<path d="M56.7126 12.7927C53.0649 12.7927 50.8828 9.88624 50.8828 7.0789C50.8828 5.14404 52.5037 2.38624 55.6992 2.38624C58.2219 2.38624 59.3061 3.69633 59.2598 5.35046C59.2107 7.08165 58.0802 8.17982 56.6282 8.17982C55.3914 8.17982 54.0102 7.13945 53.9911 5.35321C53.9911 5.07798 54.0838 4.5 54.2717 4.13119C54.2935 4.08716 54.2854 4.03486 54.2499 3.99908C54.2282 3.97706 54.2009 3.96606 54.1737 3.96606C54.1546 3.96606 54.1355 3.97156 54.1192 3.97982C53.0867 4.55505 52.6045 6.1211 52.6045 6.99633C52.6045 9.70734 55.0999 10.7174 56.6718 10.7174C59.0773 10.7174 61.51 8.96972 61.51 5.62569C61.51 2.28165 59.3769 0.363303 55.6066 0.0275229C55.8028 0.0110092 56.0125 0 56.2277 0C60.3386 0 63.3434 2.36147 63.3434 6.01376C63.3434 9.1789 61.0224 12.7927 56.7126 12.7927ZM56.6255 3.75413C55.7483 3.75413 55.0372 4.47248 55.0372 5.35321C55.0372 6.23395 55.751 6.95229 56.6255 6.95229C57.4999 6.95229 58.2137 6.23395 58.2137 5.35321C58.2137 4.47248 57.4999 3.75413 56.6255 3.75413Z" fill="#D72D8A"/>
<path d="M149.854 14.1497C149.54 14.1497 149.249 14.0946 148.985 13.9873C148.72 13.8772 148.489 13.7258 148.293 13.5304C148.097 13.335 147.944 13.1038 147.838 12.8341C147.729 12.5671 147.677 12.2726 147.677 11.9561C147.677 11.6396 147.731 11.3451 147.838 11.0781C147.947 10.8111 148.097 10.5799 148.293 10.3818C148.489 10.1864 148.718 10.035 148.985 9.9249C149.249 9.81481 149.54 9.75977 149.854 9.75977C150.167 9.75977 150.456 9.81481 150.723 9.9249C150.987 10.035 151.216 10.1864 151.412 10.3818C151.605 10.5772 151.758 10.8084 151.864 11.0781C151.973 11.3451 152.025 11.6396 152.025 11.9561C152.025 12.2726 151.97 12.5671 151.864 12.8341C151.755 13.1011 151.605 13.335 151.412 13.5304C151.218 13.7258 150.99 13.8799 150.723 13.9873C150.458 14.0974 150.167 14.1497 149.854 14.1497ZM149.854 13.7864C150.2 13.7864 150.507 13.7066 150.774 13.5497C151.041 13.39 151.251 13.1726 151.406 12.8974C151.562 12.6222 151.638 12.3056 151.638 11.9506C151.638 11.5955 151.562 11.2873 151.406 11.0121C151.251 10.7368 151.041 10.5194 150.774 10.3625C150.507 10.2056 150.2 10.1286 149.854 10.1286C149.508 10.1286 149.197 10.2084 148.927 10.3653C148.655 10.5249 148.445 10.7396 148.293 11.0148C148.14 11.29 148.064 11.601 148.064 11.9506C148.064 12.3001 148.14 12.6194 148.295 12.8974C148.451 13.1726 148.663 13.39 148.933 13.5497C149.203 13.7093 149.51 13.7864 149.856 13.7864H149.854ZM148.925 13.2222V10.6763H150.123C150.385 10.6763 150.581 10.7478 150.717 10.8882C150.851 11.0313 150.919 11.2157 150.919 11.4469C150.919 11.6121 150.883 11.7552 150.813 11.879C150.742 12.0029 150.638 12.0992 150.505 12.1708L151.025 13.2222H150.45L149.998 12.2644H149.467V13.2222H148.927H148.925ZM149.461 11.8322H150.025C150.126 11.8322 150.211 11.7992 150.276 11.7332C150.341 11.6671 150.374 11.5763 150.374 11.4607C150.374 11.3451 150.341 11.257 150.279 11.1992C150.216 11.1387 150.132 11.1084 150.025 11.1084H149.461V11.8322Z" fill="white"/>
<path d="M65.847 45C64.9916 45 64.2316 44.8569 63.5614 44.5679C62.8912 44.2817 62.3246 43.8881 61.8642 43.3927C61.4038 42.8973 61.0442 42.3248 60.7963 41.678C60.5457 41.0312 60.4231 40.3321 60.4231 39.5862C60.4231 38.5927 60.6519 37.7092 61.1069 36.933C61.5618 36.1569 62.1966 35.5404 63.0084 35.089C63.8202 34.6349 64.7464 34.4092 65.7844 34.4092C66.4954 34.4092 67.1328 34.522 67.6968 34.7422C68.2579 34.9651 68.7401 35.2651 69.1379 35.6367C69.5356 36.011 69.8434 36.4294 70.0559 36.889C70.2684 37.3486 70.3774 37.811 70.3774 38.2706C70.3774 39.0055 70.2058 39.5229 69.8652 39.8229C69.5247 40.1257 69.1025 40.2771 68.6039 40.2771H62.4308C62.4172 40.8963 62.5834 41.4303 62.9321 41.8844C63.2808 42.3385 63.7221 42.6853 64.2561 42.9303C64.79 43.1752 65.3267 43.2963 65.8688 43.2963C66.2529 43.2963 66.5907 43.2743 66.8822 43.2303C67.1737 43.1862 67.4271 43.1312 67.6395 43.0569C67.852 42.9853 68.0346 42.9138 68.1844 42.8422C68.3342 42.7706 68.4732 42.6991 68.6012 42.6275C68.7292 42.556 68.8491 42.5064 68.9635 42.4762C69.0779 42.4486 69.1978 42.4596 69.3258 42.5092C69.4539 42.5587 69.552 42.6578 69.6255 42.8009C69.71 42.9165 69.7672 43.0239 69.7971 43.1257C69.8244 43.2275 69.8407 43.3349 69.8407 43.4505C69.8407 43.6651 69.6691 43.8936 69.3286 44.1303C68.988 44.367 68.514 44.5734 67.9092 44.744C67.3045 44.9174 66.618 45.0028 65.847 45.0028V45ZM62.4308 38.978H67.7921C68.0482 38.978 68.2471 38.9422 68.3914 38.8706C68.5331 38.7991 68.6039 38.6037 68.6039 38.2872C68.6039 37.8991 68.4841 37.5385 68.2416 37.2083C67.9991 36.878 67.6695 36.611 67.2473 36.4101C66.8277 36.2092 66.3401 36.1073 65.7844 36.1073C65.1714 36.1073 64.6048 36.234 64.0872 36.4844C63.5668 36.7376 63.1582 37.0789 62.8585 37.5083C62.5589 37.9376 62.4172 38.4303 62.4308 38.9752V38.978Z" fill="#D72D8A"/>
<path d="M75.9075 44.9338C75.6651 44.9338 75.4662 44.898 75.3082 44.8265C75.1502 44.7549 75.0303 44.6255 74.9459 44.4384L70.9958 35.7411C70.8377 35.3971 70.8023 35.1329 70.8895 34.954C70.974 34.7751 71.1728 34.6044 71.4888 34.4476C71.7722 34.3044 72.0146 34.2577 72.2162 34.3072C72.4151 34.3567 72.5867 34.5549 72.7284 34.9017L75.9102 42.5393L79.0295 35.0944C79.1711 34.7641 79.34 34.5274 79.5307 34.3815C79.7242 34.2384 80.0184 34.2659 80.4161 34.4668C80.8002 34.654 80.9936 34.8659 80.9936 35.1026C80.9936 35.3393 80.9283 35.5953 80.8002 35.8677L76.8692 44.4136C76.7983 44.587 76.6839 44.7164 76.5286 44.8017C76.3706 44.887 76.1663 44.931 75.9102 44.931L75.9075 44.9338Z" fill="#D72D8A"/>
<path d="M90.5583 44.8703C90.2451 44.8703 90.0162 44.8043 89.8746 44.6749C89.7329 44.5456 89.6539 44.3446 89.6403 44.0694L89.7247 42.9905C89.5831 43.2217 89.3624 43.4832 89.0627 43.7777C88.7631 44.0722 88.3681 44.3309 87.8777 44.5538C87.3873 44.7768 86.7989 44.8896 86.1151 44.8896C85.4314 44.8896 84.7939 44.752 84.2027 44.4795C83.6116 44.207 83.0913 43.8245 82.6445 43.3346C82.195 42.8446 81.8436 42.2859 81.5875 41.6502C81.3314 41.0171 81.2034 40.3401 81.2034 39.6217C81.2034 38.9034 81.3314 38.2511 81.5875 37.6263C81.8436 37.0015 82.2004 36.4511 82.6554 35.9749C83.1103 35.4988 83.6334 35.1272 84.2245 34.852C84.8157 34.5795 85.445 34.4419 86.1151 34.4419C86.7417 34.4419 87.2757 34.5245 87.717 34.6896C88.1583 34.8547 88.5397 35.0722 88.8584 35.3364C89.1799 35.6034 89.4605 35.9006 89.7029 36.2309L89.6376 35.3254C89.6376 35.0089 89.7111 34.7832 89.8609 34.6456C90.0108 34.5079 90.2478 34.4419 90.5774 34.4419C90.8471 34.4419 91.0432 34.4859 91.1658 34.5713C91.2857 34.6566 91.3702 34.7804 91.411 34.9373C91.4546 35.0969 91.4764 35.2896 91.4764 35.5208V43.8492C91.4764 44.0502 91.4546 44.2318 91.411 44.3887C91.3674 44.5483 91.283 44.6667 91.1549 44.7437C91.0269 44.8235 90.828 44.8621 90.5556 44.8621L90.5583 44.8703ZM86.4148 43.0786C86.9978 43.0786 87.5263 42.9272 87.9949 42.6245C88.4634 42.3217 88.8421 41.9171 89.1281 41.4052C89.4114 40.896 89.5558 40.307 89.5558 39.6465C89.5558 38.9859 89.4087 38.3777 89.1172 37.8657C88.8257 37.3566 88.4416 36.9547 87.9649 36.6685C87.4881 36.3823 86.9569 36.2364 86.3739 36.2364C85.7174 36.2364 85.1453 36.3878 84.655 36.6905C84.1646 36.9933 83.775 37.4034 83.4917 37.9208C83.2057 38.4382 83.064 39.0272 83.064 39.6905C83.064 40.3538 83.2057 40.918 83.4917 41.4272C83.775 41.9391 84.1728 42.341 84.6767 42.6355C85.1807 42.93 85.7637 43.0786 86.4175 43.0786H86.4148Z" fill="#D72D8A"/>
<path d="M102.221 44.8703C101.907 44.8703 101.679 44.8043 101.537 44.6749C101.395 44.5456 101.316 44.3446 101.303 44.0694L101.387 42.9905C101.245 43.2217 101.025 43.4832 100.725 43.7777C100.425 44.0722 100.03 44.3309 99.5401 44.5538C99.0497 44.7768 98.4613 44.8896 97.7775 44.8896C97.0937 44.8896 96.4562 44.752 95.8651 44.4795C95.2739 44.207 94.7536 43.8245 94.3068 43.3346C93.8573 42.8446 93.5059 42.2859 93.2498 41.6502C92.9938 41.0171 92.8657 40.3401 92.8657 39.6217C92.8657 38.9034 92.9938 38.2511 93.2498 37.6263C93.5059 37.0015 93.8628 36.4511 94.3177 35.9749C94.7727 35.4988 95.2957 35.1272 95.8869 34.852C96.478 34.5795 97.1073 34.4419 97.7775 34.4419C98.4041 34.4419 98.938 34.5245 99.3793 34.6896C99.8206 34.8547 100.202 35.0722 100.521 35.3364C100.842 35.6034 101.123 35.9006 101.365 36.2309L101.3 35.3254C101.3 35.0089 101.373 34.7832 101.523 34.6456C101.673 34.5079 101.91 34.4419 102.24 34.4419C102.509 34.4419 102.706 34.4859 102.828 34.5713C102.948 34.6566 103.032 34.7804 103.073 34.9373C103.117 35.0969 103.139 35.2896 103.139 35.5208V43.8492C103.139 44.0502 103.117 44.2318 103.073 44.3887C103.03 44.5483 102.945 44.6667 102.817 44.7437C102.689 44.8235 102.49 44.8621 102.218 44.8621L102.221 44.8703ZM98.0771 43.0786C98.6601 43.0786 99.1886 42.9272 99.6572 42.6245C100.126 42.3217 100.504 41.9171 100.79 41.4052C101.074 40.896 101.218 40.307 101.218 39.6465C101.218 38.9859 101.071 38.3777 100.78 37.8657C100.488 37.3566 100.104 36.9547 99.6272 36.6685C99.1505 36.3823 98.6193 36.2364 98.0363 36.2364C97.3797 36.2364 96.8077 36.3878 96.3173 36.6905C95.8269 36.9933 95.4374 37.4034 95.1541 37.9208C94.868 38.4382 94.7264 39.0272 94.7264 39.6905C94.7264 40.3538 94.868 40.918 95.1541 41.4272C95.4374 41.9391 95.8351 42.341 96.3391 42.6355C96.8431 42.93 97.4261 43.0786 98.0799 43.0786H98.0771Z" fill="#D72D8A"/>
<path d="M0 42.6907V35.0972H3.15464C3.6668 35.0972 4.07543 35.1935 4.38599 35.3862C4.69655 35.5788 4.92539 35.8375 5.07522 36.1678C5.22505 36.4953 5.2986 36.8752 5.2986 37.3018C5.2986 37.7284 5.21143 38.1385 5.03436 38.4852C4.86001 38.832 4.61483 39.1045 4.30154 39.3054C3.98826 39.5036 3.62593 39.6054 3.2173 39.6054H0.67833V42.6935H0V42.6907ZM0.67833 38.9944H3.12195C3.58235 38.9944 3.94467 38.843 4.21164 38.5403C4.47861 38.2375 4.6121 37.8329 4.6121 37.3238C4.6121 36.9907 4.56034 36.7045 4.45955 36.4596C4.35603 36.2174 4.1953 36.033 3.97736 35.9063C3.75942 35.7797 3.47338 35.7192 3.12195 35.7192H0.67833V38.9944Z" fill="white"/>
<path d="M8.63294 42.8259C8.02544 42.8259 7.51601 42.7158 7.0992 42.4928C6.6824 42.2727 6.36911 41.9341 6.15662 41.48C5.94414 41.0259 5.83789 40.4589 5.83789 39.7818C5.83789 39.1048 5.94414 38.5268 6.15662 38.0782C6.36911 37.6268 6.6824 37.291 7.0992 37.0708C7.51601 36.8506 8.02816 36.7378 8.63294 36.7378C9.23772 36.7378 9.74987 36.8479 10.1612 37.0708C10.5726 37.291 10.8886 37.6268 11.1038 38.0782C11.319 38.5295 11.428 39.0965 11.428 39.7818C11.428 40.4672 11.319 41.0259 11.1038 41.48C10.8886 41.9341 10.5753 42.2727 10.1612 42.4928C9.74987 42.713 9.24044 42.8259 8.63294 42.8259ZM8.63294 42.2479C9.04974 42.2479 9.41751 42.1681 9.73352 42.0112C10.0523 41.8516 10.2947 41.6038 10.4663 41.2653C10.638 40.9268 10.7251 40.4754 10.7251 39.9139V39.636C10.7251 39.0745 10.638 38.6259 10.4663 38.2846C10.2947 37.9461 10.0495 37.7011 9.73352 37.5497C9.41479 37.3983 9.04974 37.324 8.63294 37.324C8.21613 37.324 7.84019 37.4011 7.52691 37.5497C7.21362 37.7011 6.96844 37.9461 6.79409 38.2846C6.61974 38.6231 6.53257 39.0745 6.53257 39.636V39.9139C6.53257 40.4754 6.61974 40.924 6.79409 41.2653C6.96844 41.6038 7.21362 41.8543 7.52691 42.0112C7.84019 42.1708 8.21069 42.2479 8.63294 42.2479Z" fill="white"/>
<path d="M13.7873 42.6907L11.9021 36.8696H12.6022L13.632 40.1559C13.7055 40.3485 13.7682 40.5439 13.8172 40.7476C13.869 40.9513 13.9153 41.1302 13.9589 41.2898C14.0025 41.4494 14.0352 41.5788 14.057 41.6834H14.1223C14.1523 41.5513 14.1904 41.3916 14.2368 41.2072C14.2831 41.0228 14.3348 40.8384 14.3839 40.654C14.4356 40.4696 14.4792 40.3045 14.5146 40.1559L15.479 36.8696H16.19L17.1435 40.1559C17.1953 40.3403 17.247 40.5302 17.3015 40.7256C17.356 40.921 17.4023 41.1027 17.4377 41.2678C17.4731 41.4329 17.5058 41.5733 17.5358 41.6834H17.5903C17.6339 41.5513 17.6802 41.3944 17.7319 41.2127C17.7837 41.0311 17.8354 40.8494 17.8845 40.665C17.9362 40.4806 17.9826 40.3155 18.0261 40.1669L19.0668 36.8696H19.7015L17.8273 42.6907H17.2252L16.2282 39.3467C16.1846 39.2063 16.1383 39.0439 16.0919 38.8595C16.0456 38.6751 15.9966 38.4935 15.9503 38.3173C15.904 38.1412 15.8604 37.9843 15.825 37.8522H15.7705C15.7269 37.9843 15.6833 38.1412 15.6397 38.3228C15.5961 38.5045 15.5498 38.6834 15.5035 38.865C15.4572 39.0467 15.4136 39.2063 15.3782 39.3467L14.392 42.6907H13.7791H13.7873Z" fill="white"/>
<path d="M22.9952 42.8259C22.3959 42.8259 21.8865 42.7158 21.467 42.4983C21.0474 42.2809 20.7314 41.9451 20.5189 41.491C20.3064 41.0369 20.2002 40.4672 20.2002 39.7818C20.2002 39.0965 20.3092 38.5185 20.5244 38.0727C20.7396 37.6268 21.0529 37.291 21.467 37.0708C21.8783 36.8506 22.3959 36.7378 23.017 36.7378C23.6382 36.7378 24.1367 36.8506 24.5344 37.0763C24.9322 37.302 25.2291 37.6158 25.4225 38.0176C25.6159 38.4194 25.714 38.8873 25.714 39.4185V39.9717H20.903C20.903 40.5249 20.9929 40.9708 21.1727 41.3066C21.3525 41.6424 21.6032 41.8846 21.9219 42.0305C22.2434 42.1791 22.6111 42.2506 23.0279 42.2506C23.3794 42.2506 23.6763 42.2038 23.9215 42.113C24.1667 42.0222 24.3655 41.9038 24.5181 41.758C24.6706 41.6149 24.7905 41.4525 24.875 41.2708C24.9594 41.0892 25.0057 40.9185 25.0112 40.7561H25.6568C25.6486 40.9983 25.5941 41.2433 25.4934 41.4855C25.3898 41.7277 25.2346 41.9506 25.0275 42.1488C24.8205 42.347 24.548 42.5094 24.2102 42.636C23.8724 42.7626 23.4693 42.8231 22.9952 42.8231V42.8259ZM20.903 39.4048H25.0221C25.0221 39.0057 24.9676 38.6754 24.8586 38.4084C24.7496 38.1415 24.5998 37.9295 24.4146 37.7672C24.2293 37.6048 24.0087 37.4892 23.758 37.4176C23.5074 37.3488 23.2404 37.313 22.9626 37.313C22.5621 37.313 22.2134 37.3873 21.9165 37.5332C21.6195 37.6818 21.3825 37.9075 21.2054 38.213C21.0256 38.5185 20.9248 38.9149 20.903 39.402V39.4048Z" fill="white"/>
<path d="M26.9588 42.691V36.8699H27.4737L27.539 37.9323H27.5935C27.6289 37.7699 27.7025 37.5938 27.806 37.4066C27.9123 37.2194 28.0675 37.0598 28.2773 36.9305C28.4843 36.8011 28.7404 36.7378 29.0374 36.7378C29.1545 36.7378 29.2607 36.7433 29.3561 36.7543C29.4514 36.7653 29.525 36.7818 29.574 36.8038V37.3901H29.2117C28.9039 37.3901 28.6478 37.4534 28.4408 37.5772C28.2337 37.7038 28.0675 37.8662 27.9477 38.0644C27.8278 38.2626 27.7406 38.48 27.6889 38.7167C27.6371 38.9534 27.6126 39.1818 27.6126 39.402V42.6883H26.9561L26.9588 42.691Z" fill="white"/>
<path d="M32.8678 42.8259C32.2685 42.8259 31.759 42.7158 31.3395 42.4983C30.92 42.2809 30.604 41.9451 30.3915 41.491C30.179 41.0369 30.0728 40.4672 30.0728 39.7818C30.0728 39.0965 30.1817 38.5185 30.3969 38.0727C30.6121 37.6268 30.9254 37.291 31.3395 37.0708C31.7509 36.8506 32.2685 36.7378 32.8896 36.7378C33.5107 36.7378 34.0093 36.8506 34.407 37.0763C34.8047 37.302 35.1017 37.6158 35.2951 38.0176C35.4885 38.4194 35.5866 38.8873 35.5866 39.4185V39.9717H30.7756C30.7756 40.5249 30.8655 40.9708 31.0453 41.3066C31.2251 41.6424 31.4757 41.8846 31.7945 42.0305C32.1159 42.1791 32.4837 42.2506 32.9005 42.2506C33.2519 42.2506 33.5489 42.2038 33.794 42.113C34.0392 42.0222 34.2381 41.9038 34.3906 41.758C34.5432 41.6149 34.6631 41.4525 34.7475 41.2708C34.832 41.0892 34.8783 40.9185 34.8837 40.7561H35.5294C35.5212 40.9983 35.4667 41.2433 35.3659 41.4855C35.2624 41.7277 35.1071 41.9506 34.9001 42.1488C34.693 42.347 34.4206 42.5094 34.0828 42.636C33.745 42.7626 33.3418 42.8231 32.8678 42.8231V42.8259ZM30.7756 39.4048H34.8946C34.8946 39.0057 34.8401 38.6754 34.7312 38.4084C34.6222 38.1415 34.4724 37.9295 34.2871 37.7672C34.1019 37.6048 33.8812 37.4892 33.6306 37.4176C33.38 37.3488 33.113 37.313 32.8351 37.313C32.4347 37.313 32.086 37.3873 31.789 37.5332C31.4921 37.6818 31.2551 37.9075 31.078 38.213C30.8982 38.5185 30.7974 38.9149 30.7756 39.402V39.4048Z" fill="white"/>
<path d="M39.0736 42.8257C38.5342 42.8257 38.0792 42.7156 37.7088 42.4927C37.341 42.2725 37.0577 41.934 36.8642 41.4799C36.6708 41.0257 36.5728 40.445 36.5728 39.7376C36.5728 39.0661 36.6708 38.5101 36.8697 38.067C37.0658 37.6239 37.3546 37.2909 37.7305 37.0707C38.1065 36.8505 38.5614 36.7376 39.0954 36.7376C39.3732 36.7376 39.6321 36.7707 39.8745 36.8367C40.117 36.9028 40.3376 37.0046 40.5365 37.1422C40.7381 37.2798 40.9097 37.4615 41.0568 37.6899H41.1331V34.6899H41.7896V42.6936H41.2748L41.1876 41.7854H41.1113C40.8934 42.1404 40.6046 42.4019 40.2504 42.5725C39.8963 42.7432 39.504 42.8257 39.0736 42.8257ZM39.139 42.2367C39.5694 42.2367 39.9317 42.1514 40.2232 41.9808C40.5147 41.8101 40.7408 41.5514 40.8961 41.2019C41.0541 40.8523 41.1331 40.4092 41.1331 39.878V39.6688C41.1331 39.1954 41.0786 38.8101 40.9696 38.5074C40.8607 38.2046 40.7136 37.9679 40.531 37.7945C40.3485 37.6211 40.1415 37.4973 39.9126 37.423C39.6838 37.3487 39.4386 37.3129 39.1853 37.3129C38.7984 37.3129 38.4606 37.3927 38.1719 37.5496C37.8831 37.7092 37.6597 37.9569 37.5044 38.2899C37.3464 38.6257 37.2702 39.0771 37.2702 39.6468V39.9138C37.2702 40.489 37.3492 40.9459 37.5099 41.2872C37.6706 41.6257 37.894 41.8707 38.1773 42.0165C38.4634 42.1652 38.7848 42.2367 39.1417 42.2367H39.139Z" fill="white"/>
<path d="M49.1203 42.8257C48.6817 42.8257 48.2921 42.7404 47.9543 42.5725C47.6138 42.4019 47.3305 42.1404 47.1044 41.7854H47.039L46.9627 42.6936H46.4587V34.6899H47.1153V37.6899H47.1807C47.3278 37.4615 47.5048 37.2798 47.7119 37.1422C47.9189 37.0046 48.1478 36.9055 48.3957 36.8367C48.6436 36.7707 48.8996 36.7376 49.1612 36.7376C49.6951 36.7376 50.1446 36.8477 50.5097 37.0707C50.8747 37.2909 51.1553 37.6239 51.3542 38.067C51.5503 38.5101 51.6511 39.0661 51.6511 39.7376C51.6511 40.445 51.553 41.0285 51.3542 41.4799C51.158 41.934 50.872 42.2725 50.4988 42.4927C50.1255 42.7129 49.6651 42.8257 49.1176 42.8257H49.1203ZM49.0658 42.2367C49.4309 42.2367 49.755 42.1624 50.0411 42.0165C50.3271 41.8679 50.5478 41.6257 50.7085 41.2872C50.8693 40.9487 50.9483 40.489 50.9483 39.9138V39.6468C50.9483 39.0799 50.872 38.6257 50.7194 38.2899C50.5669 37.9542 50.3462 37.7065 50.0629 37.5496C49.7768 37.3899 49.4418 37.3129 49.0549 37.3129C48.7988 37.3129 48.5591 37.3487 48.333 37.423C48.1069 37.4973 47.8999 37.6211 47.7146 37.7945C47.5294 37.9679 47.3795 38.2046 47.2706 38.5074C47.1616 38.8101 47.1071 39.1982 47.1071 39.6688V39.878C47.1071 40.4092 47.1834 40.8496 47.3359 41.2019C47.4885 41.5514 47.7146 41.8129 48.0088 41.9808C48.3058 42.1514 48.6572 42.2367 49.0658 42.2367Z" fill="white"/>
<path d="M53.0704 44.7167C52.9533 44.7167 52.8416 44.7112 52.7354 44.7002C52.6291 44.6892 52.5283 44.6754 52.433 44.6617V44.1525H52.8716C53.1576 44.1525 53.4001 44.114 53.6044 44.0369C53.8087 43.9598 53.9885 43.8167 54.1411 43.6048C54.2936 43.3956 54.4434 43.0901 54.5906 42.691L52.0815 36.8699H52.7926L54.152 40.0571C54.2173 40.2057 54.2936 40.3901 54.3808 40.6103C54.468 40.8305 54.5579 41.0562 54.6505 41.2791C54.7404 41.5048 54.8248 41.7057 54.8984 41.8819H54.9638C55.0074 41.7635 55.0564 41.6232 55.1109 41.4608C55.1654 41.2984 55.2226 41.1305 55.2798 40.9571C55.337 40.7837 55.3996 40.6131 55.4596 40.4479C55.5222 40.2828 55.574 40.1314 55.6176 39.9993L56.7672 36.8672H57.4564L55.2444 42.7131C55.119 43.0461 54.9937 43.3378 54.8602 43.5883C54.7295 43.8387 54.5824 44.0507 54.4216 44.2186C54.2609 44.3892 54.0702 44.5131 53.8523 44.5956C53.6343 44.6754 53.3701 44.7167 53.0623 44.7167H53.0704Z" fill="white"/>
<path d="M151.9 31.0101L159.661 6.74316H162.249L170.01 31.0101H167.738L165.534 23.9092H156.234L154.03 31.0101H151.897H151.9ZM156.866 22.0019H164.908L162.287 13.6652C162.241 13.4312 162.159 13.1422 162.042 12.801C161.925 12.4597 161.808 12.0826 161.693 11.6698C161.576 11.2569 161.454 10.8468 161.325 10.434C161.197 10.0211 161.099 9.65234 161.029 9.32206H160.783C160.691 9.67436 160.563 10.1175 160.399 10.6459C160.236 11.1744 160.072 11.7111 159.909 12.2533C159.745 12.7955 159.593 13.2661 159.454 13.6652L156.866 22.0019Z" fill="white"/>
<path d="M180 8.51275V6.77881H177.107H174.87H171.977V8.51275H174.87V29.2761H171.977V31.01H174.87H177.107H180V29.2761H177.107V8.51275H180Z" fill="white"/>
</g>
<defs>
<clipPath id="clip0_15795_3371">
<rect width="180" height="45" fill="white"/>
</clipPath>
</defs>
</svg>
