<svg width="251" height="53" viewBox="0 0 251 53" fill="none" xmlns="http://www.w3.org/2000/svg">
<rect width="251" height="53" fill="white"/>
<path d="M32.5599 32.8379C31.0522 32.8379 29.7126 32.5863 28.5314 32.078C27.3502 31.5746 26.3515 30.8825 25.54 30.0112C24.7286 29.14 24.0948 28.1332 23.6578 26.9958C23.2161 25.8583 23 24.6289 23 23.3172C23 21.5698 23.4033 20.0161 24.2052 18.6512C25.0071 17.2862 26.1258 16.202 27.5567 15.4082C28.9876 14.6095 30.6201 14.2126 32.4495 14.2126C33.7027 14.2126 34.8263 14.4111 35.8202 14.7983C36.8093 15.1904 37.6592 15.718 38.3602 16.3714C39.0613 17.0297 39.6038 17.7654 39.9784 18.5737C40.3529 19.382 40.545 20.1952 40.545 21.0035C40.545 22.2959 40.2425 23.2058 39.6423 23.7334C39.0421 24.2659 38.2978 24.5321 37.4191 24.5321H26.5388C26.5148 25.6211 26.8076 26.5601 27.4222 27.3588C28.0368 28.1574 28.8147 28.7673 29.7558 29.1981C30.6969 29.6289 31.6428 29.8418 32.5983 29.8418C33.2754 29.8418 33.8708 29.8031 34.3845 29.7257C34.8983 29.6482 35.3448 29.5514 35.7194 29.4207C36.0939 29.2949 36.4156 29.169 36.6797 29.0432C36.9438 28.9173 37.1887 28.7915 37.4143 28.6657C37.64 28.5398 37.8513 28.4527 38.0529 28.3994C38.2546 28.351 38.4659 28.3704 38.6915 28.4575C38.9172 28.5446 39.0901 28.7189 39.2197 28.9706C39.3686 29.1739 39.4694 29.3626 39.5222 29.5417C39.5702 29.7208 39.599 29.9096 39.599 30.1129C39.599 30.4904 39.2965 30.8922 38.6964 31.3084C38.0962 31.7247 37.2607 32.0877 36.1947 32.3878C35.1288 32.6927 33.9188 32.8428 32.5599 32.8428V32.8379ZM26.5388 22.2475H35.9883C36.4396 22.2475 36.7901 22.1845 37.0446 22.0587C37.2943 21.9329 37.4191 21.5892 37.4191 21.0326C37.4191 20.3501 37.2079 19.716 36.7805 19.1352C36.3532 18.5544 35.7722 18.0848 35.0279 17.7315C34.2885 17.3782 33.429 17.1991 32.4495 17.1991C31.3691 17.1991 30.3704 17.4217 29.4581 17.8622C28.541 18.3075 27.8208 18.9077 27.2926 19.6628C26.7644 20.4179 26.5148 21.2843 26.5388 22.2426V22.2475Z" fill="#E00090"/>
<path d="M50.2921 32.7218C49.8647 32.7218 49.5142 32.6589 49.2357 32.5331C48.9572 32.4072 48.7459 32.1797 48.5971 31.8506L41.6348 16.5554C41.3563 15.9503 41.2939 15.4857 41.4475 15.1711C41.5964 14.8564 41.9469 14.5564 42.5039 14.2805C43.0033 14.0288 43.4306 13.9465 43.7859 14.0336C44.1364 14.1207 44.4389 14.4692 44.6886 15.0791L50.2968 28.5108L55.7947 15.4179C56.0443 14.8371 56.342 14.4208 56.6781 14.1643C57.0191 13.9126 57.5376 13.961 58.2387 14.3143C58.9157 14.6435 59.2566 15.0162 59.2566 15.4324C59.2566 15.8487 59.1414 16.2988 58.9157 16.778L51.987 31.807C51.8622 32.112 51.6605 32.3394 51.3868 32.4895C51.1083 32.6395 50.7482 32.717 50.2968 32.717L50.2921 32.7218Z" fill="#E00090"/>
<path d="M76.1148 32.6097C75.5627 32.6097 75.1593 32.4936 74.9096 32.2661C74.66 32.0386 74.5207 31.6853 74.4967 31.2012L74.6455 29.3039C74.3959 29.7104 74.0069 30.1703 73.4788 30.6882C72.9506 31.2061 72.2544 31.6611 71.3901 32.0531C70.5258 32.4452 69.4887 32.6436 68.2835 32.6436C67.0783 32.6436 65.9547 32.4016 64.9128 31.9224C63.8708 31.4432 62.9537 30.7704 62.1663 29.9089C61.374 29.0473 60.7546 28.0647 60.3032 26.9466C59.8519 25.8334 59.6262 24.6427 59.6262 23.3794C59.6262 22.1161 59.8519 20.9689 60.3032 19.8702C60.7546 18.7715 61.3836 17.8034 62.1855 16.966C62.9873 16.1287 63.9092 15.4752 64.9512 14.9912C65.9931 14.512 67.1023 14.27 68.2835 14.27C69.3878 14.27 70.3289 14.4152 71.1068 14.7056C71.8846 14.9961 72.5569 15.3784 73.1186 15.8431C73.6852 16.3126 74.1798 16.8354 74.6071 17.4162L74.4919 15.8237C74.4919 15.2671 74.6215 14.8702 74.8856 14.6282C75.1497 14.3862 75.5675 14.27 76.1484 14.27C76.6238 14.27 76.9695 14.3475 77.1856 14.4975C77.3969 14.6476 77.5457 14.8654 77.6177 15.1413C77.6945 15.422 77.733 15.7608 77.733 16.1674V30.814C77.733 31.1674 77.6945 31.4868 77.6177 31.7627C77.5409 32.0434 77.392 32.2516 77.1664 32.3871C76.9407 32.5275 76.5902 32.5952 76.11 32.5952L76.1148 32.6097ZM68.8116 29.4587C69.8392 29.4587 70.7707 29.1925 71.5966 28.6601C72.4224 28.1277 73.0898 27.4162 73.594 26.5159C74.0934 25.6204 74.3479 24.5846 74.3479 23.4229C74.3479 22.2613 74.0886 21.1916 73.5748 20.2913C73.061 19.3959 72.384 18.6892 71.5437 18.1858C70.7035 17.6824 69.7672 17.4259 68.7396 17.4259C67.5824 17.4259 66.5741 17.6921 65.7098 18.2245C64.8455 18.7569 64.1589 19.4781 63.6596 20.3881C63.1554 21.2981 62.9057 22.3339 62.9057 23.5004C62.9057 24.6669 63.1554 25.6591 63.6596 26.5546C64.1589 27.4549 64.8599 28.1616 65.7482 28.6795C66.6365 29.1974 67.6641 29.4587 68.8164 29.4587H68.8116Z" fill="#E00090"/>
<path d="M96.6707 32.6097C96.1186 32.6097 95.7152 32.4936 95.4655 32.2661C95.2159 32.0386 95.0766 31.6853 95.0526 31.2012L95.2015 29.3039C94.9518 29.7104 94.5628 30.1703 94.0347 30.6882C93.5065 31.2061 92.8103 31.6611 91.946 32.0531C91.0817 32.4452 90.0446 32.6436 88.8394 32.6436C87.6342 32.6436 86.5106 32.4016 85.4687 31.9224C84.4267 31.4432 83.5096 30.7704 82.7222 29.9089C81.9299 29.0473 81.3105 28.0647 80.8591 26.9466C80.4078 25.8334 80.1821 24.6427 80.1821 23.3794C80.1821 22.1161 80.4078 20.9689 80.8591 19.8702C81.3105 18.7715 81.9395 17.8034 82.7414 16.966C83.5432 16.1287 84.4651 15.4752 85.5071 14.9912C86.549 14.512 87.6582 14.27 88.8394 14.27C89.9437 14.27 90.8848 14.4152 91.6627 14.7056C92.4405 14.9961 93.1128 15.3784 93.6745 15.8431C94.2411 16.3126 94.7357 16.8354 95.163 17.4162L95.0478 15.8237C95.0478 15.2671 95.1774 14.8702 95.4415 14.6282C95.7056 14.3862 96.1233 14.27 96.7043 14.27C97.1797 14.27 97.5254 14.3475 97.7415 14.4975C97.9527 14.6476 98.1016 14.8654 98.1736 15.1413C98.2504 15.422 98.2889 15.7608 98.2889 16.1674V30.814C98.2889 31.1674 98.2504 31.4868 98.1736 31.7627C98.0968 32.0434 97.948 32.2516 97.7223 32.3871C97.4966 32.5275 97.1461 32.5952 96.6659 32.5952L96.6707 32.6097ZM89.3675 29.4587C90.3951 29.4587 91.3266 29.1925 92.1525 28.6601C92.9783 28.1277 93.6457 27.4162 94.1499 26.5159C94.6493 25.6204 94.9037 24.5846 94.9037 23.4229C94.9037 22.2613 94.6445 21.1916 94.1307 20.2913C93.6169 19.3959 92.9399 18.6892 92.0996 18.1858C91.2594 17.6824 90.323 17.4259 89.2955 17.4259C88.1383 17.4259 87.13 17.6921 86.2657 18.2245C85.4014 18.7569 84.7148 19.4781 84.2154 20.3881C83.7113 21.2981 83.4616 22.3339 83.4616 23.5004C83.4616 24.6669 83.7113 25.6591 84.2154 26.5546C84.7148 27.4549 85.4158 28.1616 86.3041 28.6795C87.1924 29.1974 88.22 29.4587 89.3723 29.4587H89.3675Z" fill="#E00090"/>
<path d="M140.169 32.152V27.202H138.452V26.2891H143V27.202H141.291V32.152H140.169Z" fill="#525252"/>
<path d="M133.037 32.152V26.2891H134.168L136.865 30.3345V26.2891H137.996V32.152H136.865L134.168 28.1149V32.152H133.037Z" fill="#525252"/>
<path d="M127.04 32.152L129.185 26.2891H130.466L132.602 32.152H131.404L129.821 27.5789L128.23 32.152H127.04ZM127.987 30.8203L128.288 29.9408H131.27L131.563 30.8203H127.987Z" fill="#525252"/>
<path d="M124.758 32.152V27.202H123.041V26.2891H127.589V27.202H125.881V32.152H124.758Z" fill="#525252"/>
<path d="M120.749 32.2524C120.325 32.2524 119.945 32.1798 119.61 32.0347C119.281 31.8895 119.018 31.6773 118.823 31.3981C118.633 31.1189 118.535 30.7811 118.53 30.3847H119.727C119.733 30.5578 119.778 30.7141 119.861 30.8537C119.945 30.9933 120.06 31.105 120.205 31.1887C120.356 31.2669 120.534 31.306 120.741 31.306C120.92 31.306 121.073 31.2781 121.201 31.2222C121.335 31.1608 121.439 31.077 121.511 30.971C121.584 30.8649 121.62 30.7392 121.62 30.5941C121.62 30.4265 121.578 30.2869 121.495 30.1753C121.416 30.0636 121.305 29.9687 121.16 29.8905C121.02 29.8123 120.855 29.7425 120.665 29.6811C120.481 29.6141 120.286 29.5443 120.079 29.4717C119.616 29.321 119.261 29.1199 119.015 28.8687C118.775 28.6174 118.655 28.2852 118.655 27.872C118.655 27.5202 118.739 27.2187 118.907 26.9674C119.08 26.7161 119.317 26.5235 119.618 26.3895C119.92 26.2555 120.263 26.1885 120.649 26.1885C121.045 26.1885 121.391 26.2583 121.687 26.3979C121.989 26.5319 122.226 26.7273 122.399 26.9842C122.578 27.241 122.67 27.5425 122.676 27.8887H121.47C121.464 27.7603 121.425 27.6403 121.352 27.5286C121.285 27.4113 121.19 27.3192 121.067 27.2522C120.945 27.1796 120.799 27.1433 120.632 27.1433C120.487 27.1377 120.353 27.16 120.23 27.2103C120.113 27.2606 120.018 27.3359 119.945 27.4364C119.878 27.5314 119.845 27.6514 119.845 27.7966C119.845 27.9362 119.878 28.0534 119.945 28.1484C120.018 28.2433 120.115 28.3271 120.238 28.3996C120.361 28.4666 120.506 28.5309 120.674 28.5923C120.841 28.6481 121.023 28.7067 121.218 28.7682C121.509 28.8687 121.777 28.9887 122.022 29.1283C122.268 29.2623 122.463 29.4382 122.609 29.656C122.754 29.8738 122.826 30.1613 122.826 30.5187C122.826 30.8258 122.745 31.1106 122.583 31.373C122.422 31.6354 122.187 31.8476 121.88 32.0095C121.578 32.1715 121.201 32.2524 120.749 32.2524Z" fill="#525252"/>
<path d="M116.784 32.152V26.2891H117.914V32.152H116.784Z" fill="#525252"/>
<path d="M114.082 32.2524C113.658 32.2524 113.278 32.1798 112.943 32.0347C112.614 31.8895 112.351 31.6773 112.156 31.3981C111.966 31.1189 111.868 30.7811 111.863 30.3847H113.061C113.066 30.5578 113.111 30.7141 113.195 30.8537C113.278 30.9933 113.393 31.105 113.538 31.1887C113.689 31.2669 113.867 31.306 114.074 31.306C114.253 31.306 114.406 31.2781 114.535 31.2222C114.669 31.1608 114.772 31.077 114.845 30.971C114.917 30.8649 114.953 30.7392 114.953 30.5941C114.953 30.4265 114.912 30.2869 114.828 30.1753C114.75 30.0636 114.638 29.9687 114.493 29.8905C114.353 29.8123 114.188 29.7425 113.999 29.6811C113.814 29.6141 113.619 29.5443 113.412 29.4717C112.949 29.321 112.594 29.1199 112.349 28.8687C112.108 28.6174 111.988 28.2852 111.988 27.872C111.988 27.5202 112.072 27.2187 112.24 26.9674C112.413 26.7161 112.65 26.5235 112.952 26.3895C113.253 26.2555 113.597 26.1885 113.982 26.1885C114.378 26.1885 114.724 26.2583 115.02 26.3979C115.322 26.5319 115.559 26.7273 115.732 26.9842C115.911 27.241 116.003 27.5425 116.009 27.8887H114.803C114.797 27.7603 114.758 27.6403 114.685 27.5286C114.618 27.4113 114.523 27.3192 114.401 27.2522C114.278 27.1796 114.133 27.1433 113.965 27.1433C113.82 27.1377 113.686 27.16 113.563 27.2103C113.446 27.2606 113.351 27.3359 113.278 27.4364C113.211 27.5314 113.178 27.6514 113.178 27.7966C113.178 27.9362 113.211 28.0534 113.278 28.1484C113.351 28.2433 113.449 28.3271 113.571 28.3996C113.694 28.4666 113.839 28.5309 114.007 28.5923C114.174 28.6481 114.356 28.7067 114.551 28.7682C114.842 28.8687 115.11 28.9887 115.355 29.1283C115.601 29.2623 115.797 29.4382 115.942 29.656C116.087 29.8738 116.159 30.1613 116.159 30.5187C116.159 30.8258 116.079 31.1106 115.917 31.373C115.755 31.6354 115.52 31.8476 115.213 32.0095C114.912 32.1715 114.535 32.2524 114.082 32.2524Z" fill="#525252"/>
<path d="M109.363 32.2524C108.938 32.2524 108.559 32.1798 108.224 32.0347C107.894 31.8895 107.632 31.6773 107.436 31.3981C107.246 31.1189 107.149 30.7811 107.143 30.3847H108.341C108.346 30.5578 108.391 30.7141 108.475 30.8537C108.559 30.9933 108.673 31.105 108.818 31.1887C108.969 31.2669 109.148 31.306 109.354 31.306C109.533 31.306 109.686 31.2781 109.815 31.2222C109.949 31.1608 110.052 31.077 110.125 30.971C110.197 30.8649 110.234 30.7392 110.234 30.5941C110.234 30.4265 110.192 30.2869 110.108 30.1753C110.03 30.0636 109.918 29.9687 109.773 29.8905C109.633 29.8123 109.469 29.7425 109.279 29.6811C109.095 29.6141 108.899 29.5443 108.693 29.4717C108.229 29.321 107.875 29.1199 107.629 28.8687C107.389 28.6174 107.269 28.2852 107.269 27.872C107.269 27.5202 107.352 27.2187 107.52 26.9674C107.693 26.7161 107.93 26.5235 108.232 26.3895C108.533 26.2555 108.877 26.1885 109.262 26.1885C109.659 26.1885 110.005 26.2583 110.301 26.3979C110.602 26.5319 110.84 26.7273 111.013 26.9842C111.191 27.241 111.283 27.5425 111.289 27.8887H110.083C110.077 27.7603 110.038 27.6403 109.966 27.5286C109.899 27.4113 109.804 27.3192 109.681 27.2522C109.558 27.1796 109.413 27.1433 109.245 27.1433C109.1 27.1377 108.966 27.16 108.843 27.2103C108.726 27.2606 108.631 27.3359 108.559 27.4364C108.492 27.5314 108.458 27.6514 108.458 27.7966C108.458 27.9362 108.492 28.0534 108.559 28.1484C108.631 28.2433 108.729 28.3271 108.852 28.3996C108.975 28.4666 109.12 28.5309 109.287 28.5923C109.455 28.6481 109.636 28.7067 109.832 28.7682C110.122 28.8687 110.39 28.9887 110.636 29.1283C110.881 29.2623 111.077 29.4382 111.222 29.656C111.367 29.8738 111.44 30.1613 111.44 30.5187C111.44 30.8258 111.359 31.1106 111.197 31.373C111.035 31.6354 110.8 31.8476 110.493 32.0095C110.192 32.1715 109.815 32.2524 109.363 32.2524Z" fill="#525252"/>
<path d="M101.347 32.152L103.491 26.2891H104.773L106.909 32.152H105.711L104.128 27.5789L102.537 32.152H101.347ZM102.294 30.8203L102.595 29.9408H105.577L105.87 30.8203H102.294Z" fill="#525252"/>
<path d="M127.65 24.7461C127.091 24.7461 126.606 24.6232 126.192 24.3776C125.779 24.1263 125.458 23.7773 125.229 23.3306C125 22.8783 124.886 22.3534 124.886 21.756C124.886 21.1529 125.003 20.6225 125.238 20.1646C125.472 19.7012 125.81 19.3382 126.251 19.0758C126.692 18.8133 127.22 18.6821 127.834 18.6821C128.521 18.6821 129.09 18.8468 129.543 19.1763C130.001 19.5057 130.296 19.9636 130.43 20.5499H129.166C129.082 20.293 128.926 20.092 128.697 19.9468C128.473 19.7961 128.183 19.7207 127.826 19.7207C127.446 19.7207 127.122 19.8045 126.854 19.972C126.586 20.1395 126.382 20.374 126.243 20.6755C126.103 20.977 126.033 21.3372 126.033 21.756C126.033 22.1803 126.103 22.5405 126.243 22.8364C126.382 23.1324 126.58 23.3585 126.837 23.5149C127.1 23.6656 127.407 23.741 127.759 23.741C128.272 23.741 128.66 23.6042 128.923 23.3306C129.191 23.0514 129.35 22.6913 129.4 22.2501H127.96V21.4042H130.539V24.6456H129.492L129.409 23.9001C129.286 24.0844 129.141 24.2408 128.973 24.3692C128.811 24.492 128.621 24.5842 128.404 24.6456C128.186 24.7126 127.935 24.7461 127.65 24.7461Z" fill="#525252"/>
<path d="M119.312 24.6469V18.7839H120.442L123.139 22.8294V18.7839H124.27V24.6469H123.139L120.442 20.6098V24.6469H119.312Z" fill="#525252"/>
<path d="M117.365 24.6469V18.7839H118.496V24.6469H117.365Z" fill="#525252"/>
<path d="M113.029 24.6469V18.7839H114.16V23.7674H116.731V24.6469H113.029Z" fill="#525252"/>
<path d="M108.694 24.6469V18.7839H109.825V23.7674H112.396V24.6469H108.694Z" fill="#525252"/>
<path d="M106.747 24.6469V18.7839H107.878V24.6469H106.747Z" fill="#525252"/>
<path d="M101.741 24.6469V18.7839H104.145C104.552 18.7839 104.896 18.8481 105.175 18.9766C105.454 19.105 105.663 19.2837 105.803 19.5126C105.948 19.736 106.021 19.9956 106.021 20.2915C106.021 20.5875 105.957 20.836 105.828 21.037C105.7 21.238 105.529 21.3943 105.317 21.506C105.111 21.6121 104.882 21.6735 104.63 21.6903L104.764 21.5981C105.032 21.6093 105.27 21.6819 105.476 21.8159C105.689 21.9443 105.853 22.1174 105.971 22.3352C106.093 22.553 106.155 22.7903 106.155 23.0471C106.155 23.3598 106.079 23.6362 105.929 23.8763C105.778 24.1164 105.56 24.3063 105.275 24.4459C104.991 24.5799 104.642 24.6469 104.228 24.6469H101.741ZM102.872 23.7256H104.044C104.351 23.7256 104.589 23.6558 104.756 23.5162C104.924 23.3766 105.007 23.1756 105.007 22.9131C105.007 22.6507 104.921 22.4469 104.748 22.3017C104.575 22.1509 104.334 22.0756 104.027 22.0756H102.872V23.7256ZM102.872 21.2296H103.96C104.256 21.2296 104.48 21.1626 104.63 21.0286C104.787 20.8946 104.865 20.7047 104.865 20.4591C104.865 20.219 104.787 20.0319 104.63 19.8979C104.48 19.7583 104.254 19.6885 103.952 19.6885H102.872V21.2296Z" fill="#525252"/>
<path d="M103.616 17.2015V14.5957H104.286L105.045 16.1629L105.797 14.5957H106.463V17.2015H105.905V15.5375L105.265 16.8366H104.818L104.174 15.5375V17.2015H103.616Z" fill="#E00090"/>
<path d="M102.103 17.2015V15.0461H101.347V14.5957H103.417V15.0461H102.661V17.2015H102.103Z" fill="#E00090"/>
</svg>
