<svg width="88" height="68" viewBox="0 0 88 68" fill="none" xmlns="http://www.w3.org/2000/svg">
<rect width="72" height="53" transform="translate(7.96808 3.5)" fill="white"/>
<rect width="76" height="53" transform="translate(5.96808 3.5)" fill="white"/>
<g filter="url(#filter0_d_9356_407)">
<path d="M44.0849 44C52.7755 44 59.8207 37.732 59.8207 30C59.8207 22.268 52.7755 16 44.0849 16C35.3943 16 28.3491 22.268 28.3491 30C28.3491 37.732 35.3943 44 44.0849 44Z" fill="#D72D8A"/>
<path d="M56.487 19.8275C53.9072 19.7119 51.4192 20.9046 50.1219 23.0771C49.4962 24.1266 49.2375 25.5578 49.2265 26.7816C49.2137 28.1468 49.4008 29.3908 50.0926 30.5945C51.7953 33.5541 55.6173 34.9816 59.1384 33.5082C62.9458 31.9156 64.7604 27.0349 62.5072 23.4238C61.243 21.3982 58.9568 19.9394 56.4852 19.8293L56.487 19.8275Z" fill="white"/>
<path d="M31.4523 19.8274C28.9807 19.9375 26.6945 21.398 25.4303 23.4219C23.1771 27.0329 24.9899 31.9155 28.7991 33.5063C32.322 34.9797 36.144 33.5522 37.845 30.5925C38.5367 29.3889 38.7239 28.1448 38.711 26.7797C38.7 25.5558 38.4431 24.1246 37.8156 23.0751C36.5183 20.9026 34.0321 19.71 31.4505 19.8256L31.4523 19.8274Z" fill="white"/>
<path d="M67.7787 25.1357C67.4778 24.5302 67.0062 24.4238 66.2429 24.4238C66.1879 24.4238 65.4117 24.3522 65.3567 24.3577C63.7989 20.4403 60.764 17.6807 56.1438 17.6807C53.7328 17.6807 51.4741 18.3375 49.6466 19.9449C48.2649 21.1596 47.3971 22.9504 46.7475 24.6458C45.8393 24.3504 44.8888 24.1963 44.0374 24.1816V24.1779C44.0374 24.1779 44.0283 24.1779 44.0246 24.1779C44.0209 24.1779 44.0154 24.1779 44.0117 24.1779C43.9971 24.1779 43.9842 24.1779 43.9695 24.1779C43.9549 24.1779 43.942 24.1779 43.9273 24.1779C43.9237 24.1779 43.9182 24.1779 43.9145 24.1779C43.9108 24.1779 43.9053 24.1779 43.9016 24.1779V24.1816C43.0484 24.1963 42.0998 24.3504 41.1916 24.6458C40.5439 22.9504 39.6741 21.1596 38.2925 19.9449C36.465 18.3375 34.2062 17.6807 31.7952 17.6807C27.1732 17.6807 24.1402 20.4403 22.5824 24.3577C22.5273 24.3541 21.7512 24.4238 21.6961 24.4238C20.9328 24.4238 20.4613 24.5302 20.1604 25.1357C19.9035 25.6531 19.9347 26.1614 20.4044 26.6036C20.8044 26.9816 21.5842 26.8476 22.0961 27.0036C22.1861 27.0311 22.6301 27.1596 22.6961 28.1394C22.8888 30.9522 24.7861 33.743 27.1622 35.2091C29.2172 36.4752 31.8246 36.6843 34.142 36.1522C36.3824 35.6385 38.5402 34.3889 39.8136 32.4348C40.5108 31.3651 40.964 30.1504 41.1879 28.8953C41.2429 28.5852 41.2961 28.4146 41.3218 28.0495C41.364 27.4091 41.4154 27.3082 41.6558 26.9596C42.0081 26.4476 43.2943 26.2843 43.9677 26.2715C44.6411 26.2843 45.9292 26.4476 46.2796 26.9596C46.52 27.3082 46.5695 27.4109 46.6136 28.0495C46.6374 28.4146 46.6906 28.5852 46.7475 28.8953C46.9714 30.1486 47.4264 31.3651 48.1218 32.4348C49.3952 34.3889 51.553 35.6403 53.7934 36.1522C56.1108 36.6825 58.7182 36.4752 60.7732 35.2091C63.1494 33.7449 65.0484 30.9522 65.2393 28.1394C65.3053 27.1596 65.7494 27.0311 65.8393 27.0036C66.3512 26.8476 67.1292 26.9816 67.531 26.6036C68.0007 26.1596 68.0338 25.6513 67.775 25.1357H67.7787ZM37.8448 30.5926C36.142 33.5522 32.32 34.9797 28.7989 33.5064C24.9916 31.9137 23.1769 27.033 25.4301 23.4219C26.6943 21.3963 28.9805 19.9375 31.4521 19.8275C34.0319 19.7119 36.52 20.9045 37.8172 23.077C38.4429 24.1265 38.7016 25.5577 38.7127 26.7816C38.7255 28.1467 38.5383 29.3908 37.8466 30.5944L37.8448 30.5926ZM59.142 33.5082C55.6191 34.9816 51.7971 33.5541 50.0961 30.5944C49.4044 29.3908 49.2172 28.1467 49.2301 26.7816C49.2411 25.5577 49.498 24.1265 50.1255 23.077C51.4227 20.9045 53.909 19.7119 56.4906 19.8275C58.9622 19.9375 61.2484 21.3981 62.5127 23.4219C64.7659 27.033 62.953 31.9155 59.1438 33.5064L59.142 33.5082Z" fill="#741A4B"/>
<path d="M31.7292 28.3931C31.6614 28.3912 31.5916 28.3747 31.5237 28.3582C31.4559 28.3343 31.3861 28.3123 31.3256 28.2775C31.1953 28.2151 31.0889 28.1325 30.9825 28.0646C30.9476 28.0408 30.8504 28.0977 30.8118 28.0683C30.632 27.9252 30.5017 27.7105 30.4265 27.5032C30.388 27.3986 30.3623 27.294 30.3439 27.1931L30.3403 27.1747V27.1655L30.3384 27.16L30.799 26.9949C30.799 26.9949 30.8045 26.9912 30.8026 26.9931C30.8008 26.9931 30.7953 27.0041 30.7935 27.0096C30.7935 27.0151 30.7935 27.0151 30.7935 27.0096C30.7935 27.0041 30.788 26.9986 30.788 26.9986C30.788 26.9986 30.788 26.9986 30.7898 26.9986C30.7072 26.9527 31.5017 27.3967 31.1659 27.2096V27.2114L31.1623 27.2151L31.1568 27.2224L31.1329 27.2518C31.1182 27.272 31.1017 27.2921 31.0889 27.3123C31.0669 27.3527 31.0412 27.3967 31.0283 27.4371C31.0192 27.4573 31.01 27.4793 31.0045 27.4958C30.999 27.5142 30.9861 27.5344 30.9825 27.549C30.977 27.5655 30.9659 27.5839 30.9604 27.5967C30.9568 27.6041 30.9513 27.6114 30.9476 27.6206C30.9458 27.6261 30.9403 27.6334 30.9366 27.6426C31.0228 27.6481 31.0907 27.6004 31.1439 27.5435C31.1182 27.5729 31.0999 27.6059 31.0815 27.6426C31.0724 27.661 31.065 27.6811 31.0577 27.6995C31.0522 27.7197 31.0485 27.738 31.0448 27.76C31.0577 27.76 31.0705 27.76 31.0815 27.7619H31.1219C31.1348 27.7655 31.1476 27.7674 31.1604 27.7692L31.2026 27.7747L31.2889 27.7912C31.3072 27.7949 31.3127 27.7967 31.3219 27.7986C31.3311 27.8022 31.3421 27.8041 31.3513 27.8077C31.3916 27.8188 31.432 27.8389 31.4779 27.8426C31.5237 27.8499 31.5715 27.8463 31.621 27.8371C31.6705 27.8279 31.7219 27.8114 31.7733 27.7857C31.8357 27.7509 31.8981 27.705 31.9549 27.6518C31.9843 27.6261 32.0118 27.5967 32.0393 27.5674C32.0669 27.538 32.0944 27.5032 32.1072 27.483C32.1421 27.4334 32.1715 27.3784 32.188 27.3233C32.21 27.2518 32.2338 27.1747 32.2467 27.1068C32.2522 27.072 32.2559 27.0389 32.2522 27.0114C32.2467 26.9821 32.2155 26.9564 32.1843 26.9435C32.1109 26.9142 32.0779 26.8885 32.0614 26.8463C32.0448 26.8059 32.0412 26.7545 32.0283 26.6977C32.0155 26.6426 31.9953 26.5821 31.9604 26.538C31.9256 26.494 31.8779 26.4628 31.8247 26.4701C31.7971 26.472 31.7568 26.4848 31.7017 26.5013C31.654 26.5197 31.6045 26.5435 31.5623 26.5766C31.5513 26.5839 31.5403 26.5931 31.5292 26.6004C31.5164 26.6077 31.5036 26.6151 31.4926 26.6224C31.4687 26.6353 31.4467 26.6499 31.4265 26.661C31.388 26.6848 31.3549 26.6921 31.3348 26.6866C31.2081 26.6408 31.0889 26.6573 30.9953 26.6977C30.9017 26.7435 30.8302 26.8114 30.7806 26.8885C30.7274 26.9619 30.6981 27.0408 30.6614 27.1068C30.643 27.1399 30.6302 27.1729 30.6045 27.2004C30.5861 27.2298 30.5604 27.2555 30.5274 27.2811C30.432 27.3564 30.3861 27.4977 30.4063 27.6426C30.4228 27.7839 30.5017 27.916 30.6045 28.0151C30.7072 28.116 30.8302 28.1894 30.9476 28.2628C31.065 28.3362 31.177 28.4096 31.2907 28.5215C31.3421 28.4775 31.3861 28.4463 31.4302 28.4132C31.4522 28.3986 31.4724 28.3857 31.4944 28.3747C31.5146 28.3619 31.5348 28.349 31.5549 28.3399C31.5953 28.3233 31.6357 28.305 31.676 28.2921L31.7072 28.2848L31.7494 28.272C31.777 28.2646 31.8063 28.2573 31.8357 28.2499C31.865 28.2426 31.8962 28.2389 31.9219 28.2316L32.0026 28.2114C32.0283 28.2041 32.0577 28.1986 32.0834 28.1912L32.1531 28.1655C32.2045 28.1509 32.232 28.1288 32.2687 28.1087C32.2852 28.0977 32.287 28.0885 32.2962 28.0793L32.3072 28.0665C32.3072 28.0665 32.3109 28.0555 32.3127 28.0499C32.3127 28.0426 32.3127 28.0261 32.2999 28.0022C32.2944 27.9912 32.287 27.9784 32.2797 27.9692C32.2724 27.9582 32.2595 27.9454 32.2503 27.9362C32.232 27.916 32.2045 27.9032 32.1861 27.8921C32.1659 27.8756 32.1531 27.872 32.1513 27.861C32.1494 27.8499 32.1476 27.8408 32.1476 27.8298C32.1476 27.8188 32.1476 27.8114 32.1513 27.7931C32.1549 27.76 32.1604 27.738 32.1659 27.6921L32.1751 27.6316L32.1843 27.5582C32.188 27.5325 32.1898 27.5087 32.1916 27.483C32.1935 27.4536 32.1971 27.4243 32.1971 27.3967C32.3036 27.4499 32.3861 27.4114 32.4559 27.3655C32.5292 27.3123 32.5898 27.2499 32.6412 27.2499C32.7825 27.2499 32.999 27.349 33.1604 27.3637C33.0724 27.4738 33.2448 27.5399 33.2485 27.5655C33.2669 27.683 33.2705 27.8151 33.265 27.9655C33.2595 28.1123 33.2302 28.294 33.1788 28.4628C33.1054 28.7123 32.9017 28.8573 32.7182 29.0536C32.6026 29.1784 32.4503 29.2775 32.2889 29.3545C32.2485 29.3766 32.2063 29.3931 32.1659 29.4077C32.1256 29.4224 32.0834 29.4389 32.0393 29.4518C31.9623 29.4811 31.8485 29.5032 31.7458 29.5215C31.3219 29.5821 30.8907 29.4683 30.6192 29.2977C30.4008 29.1674 30.1898 29.0298 29.9898 28.8555C29.7916 28.683 29.6045 28.4665 29.4797 28.2022C29.3549 27.9399 29.2999 27.6298 29.3348 27.3527C29.3678 27.0701 29.4889 26.8059 29.6742 26.6206C29.6981 26.5986 29.7311 26.5545 29.7715 26.494C29.8137 26.4334 29.8669 26.36 29.9329 26.2793C30.0632 26.116 30.2504 25.9344 30.4705 25.7857C30.6907 25.6353 30.9421 25.5233 31.1659 25.4573C31.2228 25.4426 31.276 25.4279 31.3274 25.4151C31.3788 25.4022 31.4265 25.3967 31.4705 25.3894C31.5696 25.3729 31.6742 25.3692 31.7384 25.3729C31.7788 25.3747 31.821 25.3784 31.8614 25.3839C31.9036 25.3894 31.9458 25.3967 31.977 25.4041C32.0063 25.4096 32.0485 25.4206 32.0907 25.4316C32.1329 25.4426 32.1751 25.4573 32.2173 25.472C32.3861 25.5307 32.5513 25.6096 32.7054 25.7013C32.8577 25.7949 33.0026 25.8995 33.1182 26.0206C33.2357 26.1399 33.3256 26.2701 33.388 26.4114C33.4173 26.483 33.4448 26.5564 33.4577 26.6371C33.465 26.6775 33.4687 26.716 33.4705 26.7545C33.4705 26.7912 33.4687 26.8261 33.465 26.8628C33.4595 26.9343 33.443 27.0077 33.4228 27.0793C33.399 27.1527 33.3733 27.2261 33.3384 27.2995C33.2724 27.4444 33.199 27.5857 33.1311 27.7233C33.0614 27.8665 32.9935 28.0022 32.9274 28.1325C32.8448 28.349 32.665 28.4701 32.4669 28.571C32.3458 28.6426 32.2265 28.694 32.1054 28.7472C31.9861 28.8004 31.865 28.8555 31.7311 28.9142C31.6118 28.9674 31.4742 28.9894 31.3348 28.9655C31.265 28.9564 31.1953 28.949 31.1237 28.9325C31.0467 28.9123 31.0008 28.8977 30.9439 28.8775C30.7256 28.7967 30.4981 28.6775 30.2577 28.5123C30.0614 28.3821 29.9017 28.1527 29.8375 27.9288C29.799 27.8132 29.7935 27.7068 29.788 27.6004C29.7916 27.5032 29.799 27.3986 29.8228 27.316C29.8338 27.2738 29.8448 27.2279 29.8595 27.1876C29.8742 27.149 29.8907 27.1105 29.9091 27.0738C29.9421 26.9949 29.9861 26.9343 30.0283 26.8646C30.0724 26.7986 30.1237 26.7417 30.1751 26.6793L30.1806 26.6738C30.1806 26.6738 30.1806 26.6738 30.1843 26.6683L30.1953 26.6518C30.21 26.6298 30.2283 26.6059 30.2448 26.5857C30.2815 26.5435 30.3237 26.505 30.3696 26.4738C30.4595 26.4096 30.5604 26.3729 30.6577 26.36C30.7549 26.3472 30.8522 26.3545 30.9494 26.3839C31.0448 26.4132 31.1421 26.4683 31.2247 26.5545C31.2944 26.6261 31.3421 26.7178 31.3659 26.7967C31.3659 26.8077 31.3659 26.8169 31.3659 26.8279C31.3659 26.8481 31.3678 26.8665 31.3715 26.883C31.377 26.916 31.3861 26.9435 31.3971 26.9674C31.4228 27.0132 31.4614 27.0481 31.5146 27.0811C31.5439 27.1013 31.5916 27.1564 31.6338 27.2022C31.676 27.2463 31.7109 27.283 31.7219 27.3013C31.7274 27.3142 31.6889 27.4022 31.6981 27.4224C31.7109 27.4555 31.7568 27.4224 31.7733 27.4518C31.7751 27.4555 31.7825 27.5252 31.8063 27.6022C31.8283 27.6738 31.8669 27.7509 31.8687 27.76C31.887 27.8958 31.8724 28.0004 31.8338 28.0995C31.7971 28.1986 31.7384 28.2903 31.7256 28.4004L31.7292 28.3931Z" fill="black"/>
<path d="M57.408 27.4697C57.3951 27.5193 57.3915 27.5633 57.386 27.611C57.3823 27.6569 57.3823 27.6973 57.3805 27.7413C57.3805 27.778 57.3805 27.8184 57.3768 27.8532C57.3731 27.8844 57.3695 27.9193 57.3584 27.9431C57.3511 27.9615 57.2539 27.9578 57.2465 27.9725C57.2373 27.9872 57.2318 27.9945 57.2282 28.0074C57.2245 28.0165 57.2208 28.0239 57.219 28.0349C57.2153 28.0441 57.2135 28.0532 57.2135 28.0642C57.2098 28.0734 57.208 28.0863 57.208 28.0991L57.1988 28.1376C57.1933 28.1505 57.186 28.1633 57.1805 28.178C57.1805 28.1817 57.1786 28.1853 57.1768 28.1908L57.1658 28.2037C57.1658 28.2037 57.1511 28.2202 57.1456 28.2294C57.1309 28.2459 57.1217 28.2661 57.1016 28.2808C57.0685 28.3083 57.0355 28.3358 56.9915 28.356C56.9474 28.3743 56.9016 28.3945 56.852 28.4129C56.7988 28.4294 56.7438 28.4477 56.6869 28.4716C56.6575 28.4844 56.6373 28.4899 56.6098 28.5028C56.5841 28.5156 56.5566 28.5303 56.5291 28.5413C56.4539 28.4771 56.3915 28.4019 56.3456 28.3248C56.3089 28.389 56.263 28.4569 56.2135 28.5175C56.1162 28.4514 56.0263 28.4 55.9309 28.356C55.8355 28.3119 55.7364 28.2642 55.6465 28.1964C55.5548 28.1303 55.4722 28.0422 55.4245 27.934C55.3786 27.8257 55.3731 27.6936 55.4208 27.578C55.4759 27.4275 55.6043 27.2569 55.7236 27.2092C55.7896 27.1817 55.83 27.1413 55.8649 27.0899C55.8997 27.0404 55.9254 26.9762 55.9584 26.9175C55.9731 26.8863 55.9896 26.8551 56.008 26.8294C56.0263 26.8019 56.0447 26.7743 56.0667 26.7541C56.1089 26.7138 56.1566 26.6826 56.208 26.6936C56.2594 26.6991 56.375 26.7413 56.4722 26.7927C56.5639 26.8386 56.5951 26.8991 56.6392 26.8863C56.7273 26.8459 56.8208 26.8551 56.8906 26.8863C56.9603 26.9156 57.0062 26.9652 57.0318 27.0129C57.0557 27.0624 57.0667 27.1119 57.063 27.1633C57.063 27.1908 57.0447 27.2129 57.0392 27.2349C57.0337 27.2569 57.0318 27.2771 57.0392 27.2991C57.0612 27.367 57.008 27.4661 56.9328 27.545C56.9236 27.556 56.9126 27.5633 56.9052 27.5725C56.8906 27.5872 56.8759 27.6019 56.8612 27.6165C56.8318 27.6459 56.7988 27.6734 56.7676 27.6991C56.7034 27.7505 56.6355 27.7945 56.5731 27.8239C56.5126 27.8532 56.4557 27.8679 56.4355 27.8606C56.4337 27.8606 56.43 27.8606 56.4282 27.8606V27.8569C56.4282 27.8716 56.4318 27.8899 56.43 27.9046C56.43 27.9083 56.43 27.9119 56.43 27.9156V27.9193C56.4337 27.8881 56.4227 27.9908 56.4373 27.8496H56.4355L56.4263 27.8477C56.4135 27.8459 56.4006 27.8422 56.3878 27.8404C56.3603 27.8367 56.3456 27.8349 56.3254 27.8349C56.3052 27.8349 56.2851 27.8349 56.2612 27.8349C56.2153 27.8367 56.1621 27.8441 56.0961 27.8496C56.1254 27.7486 56.1566 27.6826 56.1768 27.633C56.197 27.5835 56.208 27.5505 56.2135 27.5175C56.2208 27.4844 56.2245 27.4477 56.2392 27.4092V27.4055C56.052 27.3009 56.6594 27.6404 55.819 27.1707C55.8208 27.1725 55.8245 27.1798 55.8245 27.1817C55.8245 27.1835 55.8245 27.1798 55.8263 27.1725C55.8282 27.1652 55.8337 27.1615 55.8318 27.1633C55.8318 27.1633 55.83 27.1633 55.8282 27.1633L55.3713 27.3248V27.3266V27.334L55.3841 27.3633L55.4043 27.4239C55.4172 27.4642 55.4318 27.5046 55.4447 27.545C55.4612 27.5945 55.474 27.7395 55.5199 27.8991C55.5328 27.9395 55.5456 27.978 55.5584 28.0165C55.5731 28.0551 55.5896 28.0936 55.6043 28.1266C55.6373 28.1945 55.6722 28.2514 55.6942 28.2789C55.7805 28.3798 55.8997 28.4716 56.041 28.545C56.1107 28.5817 56.1878 28.6129 56.2594 28.6404C56.3328 28.6642 56.4043 28.6899 56.4777 28.7083C56.4502 28.6 56.5273 28.545 56.6025 28.5028C56.6795 28.4569 56.7603 28.4184 56.7731 28.3725C56.7933 28.3119 56.7878 28.2275 56.786 28.1413C56.7823 28.0551 56.7823 27.967 56.7933 27.8954C56.7383 27.9211 56.7016 27.8954 56.6869 27.8551C56.6704 27.8184 56.6667 27.7762 56.6575 27.7707C56.5786 27.7211 56.5071 27.6734 56.4392 27.6037C56.375 27.5358 56.3199 27.4477 56.2979 27.3468C56.2832 27.2752 56.2594 27.2147 56.241 27.1486C56.2318 27.1156 56.2245 27.0826 56.2208 27.0459V27.033V27.0257C56.2208 27.0239 56.2208 27.0257 56.2208 27.0202L56.2135 27C56.1951 26.9468 56.164 26.8954 56.1217 26.8514C56.0392 26.7652 55.9328 26.7193 55.8245 26.7083C55.7584 26.7028 55.6869 26.7083 55.6153 26.7376C55.5438 26.7652 55.4722 26.8165 55.4172 26.8844L55.397 26.9101L55.3878 26.923C55.3878 26.923 55.386 26.9266 55.3841 26.9285L55.3731 26.9413L55.3511 26.9688C55.3364 26.9872 55.3217 27.0055 55.3071 27.0257C55.2465 27.1028 55.2006 27.1964 55.1529 27.2936C55.1346 27.3431 55.1162 27.3945 55.0997 27.4477C55.0832 27.5009 55.0759 27.5541 55.0667 27.6092C55.0575 27.6642 55.0612 27.7193 55.0594 27.7743C55.0594 27.8294 55.0704 27.8844 55.0777 27.9395C55.0906 27.9927 55.1052 28.0459 55.1254 28.0973C55.1493 28.1468 55.1676 28.1982 55.2006 28.2422L55.2465 28.3101C55.263 28.3321 55.2814 28.3505 55.2997 28.3707C55.3181 28.3908 55.3346 28.411 55.3529 28.4294C55.3731 28.4459 55.3933 28.4624 55.4135 28.4789C55.4337 28.4954 55.452 28.5119 55.474 28.5266C55.4961 28.5395 55.5181 28.5523 55.5383 28.567C55.5603 28.5798 55.5805 28.5927 55.6025 28.6055C55.6245 28.6147 55.6484 28.6257 55.6704 28.6349C55.7584 28.6771 55.8502 28.6954 55.9328 28.7175C55.9988 28.7303 56.0667 28.7395 56.1309 28.7541C56.1933 28.7652 56.2539 28.7707 56.3144 28.7798C56.3383 28.7853 56.3933 28.789 56.4355 28.7908C56.4795 28.7908 56.5236 28.789 56.5658 28.7853C56.6484 28.7743 56.7291 28.7578 56.8006 28.734C56.9438 28.6881 57.0594 28.6257 57.1639 28.5633C57.2685 28.5009 57.3603 28.433 57.4447 28.3652C57.5291 28.2973 57.6062 28.2257 57.6759 28.1523C57.6887 28.1395 57.7217 28.0991 57.7438 28.0734L57.8117 27.9853C57.8557 27.9266 57.8979 27.8661 57.9346 27.8037C58.0098 27.6808 58.0759 27.5523 58.1181 27.4275C58.1603 27.3028 58.1713 27.1817 58.1493 27.0771C58.1438 27.0514 58.1456 27.0074 58.1401 26.9413C58.1346 26.8752 58.1107 26.7872 58.0704 26.7009C58.03 26.6147 57.9731 26.5248 57.8961 26.4367C57.819 26.3486 57.7217 26.2606 57.6098 26.178C57.4979 26.0973 57.3731 26.0202 57.2428 25.9523C57.1768 25.9193 57.1126 25.8881 57.0465 25.8606C56.9823 25.833 56.9089 25.8074 56.8649 25.7908C56.7474 25.7505 56.6153 25.7248 56.5162 25.7175C56.4722 25.7156 56.4318 25.7119 56.397 25.7101C56.364 25.7101 56.3364 25.7064 56.3144 25.7083C56.0906 25.7119 55.8447 25.7798 55.6135 25.9046C55.3823 26.0294 55.1713 26.211 55.0043 26.4257C54.8355 26.6386 54.7089 26.8826 54.6263 27.1285C54.6062 27.189 54.5896 27.2514 54.5695 27.3119C54.5529 27.3725 54.5401 27.4349 54.5254 27.4936C54.5016 27.6147 54.4795 27.7303 54.463 27.8514C54.4575 27.8844 54.4557 27.9193 54.4539 27.9523C54.4539 27.9853 54.4575 28.0165 54.463 28.0496C54.474 28.1119 54.4851 28.1743 54.5107 28.2275C54.5346 28.2826 54.5621 28.3358 54.5915 28.3835C54.6245 28.4312 54.6594 28.4752 54.6942 28.5175C54.7273 28.5615 54.7676 28.5982 54.8043 28.6349C54.8428 28.6716 54.8759 28.7119 54.9144 28.745C54.9511 28.7817 54.986 28.8184 55.0208 28.8606C55.0557 28.8991 55.0906 28.9413 55.1217 28.989C55.2373 29.1541 55.4318 29.2679 55.63 29.334C55.83 29.4 56.0282 29.433 56.2062 29.4881C56.2777 29.5138 56.3511 29.5248 56.4208 29.5376C56.4924 29.5505 56.5621 29.5486 56.6318 29.5505C56.7676 29.5468 56.9126 29.5193 57.008 29.4826C57.0612 29.4642 57.1144 29.4441 57.1676 29.4202C57.2227 29.3927 57.2795 29.3633 57.3346 29.3321C57.3896 29.3028 57.452 29.2569 57.5089 29.2147C57.5676 29.1743 57.63 29.1156 57.6906 29.0587C57.7034 29.0459 57.7162 29.0349 57.7273 29.0239C57.7401 29.011 57.7529 28.9982 57.7639 28.9853C57.7878 28.9615 57.8098 28.9395 57.83 28.9175C57.8722 28.8789 57.9052 28.8386 57.9401 28.8055C57.975 28.7725 58.0098 28.7413 58.0428 28.7064C58.0759 28.6716 58.1181 28.6386 58.1548 28.5908C58.175 28.5652 58.2098 28.5175 58.2373 28.4532C58.252 28.4202 58.2649 28.3853 58.2795 28.3468C58.2924 28.3101 58.2997 28.2716 58.3089 28.233C58.3181 28.1927 58.3236 28.1597 58.3273 28.1266C58.3309 28.0954 58.3364 28.0606 58.3364 28.0349C58.3383 27.9835 58.3383 27.9376 58.3346 27.9138C58.3291 27.8863 58.2465 27.8642 58.2337 27.8312C58.2172 27.7872 58.2594 27.7395 58.2447 27.7009C58.2447 27.6954 58.186 27.6532 58.1273 27.6074C58.0704 27.5633 58.0135 27.5119 58.0062 27.5083C57.8924 27.4624 57.797 27.4551 57.7034 27.4642C57.6098 27.4716 57.5181 27.4936 57.419 27.4771L57.408 27.4697Z" fill="black"/>
<path d="M39.5107 35.9373C39.5107 35.9373 44.5805 37.2529 47.5419 37.2529C44.0979 39.7519 40.9915 39.2584 39.5107 35.9373Z" fill="black"/>
</g>
<defs>
<filter id="filter0_d_9356_407" x="0" y="0" width="87.9362" height="68" filterUnits="userSpaceOnUse" color-interpolation-filters="sRGB">
<feFlood flood-opacity="0" result="BackgroundImageFix"/>
<feColorMatrix in="SourceAlpha" type="matrix" values="0 0 0 0 0 0 0 0 0 0 0 0 0 0 0 0 0 0 127 0" result="hardAlpha"/>
<feOffset dy="4"/>
<feGaussianBlur stdDeviation="10"/>
<feComposite in2="hardAlpha" operator="out"/>
<feColorMatrix type="matrix" values="0 0 0 0 0.87451 0 0 0 0 0.341176 0 0 0 0 0.631373 0 0 0 0.64 0"/>
<feBlend mode="normal" in2="BackgroundImageFix" result="effect1_dropShadow_9356_407"/>
<feBlend mode="normal" in="SourceGraphic" in2="effect1_dropShadow_9356_407" result="shape"/>
</filter>
</defs>
</svg>
