<svg width="97" height="97" viewBox="0 0 97 97" fill="none" xmlns="http://www.w3.org/2000/svg">
<path d="M42.4375 60.625L54.5625 48.5M54.5625 60.625L42.4375 48.5" stroke="#1C274C" stroke-width="10" stroke-linecap="round"/>
<path d="M88.9167 47.6832C88.9167 37.0441 88.9167 31.7245 85.8066 28.2667C85.5209 27.9487 85.2181 27.646 84.9001 27.3599C81.442 24.25 76.1228 24.25 65.4835 24.25H63.9731C59.3103 24.25 56.979 24.25 54.8066 23.6307C53.6131 23.2905 52.4625 22.814 51.3781 22.2107C49.4041 21.1123 47.7555 19.4638 44.4583 16.1667L42.2342 13.9427C41.1292 12.8377 40.5767 12.2851 39.9961 11.8037C37.4926 9.72845 34.4215 8.45633 31.1838 8.15357C30.4328 8.08333 29.6514 8.08333 28.0886 8.08333C24.5217 8.08333 22.7382 8.08333 21.2527 8.36362C14.7129 9.5975 9.59751 14.7129 8.36363 21.2527C8.08334 22.7382 8.08334 24.5217 8.08334 28.0886M88.8815 64.6667C88.7364 74.6884 87.9932 80.3697 84.1815 84.1814C79.4466 88.9167 71.8253 88.9167 56.5833 88.9167H40.4167C25.1746 88.9167 17.5536 88.9167 12.8184 84.1814C8.08334 79.4466 8.08334 71.8253 8.08334 56.5833V44.4583" stroke="#1C274C" stroke-width="10" stroke-linecap="round"/>
</svg>
