<svg width="163" height="184" viewBox="0 0 163 184" fill="none" xmlns="http://www.w3.org/2000/svg">
<path d="M32.5095 26.7201C33.7452 26.7201 34.7469 25.7184 34.7469 24.4827C34.7469 23.247 33.7452 22.2453 32.5095 22.2453C31.2738 22.2453 30.2721 23.247 30.2721 24.4827C30.2721 25.7184 31.2738 26.7201 32.5095 26.7201Z" fill="#CFCFCF"/>
<path d="M160.636 92.8606C161.872 92.8606 162.873 91.8588 162.873 90.6231C162.873 89.3874 161.872 88.3857 160.636 88.3857C159.4 88.3857 158.399 89.3874 158.399 90.6231C158.399 91.8588 159.4 92.8606 160.636 92.8606Z" fill="#CFCFCF"/>
<path d="M146.275 43.9343V53.7515" stroke="#999999" stroke-linecap="round" stroke-linejoin="round"/>
<path d="M141.367 48.8432H151.207" stroke="#999999" stroke-linecap="round" stroke-linejoin="round"/>
<path d="M5.40892 126.171V135.989" stroke="#999999" stroke-linecap="round" stroke-linejoin="round"/>
<path d="M0.500575 131.079H10.3178" stroke="#999999" stroke-linecap="round" stroke-linejoin="round"/>
<path d="M65.7056 178.134L69.8608 150.326L77.8516 151.513L73.7421 179.047L65.7056 178.134Z" fill="#DBDBDB" stroke="#999999" stroke-linecap="round" stroke-linejoin="round"/>
<path d="M126.846 90.6233L123.422 113.591C122.568 119.329 120.591 124.842 117.603 129.814C114.614 134.786 110.674 139.12 106.008 142.567C101.342 146.013 96.0417 148.505 90.4107 149.899C84.7798 151.293 78.929 151.563 73.1938 150.691C61.6726 148.907 51.3266 142.633 44.4173 133.243C37.508 123.852 34.5975 112.108 36.322 100.578L39.7694 77.6097" stroke="#999999" stroke-linecap="round" stroke-linejoin="round"/>
<path d="M123.513 38.4318L112.486 112.176C111.89 116.508 110.44 120.68 108.22 124.449C106 128.217 103.055 131.508 99.5541 134.13C96.0535 136.752 92.0673 138.653 87.8266 139.724C83.5859 140.794 79.1749 141.013 74.8491 140.366C70.5234 139.72 66.369 138.221 62.6265 135.958C58.884 133.694 55.6278 130.711 53.0467 127.18C50.4656 123.649 48.6107 119.641 47.5897 115.388C46.5686 111.135 46.4016 106.722 47.0983 102.404L58.1028 28.6831C59.3986 20.0091 64.087 12.2051 71.1367 6.98799C78.1864 1.77084 87.0199 -0.432154 95.6938 0.863642C104.368 2.15944 112.172 6.84788 117.389 13.8976C122.606 20.9472 124.809 29.7807 123.513 38.4547V38.4318Z" fill="#DBDBDB" stroke="#999999" stroke-linecap="round" stroke-linejoin="round"/>
<path d="M122.828 42.9066L121.778 49.9613L100.477 46.765C100.014 46.6981 99.5694 46.5402 99.1681 46.3004C98.7669 46.0606 98.4171 45.7437 98.139 45.3679C97.8609 44.9922 97.66 44.5651 97.548 44.1113C97.4359 43.6575 97.4148 43.186 97.486 42.724C97.6269 41.7923 98.1313 40.9544 98.8887 40.3938C99.6461 39.8333 100.595 39.5957 101.527 39.7331L122.828 42.9066Z" fill="#8E8E8E"/>
<path d="M81.7099 40.3721C81.6402 40.8357 81.4797 41.281 81.2376 41.6824C80.9955 42.0838 80.6765 42.4335 80.2989 42.7113C79.9214 42.9892 79.4927 43.1898 79.0374 43.3016C78.5822 43.4134 78.1093 43.4343 77.646 43.363L56.3676 40.1895L57.4178 33.1347L78.6962 36.3311C79.1596 36.3982 79.6052 36.556 80.0075 36.7954C80.4099 37.0349 80.7611 37.3514 81.041 37.7267C81.3209 38.102 81.524 38.5289 81.6388 38.9828C81.7536 39.4367 81.7777 39.9089 81.7099 40.3721Z" fill="#8E8E8E"/>
<path d="M119.951 62.1535L118.901 69.2082L97.5998 66.0119C97.1362 65.9422 96.691 65.7817 96.2896 65.5396C95.8881 65.2975 95.5385 64.9785 95.2606 64.6009C94.9827 64.2234 94.7821 63.7947 94.6703 63.3394C94.5585 62.8842 94.5376 62.4113 94.609 61.948C94.7501 61.0148 95.2536 60.175 96.0102 59.6108C96.7668 59.0465 97.7154 58.8035 98.65 58.9343L119.951 62.1535Z" fill="#8E8E8E"/>
<path d="M78.8332 59.6645C78.6923 60.5962 78.1878 61.4341 77.4304 61.9947C76.673 62.5552 75.7243 62.7928 74.7921 62.6554L53.5137 59.4362L54.5868 52.3815L75.8652 55.555C76.3312 55.627 76.7783 55.791 77.1805 56.0372C77.5827 56.2834 77.932 56.6071 78.2081 56.9894C78.4842 57.3717 78.6816 57.8051 78.7889 58.2643C78.8962 58.7235 78.9113 59.1994 78.8332 59.6645Z" fill="#8E8E8E"/>
<path d="M117.098 81.377L116.048 88.4317L94.7237 85.2582C94.2601 85.1886 93.8149 85.0281 93.4134 84.786C93.012 84.5438 92.6624 84.2248 92.3845 83.8473C92.1066 83.4697 91.906 83.041 91.7942 82.5858C91.6824 82.1305 91.6615 81.6577 91.7328 81.1944C91.8025 80.7308 91.963 80.2855 92.2052 79.8841C92.4473 79.4827 92.7663 79.133 93.1438 78.8552C93.5214 78.5773 93.9501 78.3767 94.4053 78.2649C94.8606 78.1531 95.3334 78.1322 95.7968 78.2035L117.098 81.377Z" fill="#8E8E8E"/>
<path d="M75.9565 78.8427C75.8153 79.7759 75.3118 80.6157 74.5552 81.18C73.7986 81.7442 72.8501 81.9873 71.9154 81.8564L50.637 78.6601L51.6873 71.6282L72.9656 74.8017C73.8973 74.9426 74.7352 75.447 75.2958 76.2044C75.8563 76.9618 76.0939 77.9105 75.9565 78.8427Z" fill="#8E8E8E"/>
<path d="M114.221 100.623L113.17 107.609L91.8693 104.436C90.9409 104.299 90.1029 103.805 89.5352 103.058C88.9675 102.311 88.7153 101.371 88.8328 100.44C88.9024 99.9765 89.0629 99.5313 89.305 99.1298C89.5472 98.7284 89.8662 98.3788 90.2437 98.1009C90.6213 97.823 91.05 97.6224 91.5052 97.5106C91.9605 97.3988 92.4333 97.3779 92.8966 97.4493L114.221 100.623Z" fill="#8E8E8E"/>
<path d="M73.0797 98.0888C73.0128 98.5515 72.8549 98.9962 72.6151 99.3975C72.3753 99.7987 72.0584 100.149 71.6826 100.427C71.3069 100.705 70.8798 100.906 70.426 101.018C69.9722 101.13 69.5007 101.151 69.0387 101.08L47.7375 97.9062L48.7877 90.8514L70.066 94.0477C70.5307 94.1119 70.978 94.2679 71.3818 94.5065C71.7857 94.7451 72.1381 95.0616 72.4185 95.4377C72.6989 95.8137 72.9018 96.2417 73.0153 96.6969C73.1288 97.152 73.1507 97.6251 73.0797 98.0888Z" fill="#8E8E8E"/>
<path d="M38.3766 174.321L99.7916 183.499" stroke="#999999" stroke-linecap="round" stroke-linejoin="round"/>
<path d="M122.942 162.632C138.035 162.632 150.271 150.396 150.271 135.303C150.271 120.21 138.035 107.975 122.942 107.975C107.849 107.975 95.6137 120.21 95.6137 135.303C95.6137 150.396 107.849 162.632 122.942 162.632Z" fill="#DBDBDB" stroke="#999999" stroke-linecap="round" stroke-linejoin="round"/>
<path d="M108.399 120.737C108.97 121.925 137.486 149.847 137.486 149.847L108.399 120.737Z" fill="#DBDBDB"/>
<path d="M108.399 120.737C108.97 121.925 137.486 149.847 137.486 149.847" stroke="#999999" stroke-linecap="round" stroke-linejoin="round"/>
<path d="M137.486 120.737C136.892 121.925 108.399 149.847 108.399 149.847L137.486 120.737Z" fill="#DBDBDB"/>
<path d="M137.486 120.737C136.892 121.925 108.399 149.847 108.399 149.847" stroke="#999999" stroke-linecap="round" stroke-linejoin="round"/>
</svg>
