<svg width="49" height="54" viewBox="0 0 49 54" fill="none" xmlns="http://www.w3.org/2000/svg">
<path d="M47.0935 50.8605L45.4622 36.995C44.9601 32.7275 41.3436 29.5116 37.047 29.5116H16.9539C9.41906 29.5116 4.56451 22.6516 2.84355 15.7677L1.88418 11.9302" stroke="#EC407A" stroke-width="3.75" stroke-linecap="round" stroke-linejoin="round"/>
<path opacity="0.5" d="M16.9539 29.5116V42.0698C16.9539 46.8057 16.9539 49.1737 18.4252 50.645C19.8965 52.1163 22.2645 52.1163 27.0005 52.1163C31.7364 52.1163 34.1043 52.1163 35.5757 50.645C37.047 49.1737 37.047 46.8057 37.047 42.0698V29.5116" stroke="#EC407A" stroke-width="3.75" stroke-linecap="round"/>
<path opacity="0.9" d="M27.0005 21.9767C32.549 21.9767 37.047 17.4788 37.047 11.9302C37.047 6.3817 32.549 1.88372 27.0005 1.88372C21.4519 1.88372 16.9539 6.3817 16.9539 11.9302C16.9539 17.4788 21.4519 21.9767 27.0005 21.9767Z" stroke="#EC407A" stroke-width="3.75"/>
</svg>
